<?xml version="1.0" encoding="UTF-8" standalone="no"?>
<!-- Created with Inkscape (http://www.inkscape.org/) -->

<svg
   width="360"
   height="374"
   viewBox="0 0 95.249998 98.954169"
   version="1.1"
   id="svg5"
   inkscape:version="1.1 (c68e22c387, 2021-05-23)"
   sodipodi:docname="gadjets-l.svg"
   xmlns:inkscape="http://www.inkscape.org/namespaces/inkscape"
   xmlns:sodipodi="http://sodipodi.sourceforge.net/DTD/sodipodi-0.dtd"
   xmlns="http://www.w3.org/2000/svg"
   xmlns:svg="http://www.w3.org/2000/svg">
  <sodipodi:namedview
     id="namedview7"
     pagecolor="#ffffff"
     bordercolor="#666666"
     borderopacity="1.0"
     inkscape:pageshadow="2"
     inkscape:pageopacity="0.0"
     inkscape:pagecheckerboard="0"
     inkscape:document-units="mm"
     showgrid="false"
     showguides="true"
     inkscape:guide-bbox="true"
     inkscape:object-paths="true"
     inkscape:snap-intersection-paths="true"
     inkscape:snap-smooth-nodes="true"
     inkscape:snap-midpoints="true"
     inkscape:snap-bbox="true"
     inkscape:snap-bbox-midpoints="true"
     inkscape:snap-bbox-edge-midpoints="true"
     inkscape:bbox-nodes="true"
     inkscape:bbox-paths="true"
     inkscape:snap-nodes="true"
     inkscape:snap-global="false"
     units="px"
     width="360px"
     inkscape:zoom="0.70710678"
     inkscape:cx="122.32947"
     inkscape:cy="184.55487"
     inkscape:window-width="1600"
     inkscape:window-height="837"
     inkscape:window-x="-8"
     inkscape:window-y="-8"
     inkscape:window-maximized="1"
     inkscape:current-layer="layer1" />
  <defs
     id="defs2" />
  <g
     inkscape:label="Шар 1"
     inkscape:groupmode="layer"
     id="layer1">
    <circle
       style="opacity:1;fill:#d9eaf4;fill-opacity:1;stroke:none;stroke-width:2.46965;stroke-linecap:round;stroke-miterlimit:4;stroke-dasharray:none;stroke-opacity:1"
       id="path102782"
       cx="47.625"
       cy="51.593754"
       r="46.495258" />
    <path
       style="color:#000000;fill:#f7f7f7;fill-opacity:1;stroke-width:0.983078;-inkscape-stroke:none"
       d="m 45.205556,31.523885 c -0.35761,0.0165 -0.65061,-0.005 -0.94084,0.0634 -0.290239,0.068 -0.5602,0.26736 -0.73155,0.6125 l -0.0115,0.025 -1.33253,5.38197 -0.002,0.0192 c -0.0267,0.26465 -0.0109,0.49443 0.0576,0.69507 0.0685,0.20064 0.20098,0.37209 0.378259,0.47042 0.354551,0.19666 0.79703,0.12197 1.29029,-0.0883 l 0.0338,-0.0275 1.89557,-1.86573 0.0267,-0.0204 c -0.0132,0.0153 0.0264,-0.0117 0.10828,-0.0414 0.0818,-0.0297 0.20035,-0.0597 0.33793,-0.0845 0.27515,-0.0495 0.63196,-0.0799 0.99076,-0.0864 0.35878,-0.007 0.72175,0.0123 1.00995,0.0538 0.288201,0.0415 0.507951,0.13814 0.518431,0.14785 l 0.008,0.008 2.28105,1.77222 0.0173,0.01 c 0.50014,0.28508 0.98852,0.30805 1.34789,0.10752 0.35936,-0.20051 0.55587,-0.59947 0.55491,-1.02532 v -0.0423 l -1.83751,-5.50678 -0.008,-0.0173 c -0.15869,-0.31415 -0.44642,-0.47891 -0.723869,-0.52995 -0.277431,-0.051 -0.555991,-0.027 -0.83139,-0.0307 -0.84305,-3.2e-4 -2.065171,-3.2e-4 -4.437421,-3.2e-4 z"
       id="path44336"
       sodipodi:nodetypes="ccccccsscccccscscccssccccsccc" />
    <path
       style="color:#000000;fill:#686c74;-inkscape-stroke:none;fill-opacity:1"
       d="m 45.164176,31.460365 c -0.36376,0.0168 -0.6618,-0.005 -0.95703,0.0645 -0.29524,0.0692 -0.56984,0.27196 -0.74414,0.62304 l -0.0117,0.0254 -1.35547,5.47461 -0.002,0.0195 c -0.0272,0.26921 -0.0111,0.50294 0.0586,0.70704 0.0697,0.20409 0.20444,0.37849 0.38477,0.47851 0.36065,0.20005 0.81075,0.12407 1.3125,-0.0898 l 0.0449,-0.0195 1.93555,-1.90625 0.006,-0.008 c -0.0134,0.0156 0.03,-0.0245 0.11329,-0.0547 0.0832,-0.0302 0.2038,-0.0607 0.34375,-0.0859 0.27989,-0.0504 0.64284,-0.0813 1.00781,-0.0879 0.36496,-0.007 0.73418,0.0125 1.02734,0.0547 0.29316,0.0422 0.51669,0.14052 0.52735,0.15039 l 0.008,0.008 2.32031,1.80273 0.0176,0.01 c 0.50875,0.28998 1.00554,0.31335 1.37109,0.10937 0.36555,-0.20397 0.565441,-0.60979 0.56446,-1.04297 v -0.043 l -1.86914,-5.60157 -0.008,-0.0176 c -0.16142,-0.31956 -0.45411,-0.48715 -0.73633,-0.53907 -0.28221,-0.0519 -0.56556,-0.0275 -0.8457,-0.0312 l -0.006,0.5293 c 0.30739,0.004 0.574,-0.012 0.75586,0.0215 0.18074,0.0333 0.26614,0.0767 0.35742,0.25586 l 1.81446,5.44336 c -0.005,0.26297 -0.11293,0.46531 -0.28711,0.5625 -0.17819,0.0994 -0.45164,0.11756 -0.84571,-0.10547 l -2.25195,-1.75 c -0.20882,-0.19343 -0.47924,-0.23717 -0.8125,-0.28515 -0.33326,-0.048 -0.7231,-0.0675 -1.11133,-0.0605 -0.38822,0.007 -0.77191,0.04 -1.09179,0.0977 -0.15995,0.0288 -0.30394,0.0637 -0.42969,0.10937 -0.12576,0.0457 -0.23743,0.0928 -0.33399,0.20508 l -1.82617,1.79688 c -0.4045,0.16365 -0.69639,0.17594 -0.8164,0.10937 -0.0623,-0.0346 -0.10504,-0.0813 -0.14063,-0.18555 -0.0349,-0.10211 -0.0512,-0.26362 -0.0312,-0.47461 l 1.32422,-5.35156 c 0.12153,-0.24021 0.20668,-0.29858 0.38281,-0.33984 0.17948,-0.042 0.47049,-0.0327 0.86133,-0.0508 z"
       id="path9677" />
    <path
       style="color:#000000;fill:#f7f7f7;fill-opacity:1;-inkscape-stroke:none"
       d="m 16.244253,37.429115 c -1.811774,0 -2.803077,1.09416 -3.08203,2.28907 -0.278953,1.1949 0.05157,2.50336 0.876953,3.08203 l -0.02734,-0.0215 c 0.167419,0.15506 0.210149,0.29846 0.232421,0.51367 0.02227,0.21522 0.0026,0.48824 0.04687,0.79883 l 0.0039,0.0254 0.0078,0.0254 c 0.03383,0.097 0.124726,0.22144 0.238281,0.28125 0.113556,0.0598 0.227152,0.079 0.38086,0.0996 0.517686,0.0696 1.297567,0.0675 1.414061,0.0684 0.002,1.1e-4 0.0097,-1e-4 0.01172,0 0.211623,0.0106 0.800346,-0.0103 1.212892,-0.0664 0.156803,-0.0213 0.281175,-0.0565 0.388672,-0.14258 0.107495,-0.0861 0.159732,-0.22495 0.16992,-0.31641 0.03947,-0.24265 0.0356,-0.45196 0.06641,-0.63086 0.03157,-0.18333 0.08634,-0.34329 0.263672,-0.54297 l -0.04687,0.043 c 0.842099,-0.58698 1.221741,-1.92497 0.96875,-3.15234 -0.126496,-0.61369 -0.424608,-1.20698 -0.941408,-1.64453 -0.516798,-0.43756 -1.245706,-0.70899 -2.185547,-0.70899 z"
       id="path31088" />
    <path
       style="color:#000000;fill:#686c74;-inkscape-stroke:none;fill-opacity:1"
       d="m 16.244253,37.429115 c -1.811774,0 -2.803077,1.09416 -3.08203,2.28907 -0.278953,1.1949 0.05157,2.50336 0.876953,3.08203 l -0.02734,-0.0215 c 0.167419,0.15506 0.210149,0.29846 0.232421,0.51367 0.02227,0.21522 0.0026,0.48824 0.04687,0.79883 l 0.0039,0.0254 0.0078,0.0254 c 0.03383,0.097 0.124726,0.22144 0.238281,0.28125 0.113556,0.0598 0.227152,0.079 0.38086,0.0996 0.517686,0.0696 1.297567,0.0675 1.414061,0.0684 0.002,1.1e-4 0.0097,-1e-4 0.01172,0 0.211623,0.0106 0.800346,-0.0103 1.212892,-0.0664 0.156803,-0.0213 0.281175,-0.0565 0.388672,-0.14258 0.107495,-0.0861 0.159732,-0.22495 0.16992,-0.31641 0.03947,-0.24265 0.0356,-0.45196 0.06641,-0.63086 0.03157,-0.18333 0.08634,-0.34329 0.263672,-0.54297 l -0.04687,0.043 c 0.842099,-0.58698 1.221741,-1.92497 0.96875,-3.15234 -0.126496,-0.61369 -0.424608,-1.20698 -0.941408,-1.64453 -0.516798,-0.43756 -1.245706,-0.70899 -2.185547,-0.70899 z m 0,0.5293 c 0.839765,0 1.429807,0.23351 1.843751,0.58398 0.413944,0.35047 0.658635,0.8286 0.765625,1.34766 0.213981,1.03811 -0.183567,2.21182 -0.753906,2.60938 l -0.02539,0.0176 -0.01953,0.0234 c -0.241614,0.27206 -0.347681,0.55534 -0.390625,0.80469 -0.0419,0.24331 -0.03724,0.44861 -0.06641,0.63086 -0.0043,10e-4 -0.01999,0.0132 -0.109375,0.0254 -0.35375,0.0481 -1.055835,0.0642 -1.123047,0.0606 -0.07686,-10e-4 -0.944172,-0.01 -1.373004,-0.0645 -0.116508,-0.0156 -0.163681,-0.0305 -0.18164,-0.0371 -0.02494,-0.22443 -0.0121,-0.46215 -0.03906,-0.72265 -0.02907,-0.28095 -0.128531,-0.59588 -0.40039,-0.84766 l -0.01367,-0.0117 -0.01367,-0.0117 c -0.548274,-0.38439 -0.901673,-1.51985 -0.666016,-2.52929 0.235657,-1.00945 0.957114,-1.87891 2.566406,-1.87891 z"
       id="path16065"
       sodipodi:nodetypes="csccscccscccsscsccsscccsscccscccccscccscc" />
    <path
       style="color:#000000;fill:#686c74;-inkscape-stroke:none;fill-opacity:1"
       d="m 46.334096,31.460365 v 0.5293 h 2.48633 v -0.5293 z"
       id="path21155" />
    <path
       style="color:#000000;fill:#686c74;stroke-width:1;-inkscape-stroke:none;fill-opacity:1"
       d="m 44.908112,33.265265 v 0.6501 h -0.650091 v 0.52916 h 0.650091 v 0.65267 h 0.529683 v -0.65267 h 0.652156 v -0.52916 h -0.652156 v -0.6501 z"
       id="path21821" />
    <path
       style="color:#000000;fill:#686c74;stroke-linecap:round;-inkscape-stroke:none;fill-opacity:1"
       d="m 49.716906,32.909585 c -0.646079,1e-5 -1.17382,0.5297 -1.17382,1.17578 -1e-5,0.64609 0.52773,1.17383 1.17382,1.17383 0.6461,0 1.17579,-0.52773 1.17579,-1.17383 -1e-5,-0.64609 -0.52969,-1.17578 -1.17579,-1.17578 z m 0,0.5293 c 0.36011,0 0.64649,0.28637 0.64649,0.64648 0,0.36011 -0.286369,0.64649 -0.64649,0.64649 -0.360109,-1e-5 -0.646479,-0.28638 -0.646479,-0.64649 0,-0.3601 0.28638,-0.64648 0.646479,-0.64648 z"
       id="path22823" />
    <path
       style="color:#000000;fill:#f7f7f7;fill-opacity:1;stroke-linecap:round;-inkscape-stroke:none"
       d="m 60.066516,55.345135 c -0.3316,0 -0.605469,0.27582 -0.605469,0.60742 v 7.14453 c 0,0.3316 0.27387,0.60742 0.605469,0.60742 h 4.89649 c 0.3316,0 0.60742,-0.27582 0.60742,-0.60742 v -7.14453 c 0,-0.3316 -0.27582,-0.60742 -0.60742,-0.60742 z"
       id="path56721" />
    <path
       style="color:#000000;fill:#686c74;fill-opacity:1;stroke-width:3.77953;stroke-linecap:round;-inkscape-stroke:none"
       d="m 228.26172,230.91602 c 0.55753,3.68263 3.74776,6.51953 7.58203,6.51953 3.83424,0 7.03314,-2.83689 7.5918,-6.51953 h -2.0293 c -0.52917,2.58774 -2.81276,4.51953 -5.5625,4.51953 -2.74975,0 -5.02694,-1.93178 -5.55469,-4.51953 z"
       transform="scale(0.26458333)"
       id="path106893" />
    <path
       style="color:#000000;fill:#686c74;fill-opacity:1;stroke-width:3.77953;stroke-linecap:round;-inkscape-stroke:none"
       d="m 235.84375,222.09766 c -3.83432,0 -7.02456,2.83685 -7.58203,6.51953 h 2.02734 c 0.52775,-2.58776 2.80494,-4.51953 5.55469,-4.51953 2.74974,0 5.03333,1.93178 5.5625,4.51953 h 2.0293 c -0.55859,-3.68269 -3.75751,-6.51953 -7.5918,-6.51953 z"
       transform="scale(0.26458333)"
       id="path23557" />
    <path
       style="color:#000000;fill:#686c74;stroke-linecap:round;-inkscape-stroke:none;fill-opacity:1"
       d="m 62.472766,56.036535 c -0.57539,0 -1.04687,0.47149 -1.04687,1.04688 0,0.57539 0.47148,1.04883 1.04687,1.04883 0.57539,0 1.04688,-0.47344 1.04688,-1.04883 0,-0.57539 -0.47149,-1.04688 -1.04688,-1.04688 z m 0,0.5293 c 0.28941,0 0.51758,0.22817 0.51758,0.51758 0,0.28941 -0.228169,0.51953 -0.51758,0.51953 -0.2894,0 -0.51953,-0.23012 -0.51953,-0.51953 0,-0.28941 0.23013,-0.51758 0.51953,-0.51758 z"
       id="path23559" />
    <path
       style="color:#000000;fill:#f7f7f7;fill-opacity:1;stroke-linecap:round;-inkscape-stroke:none"
       d="m 7.3067538,73.643965 c -0.632724,0 -1.15039,0.51766 -1.15039,1.15039 v 5.95898 c 0,0.63273 0.517666,1.15039 1.15039,1.15039 h 5.8378912 c 0.632725,0 1.150391,-0.51766 1.150391,-1.15039 v -5.95898 c 0,-0.63273 -0.517666,-1.15039 -1.150391,-1.15039 z"
       id="path67014" />
    <path
       style="color:#000000;fill:#686c74;-inkscape-stroke:none;fill-opacity:1"
       d="m 9.6114418,77.552165 c -0.368074,-0.0671 -0.828813,-0.0145 -1.257813,0.31445 l 0.320313,0.41992 c 0.31329,-0.2402 0.586012,-0.26147 0.841797,-0.21484 0.255785,0.0466 0.483766,0.17708 0.6328122,0.26758 l -0.0098,-0.008 c 0.594179,0.39766 1.343229,0.45135 2.013672,-0.041 l -0.3125,-0.42773 c -0.521839,0.38323 -0.945901,0.33869 -1.408204,0.0293 l -0.0039,-0.002 -0.0059,-0.004 c -0.156351,-0.0949 -0.4424732,-0.26688 -0.8105472,-0.33398 z"
       id="path20873" />
    <path
       style="color:#000000;fill:#686c74;stroke-linecap:round;-inkscape-stroke:none;fill-opacity:1"
       d="m 10.28527,75.235755 c -1.5661282,0 -2.8417972,1.27567 -2.8417972,2.8418 0,1.56613 1.275669,2.83984 2.8417972,2.83984 1.566128,0 2.841797,-1.27371 2.841797,-2.83984 0,-1.56613 -1.27567,-2.8418 -2.841797,-2.8418 z m 0,0.5293 c 1.280144,0 2.3125,1.03236 2.3125,2.3125 0,1.28014 -1.032356,2.31055 -2.3125,2.31055 -1.2801452,0 -2.3125002,-1.03041 -2.3125002,-2.31055 0,-1.28014 1.032355,-2.3125 2.3125002,-2.3125 z"
       id="path23561" />
    <path
       style="color:#000000;fill:#f7f7f7;fill-opacity:1;stroke-linecap:round;-inkscape-stroke:none"
       d="m 47.539176,80.854895 c -2.39146,0 -4.33594,1.94448 -4.33594,4.33594 0,2.39146 1.94448,4.33594 4.33594,4.33594 2.39146,0 4.33594,-1.94448 4.33594,-4.33594 0,-2.39146 -1.94448,-4.33594 -4.33594,-4.33594 z"
       id="path63239" />
    <path
       style="color:#000000;fill:#686c74;stroke-linecap:round;-inkscape-stroke:none;fill-opacity:1"
       d="m 47.539176,80.854895 c -2.39146,0 -4.33594,1.94448 -4.33594,4.33594 0,2.39146 1.94448,4.33594 4.33594,4.33594 2.39146,0 4.33594,-1.94448 4.33594,-4.33594 0,-2.39146 -1.94448,-4.33594 -4.33594,-4.33594 z m 0,0.5293 c 2.10548,0 3.80664,1.70116 3.80664,3.80664 0,2.10548 -1.70116,3.80664 -3.80664,3.80664 -2.10548,0 -3.80664,-1.70116 -3.80664,-3.80664 0,-2.10548 1.70116,-3.80664 3.80664,-3.80664 z"
       id="path23563" />
    <path
       style="color:#000000;fill:#686c74;stroke-linecap:round;-inkscape-stroke:none;fill-opacity:1"
       d="m 47.539176,84.128335 c -1.18075,0 -2.14258,0.96378 -2.14258,2.14453 0,1.18075 0.96183,2.14453 2.14258,2.14453 1.18075,0 2.14453,-0.96378 2.14453,-2.14453 0,-1.18075 -0.96378,-2.14453 -2.14453,-2.14453 z m 0,0.5293 c 0.89476,0 1.61523,0.72047 1.61523,1.61523 0,0.89477 -0.72047,1.61524 -1.61523,1.61524 -0.89477,0 -1.61328,-0.72047 -1.61328,-1.61524 0,-0.89476 0.71851,-1.61523 1.61328,-1.61523 z"
       id="path23565" />
    <path
       style="color:#000000;fill:#686c74;stroke-linecap:round;-inkscape-stroke:none;fill-opacity:1"
       d="m 47.539176,81.567785 c -0.56753,0 -1.0332,0.46568 -1.0332,1.03321 0,0.56753 0.46567,1.0332 1.0332,1.0332 0.56753,0 1.0332,-0.46567 1.0332,-1.0332 0,-0.56753 -0.46567,-1.03321 -1.0332,-1.03321 z m 0,0.52735 c 0.28154,0 0.50391,0.22431 0.50391,0.50586 0,0.28154 -0.22237,0.5039 -0.50391,0.5039 -0.28155,0 -0.50391,-0.22236 -0.50391,-0.5039 0,-0.28155 0.22236,-0.50586 0.50391,-0.50586 z"
       id="path23567" />
    <path
       style="color:#000000;fill:#686c74;-inkscape-stroke:none;fill-opacity:1"
       d="m 47.218866,85.247475 v 1.28125 h 0.52929 v -1.28125 z"
       id="path23682" />
    <path
       style="color:#000000;fill:#f7f7f7;fill-opacity:1;stroke-width:1;-inkscape-stroke:none"
       d="m 84.750123,72.210175 c -0.649119,0.0149 -1.294561,0.38585 -1.40043,1.06867 l -0.0021,0.0191 v 5.83014 c -0.632881,0.74374 -0.861081,1.66179 -0.605131,2.44171 0.269309,0.8206 1.062523,1.44414 2.230355,1.46451 l 0.0057,0.002 0.0041,-0.002 c 1.112027,-0.0178 1.919611,-0.699 2.162141,-1.55443 0.227909,-0.80385 -0.101341,-1.73314 -0.962731,-2.37711 v -5.80637 l -0.0041,-0.0217 c -0.126008,-0.73828 -0.778708,-1.0794 -1.427819,-1.06454 z"
       id="path69931" />
    <path
       style="color:#000000;fill:#686c74;stroke-width:1;-inkscape-stroke:none;fill-opacity:1"
       d="m 84.750123,72.210175 c -0.649119,0.0149 -1.294561,0.38585 -1.40043,1.06867 l -0.0021,0.0191 v 5.83014 c -0.632881,0.74374 -0.861081,1.66179 -0.605131,2.44171 0.269309,0.8206 1.062523,1.44414 2.230355,1.46451 l 0.0057,0.002 0.0041,-0.002 c 1.112027,-0.0178 1.919611,-0.699 2.162141,-1.55443 0.227909,-0.80385 -0.101341,-1.73314 -0.962731,-2.37711 v -5.80637 l -0.0041,-0.0217 c -0.126008,-0.73828 -0.778708,-1.0794 -1.427819,-1.06454 z m 0.07648,0.52194 c 0.382648,0.005 0.748548,0.19704 0.82579,0.62476 v 1.86139 h -0.872816 v 0.52916 h 0.872816 v 0.53899 H 84.69328 v 0.52917 h 0.959114 v 0.42426 h -0.888835 v 0.52917 h 0.888835 v 1.55856 l 0.120922,0.078 c 0.832681,0.53597 1.041686,1.29388 0.861447,1.9296 -0.179901,0.63454 -0.753851,1.15358 -1.656231,1.16995 -0.989719,-0.0189 -1.533131,-0.48678 -1.734262,-1.09967 -0.201499,-0.61397 -0.03665,-1.40351 0.560692,-2.0407 l 0.07234,-0.0765 v -0.10543 -5.826 c 0.0606,-0.37189 0.462746,-0.60238 0.872815,-0.62321 0.02559,-0.001 0.05097,-0.002 0.07648,-0.002 z"
       id="path24196" />
    <path
       style="color:#000000;fill:#f7f7f7;fill-opacity:1;stroke-linecap:round;-inkscape-stroke:none"
       d="m 44.730586,0.48771133 c -0.3316,0 -0.60743,0.275823 -0.60743,0.60742197 v 8.292969 c 0,0.331599 0.27583,0.607422 0.60743,0.607422 h 5.99804 c 0.3316,0 0.60742,-0.275823 0.60742,-0.607422 v -8.292969 c 0,-0.33159897 -0.27582,-0.60742197 -0.60742,-0.60742197 z"
       id="path60283" />
    <path
       style="color:#000000;fill:#686c74;-inkscape-stroke:none;fill-opacity:1"
       d="m 46.828236,1.3666173 v 0.529297 h 1.70899 v -0.529297 z"
       id="path25450" />
    <path
       style="color:#000000;fill:#686c74;-inkscape-stroke:none;fill-opacity:1"
       d="m 30.015633,62.024615 -1.289063,1.28906 0.373047,0.37305 1.289063,-1.28711 z"
       id="path25598" />
    <path
       style="color:#000000;fill:#f7f7f7;fill-opacity:1;stroke-linecap:round;-inkscape-stroke:none"
       d="m 28.265738,55.970135 c -0.488996,0 -0.892578,0.40163 -0.892578,0.89062 v 4.66602 c 0,0.48899 0.403582,0.89062 0.892578,0.89062 h 9.214844 c 0.488995,0 0.890625,-0.40163 0.890625,-0.89062 v -4.66602 c 0,-0.48899 -0.40163,-0.89062 -0.890625,-0.89062 z"
       id="path51187" />
    <path
       style="color:#000000;fill:#686c74;-inkscape-stroke:none;fill-opacity:1"
       d="m 35.978787,62.024615 1.289063,1.28906 -0.373047,0.37305 -1.289063,-1.28711 z"
       id="path25686" />
    <path
       style="color:#000000;fill:#686c74;stroke-linecap:round;-inkscape-stroke:none;fill-opacity:1"
       d="m 28.265738,55.970135 c -0.488996,0 -0.892578,0.40163 -0.892578,0.89062 v 4.66602 c 0,0.48899 0.403582,0.89062 0.892578,0.89062 h 9.214844 c 0.488995,0 0.890625,-0.40163 0.890625,-0.89062 v -4.66602 c 0,-0.48899 -0.40163,-0.89062 -0.890625,-0.89062 z m 0,0.5293 h 9.214844 c 0.20499,0 0.361328,0.15633 0.361328,0.36132 v 4.66602 c 0,0.20499 -0.156338,0.36133 -0.361328,0.36133 h -9.214844 c -0.20499,0 -0.363281,-0.15634 -0.363281,-0.36133 v -4.66602 c 0,-0.20499 0.158291,-0.36132 0.363281,-0.36132 z"
       id="rect25710" />
    <path
       style="color:#000000;fill:#686c74;stroke-linecap:round;-inkscape-stroke:none;fill-opacity:1"
       d="m 7.3067538,73.643965 c -0.632724,0 -1.15039,0.51766 -1.15039,1.15039 v 5.95898 c 0,0.63273 0.517666,1.15039 1.15039,1.15039 h 5.8378912 c 0.632725,0 1.150391,-0.51766 1.150391,-1.15039 v -5.95898 c 0,-0.63273 -0.517666,-1.15039 -1.150391,-1.15039 z m 0,0.52929 h 5.8378912 c 0.34872,0 0.621094,0.27238 0.621094,0.6211 v 5.95898 c 0,0.34872 -0.272374,0.62109 -0.621094,0.62109 H 7.3067538 c -0.348719,0 -0.623046,-0.27237 -0.623046,-0.62109 v -5.95898 c 0,-0.34872 0.274327,-0.6211 0.623046,-0.6211 z"
       id="rect25814" />
    <path
       style="color:#000000;fill:#f7f7f7;fill-opacity:1;stroke-linecap:round;-inkscape-stroke:none"
       d="m 74.425496,38.706615 c -0.48898,-0.005 -0.89063,0.40163 -0.89063,0.89062 v 3.10352 c 0,0.489 0.52344,0.44582 0.14948,0.76092 -0.6859,0.57793 -1.24963,1.23731 -1.54001,2.07892 0.0238,0.11289 0.084,0.20257 0.27792,0.20717 l 11.20494,0.0332 0.37703,-0.23975 c 0.15188,-0.53006 -0.54792,-1.24481 -1.68698,-2.05483 -0.39851,-0.28339 0.36255,-0.2265 0.36255,-0.7155 v -3.10352 c 0,-0.48899 -0.40164,-0.88596 -0.89062,-0.89062 z"
       id="path34683"
       sodipodi:nodetypes="ssssccccsssss" />
    <path
       style="color:#000000;fill:#686c74;stroke-linecap:round;-inkscape-stroke:none;fill-opacity:1"
       d="m 74.244256,38.776775 c -0.489,0 -0.89063,0.40163 -0.89063,0.89062 v 3.10352 c 0,0.489 0.40163,0.89062 0.89063,0.89062 h 7.54492 c 0.489,0 0.89062,-0.40162 0.89062,-0.89062 v -3.10352 c 0,-0.48899 -0.40162,-0.89062 -0.89062,-0.89062 z m 0,0.5293 h 7.54492 c 0.20499,0 0.36133,0.15633 0.36133,0.36132 v 3.10352 c 0,0.20499 -0.15634,0.36133 -0.36133,0.36133 h -7.54492 c -0.20499,0 -0.36133,-0.15634 -0.36133,-0.36133 v -3.10352 c 0,-0.20499 0.15634,-0.36132 0.36133,-0.36132 z"
       id="rect26038" />
    <path
       style="color:#000000;fill:#686c74;-inkscape-stroke:none;fill-opacity:1"
       d="m 73.654406,43.073645 c -0.32579,0.34813 -0.87834,0.87659 -1.26953,1.37891 -0.19559,0.25116 -0.35592,0.49099 -0.42578,0.74805 -0.0349,0.12853 -0.046,0.26992 0.004,0.41015 0.0499,0.14023 0.16618,0.25729 0.30273,0.32422 l 0.0547,0.0273 11.48828,0.0156 0.0508,-0.0234 c 0.15215,-0.0658 0.28131,-0.16307 0.35938,-0.29882 0.0781,-0.13576 0.0917,-0.29472 0.0644,-0.4336 -0.0544,-0.27777 -0.23107,-0.51301 -0.44727,-0.75781 -0.43239,-0.4896 -1.07205,-0.99703 -1.51953,-1.37891 l -0.34375,0.4043 c 0.46001,0.39257 1.08837,0.89572 1.4668,1.32422 0.18922,0.21425 0.30586,0.4161 0.32422,0.50976 0.009,0.0468 0.003,0.0558 -0.004,0.0684 -0.005,0.009 -0.0427,0.0342 -0.0801,0.0566 l -11.21875,-0.0156 c -0.002,-0.005 -0.007,-0.0329 0.01,-0.0937 0.0331,-0.12177 0.15586,-0.33628 0.33203,-0.5625 0.35235,-0.45244 0.89075,-0.97253 1.23633,-1.3418 z"
       id="path26073" />
    <path
       style="color:#000000;fill:#686c74;stroke-linecap:round;-inkscape-stroke:none;fill-opacity:1"
       d="m 44.730586,0.48771133 c -0.3316,0 -0.60743,0.275823 -0.60743,0.60742197 v 8.292969 c 0,0.331599 0.27583,0.607422 0.60743,0.607422 h 5.99804 c 0.3316,0 0.60742,-0.275823 0.60742,-0.607422 v -8.292969 c 0,-0.33159897 -0.27582,-0.60742197 -0.60742,-0.60742197 z m 0,0.52929697 h 5.99804 c 0.0476,0 0.0781,0.03053 0.0781,0.07813 v 8.292969 c 0,0.04759 -0.0305,0.07813 -0.0781,0.07813 h -5.99804 c -0.0476,0 -0.0781,-0.03053 -0.0781,-0.07813 v -8.292969 c 0,-0.04759 0.0305,-0.07813 0.0781,-0.07813 z"
       id="rect26958" />
    <path
       style="color:#000000;fill:#81badb;stroke-width:1;stroke-linecap:round;-inkscape-stroke:none;fill-opacity:0.87058824"
       d="m 32.812209,62.417545 c 3.333308,4.56989 8.726099,7.54269 14.81305,7.54269 5.494115,0 10.421146,-2.42355 13.780553,-6.25543 h -0.70435 c -3.251031,3.52019 -7.904292,5.72627 -13.076203,5.72627 -5.776717,0 -10.90644,-2.75137 -14.157275,-7.01353 z"
       id="path89292" />
    <path
       style="color:#000000;fill:#81badb;stroke-width:1;stroke-linecap:round;-inkscape-stroke:none;fill-opacity:0.87058824"
       d="m 43.114423,33.868895 c -7.938201,2.01078 -13.815695,9.20374 -13.815695,17.76533 0,1.49437 0.183605,2.94542 0.521417,4.33617 h 0.542602 c -0.34735,-1.38815 -0.534334,-2.84007 -0.534334,-4.33617 0,-8.2211 5.56877,-15.13532 13.141314,-17.18086 z"
       id="path89290" />
    <path
       style="color:#000000;fill:#81badb;stroke-width:1;stroke-linecap:round;-inkscape-stroke:none;fill-opacity:0.87058824"
       d="m 51.765573,33.777895 0.197921,0.59273 c 7.733715,1.93593 13.458611,8.92808 13.458611,17.26355 0,1.27454 -0.136279,2.51652 -0.390673,3.71502 0.201472,0.0233 0.375089,0.14815 0.467672,0.32091 0.29238,-1.29927 0.452167,-2.64861 0.452167,-4.03593 0,-8.69434 -6.060426,-15.97849 -14.185698,-17.85628 z"
       id="path26986" />
    <path
       style="color:#000000;fill:#8cc0df;stroke-width:1;stroke-linecap:round;-inkscape-stroke:none;fill-opacity:1"
       d="m 80.029999,45.769935 c 0.342233,1.90403 0.530717,3.86152 0.530717,5.86424 0,16.78375 -12.550044,30.62061 -28.778088,32.66519 0.03588,0.17109 0.06148,0.34568 0.07648,0.52348 16.479382,-2.08304 29.230775,-16.14485 29.230775,-33.18867 0,-2.00104 -0.1856,-3.95766 -0.522449,-5.86217 z"
       id="path84367" />
    <path
       style="color:#000000;fill:#8cc0df;stroke-width:1;stroke-linecap:round;-inkscape-stroke:none;fill-opacity:1"
       d="m 14.920279,44.522975 c -0.496287,2.29216 -0.760159,4.67072 -0.760159,7.1112 0,16.98502 12.663915,31.00878 29.060755,33.16696 0.01589,-0.17766 0.04285,-0.35207 0.07958,-0.52296 -16.146899,-2.11834 -28.610654,-15.91798 -28.610654,-32.644 0,-2.4259 0.264239,-4.78929 0.761709,-7.06572 -0.183391,-0.01 -0.369116,-0.0239 -0.529683,-0.0455 -5.41e-4,-7e-5 -0.001,8e-5 -0.0015,0 z"
       id="path84365" />
    <path
       style="color:#000000;fill:#8cc0df;stroke-width:1;stroke-linecap:round;-inkscape-stroke:none;fill-opacity:1"
       d="m 47.625259,18.169551 c -13.447988,0 -25.04406,7.93746 -30.362487,19.381244 0.17838,0.0459 0.345451,0.10401 0.501261,0.17312 5.242719,-11.238105 16.639788,-19.025197 29.861226,-19.025197 13.616368,0 25.297889,8.258963 30.31443,20.041157 l 0.573607,0.006 C 73.464515,26.663499 61.536212,18.169551 47.625259,18.169551 Z"
       id="path27090" />
    <path
       style="color:#000000;fill:#8cc0df;stroke-width:1;stroke-linecap:round;-inkscape-stroke:none;fill-opacity:1"
       d="m 82.801922,81.727945 c -8.491699,9.91683 -21.094718,16.20883 -35.176663,16.20883 -13.998305,0 -26.534255,-6.2182 -35.024218,-16.03313 h -0.696082 c 8.590984,10.12744 21.401955,16.56281 35.7203,16.56281 14.177213,0 26.874517,-6.31103 35.46295,-16.26619 -0.11735,-0.14495 -0.214328,-0.30305 -0.286287,-0.47232 z"
       id="path84391" />
    <path
       style="color:#000000;fill:#8cc0df;stroke-width:1;stroke-linecap:round;-inkscape-stroke:none;fill-opacity:1"
       d="m 51.336143,4.9486523 v 0.530717 c 23.83954,1.890149 42.591715,21.8286457 42.591715,46.1548057 0,9.48381 -2.855304,18.29742 -7.74578,25.63823 v 0.93276 c 5.21395,-7.55091 8.274947,-16.7021 8.274947,-26.57099 0,-24.612461 -18.993774,-44.7933397 -43.120882,-46.6855227 z"
       id="path84389" />
    <path
       style="color:#000000;fill:#8cc0df;stroke-width:1;stroke-linecap:round;-inkscape-stroke:none;fill-opacity:1"
       d="M 44.123147,4.9326323 C 19.896905,6.7243883 0.7929755,26.950754 0.7929755,51.634175 c 0,8.10149 2.0587044,15.72244 5.6802734,22.36969 0.1215575,-0.1281 0.2720763,-0.22861 0.4408011,-0.29042 -3.5662182,-6.56254 -5.5919078,-14.08392 -5.5919078,-22.07927 0,-24.397372 18.8619068,-44.3817627 42.8010058,-46.1713417 z"
       id="path27194" />
    <path
       style="color:#000000;fill:#686c74;stroke-linecap:round;-inkscape-stroke:none;fill-opacity:1"
       d="m 60.066516,55.345135 c -0.3316,0 -0.605469,0.27582 -0.605469,0.60742 v 7.14453 c 0,0.3316 0.27387,0.60742 0.605469,0.60742 h 4.89649 c 0.3316,0 0.60742,-0.27582 0.60742,-0.60742 v -7.14453 c 0,-0.3316 -0.27582,-0.60742 -0.60742,-0.60742 z m 0,0.5293 h 4.89649 c 0.0476,0 0.0781,0.0305 0.0781,0.0781 v 7.14453 c 0,0.0476 -0.0305,0.0781 -0.0781,0.0781 h -4.89649 c -0.0476,0 -0.0762,-0.0305 -0.0762,-0.0781 v -7.14453 c 0,-0.0476 0.0286,-0.0781 0.0762,-0.0781 z"
       id="rect27298" />
    <path
       style="color:#000000;fill:#686c74;stroke-width:0.529167;stroke-linecap:round;-inkscape-stroke:none;fill-opacity:1"
       d="m 48.017896,8.8146003 a 0.39256221,0.39256221 0 0 1 -0.39256,0.392562 0.39256221,0.39256221 0 0 1 -0.39256,-0.392562 0.39256221,0.39256221 0 0 1 0.39256,-0.392562 0.39256221,0.39256221 0 0 1 0.39256,0.392562 z"
       id="path27390" />
    <path
       style="color:#000000;fill:#686c74;stroke-width:0.529167;stroke-linecap:round;-inkscape-stroke:none;fill-opacity:1"
       d="m 9.0483668,74.642785 a 0.3416411,0.3416411 0 0 1 -0.341641,0.34164 0.3416411,0.3416411 0 0 1 -0.341642,-0.34164 0.3416411,0.3416411 0 0 1 0.341642,-0.34164 0.3416411,0.3416411 0 0 1 0.341641,0.34164 z"
       id="path27392" />
    <path
       style="color:#000000;fill:#686c74;stroke-width:0.529167;stroke-linecap:round;-inkscape-stroke:none;fill-opacity:1"
       d="m 7.9900318,74.642785 a 0.3416411,0.3416411 0 0 1 -0.341641,0.34164 0.3416411,0.3416411 0 0 1 -0.341641,-0.34164 0.3416411,0.3416411 0 0 1 0.341641,-0.34164 0.3416411,0.3416411 0 0 1 0.341641,0.34164 z"
       id="circle27474" />
    <path
       style="color:#000000;fill:#686c74;stroke-width:0.529167;stroke-linecap:round;-inkscape-stroke:none;fill-opacity:1"
       d="m 77.405656,44.293665 h 1.35114 c 0.1896,0 0.29314,0.15911 0.34224,0.34223 l 0.0569,0.21234 c 0.0491,0.18313 0.0965,0.34224 -0.0931,0.34224 h -1.9846 c -0.1896,0 -0.11938,-0.1516 -0.0718,-0.33512 l 0.0569,-0.21946 c 0.0476,-0.18351 0.15263,-0.34223 0.34223,-0.34223 z"
       id="rect27578" />
    <path
       style="color:#000000;fill:#686c74;-inkscape-stroke:none;fill-opacity:1"
       d="m 17.718863,44.267005 -0.529296,0.01 0.01172,0.68555 c -0.04204,0.0115 -0.08567,0.0233 -0.15625,0.0332 -0.188903,0.0265 -0.450868,0.0374 -0.712892,0.0332 -0.262023,-0.004 -0.526311,-0.0241 -0.718749,-0.0547 -0.07121,-0.0113 -0.117375,-0.023 -0.162109,-0.0352 l 0.01758,-0.64453 -0.529297,-0.0156 -0.02148,0.875 0.02539,0.0566 c 0.08129,0.17361 0.187765,0.18528 0.279297,0.2168 0.09153,0.0315 0.191817,0.0521 0.306641,0.0703 0.229646,0.0365 0.510533,0.056 0.792968,0.0605 0.282436,0.005 0.564452,-0.006 0.796875,-0.0391 0.116212,-0.0163 0.218697,-0.0358 0.314454,-0.0703 0.09576,-0.0345 0.215055,-0.0689 0.28125,-0.24023 l 0.01953,-0.0488 z"
       id="path29521" />
    <path
       style="color:#000000;fill:#686c74;-inkscape-stroke:none;fill-opacity:1"
       d="m 15.789176,45.167395 -0.527343,0.0234 0.03516,0.78516 0.002,0.0117 c 0.01779,0.13853 0.109931,0.23226 0.189453,0.28515 0.07952,0.0529 0.161256,0.082 0.248047,0.10547 0.173581,0.047 0.370307,0.0646 0.570311,0.0644 0.200005,-1.4e-4 0.398655,-0.0175 0.572266,-0.0644 0.08681,-0.0235 0.168656,-0.0532 0.248047,-0.10547 0.07939,-0.0522 0.171867,-0.14477 0.191407,-0.2832 l 0.002,-0.0137 0.02734,-0.77735 -0.527344,-0.0195 -0.02539,0.66797 c -0.01682,0.007 -0.02491,0.0115 -0.05469,0.0195 -0.104551,0.0283 -0.270059,0.0468 -0.433594,0.0469 -0.163534,1.2e-4 -0.329898,-0.0188 -0.433593,-0.0469 -0.02966,-0.008 -0.03628,-0.0124 -0.05273,-0.0195 z"
       id="path29523" />
    <circle
       style="opacity:1;fill:#686c74;fill-opacity:1;stroke:none;stroke-width:0.529167;stroke-linecap:round;stroke-miterlimit:4;stroke-dasharray:none;stroke-opacity:1"
       id="path106935"
       cx="62.392056"
       cy="60.771484"
       r="0.49609375" />
  </g>
</svg>
