<?xml version="1.0" encoding="UTF-8" standalone="no"?>
<!-- Created with Inkscape (http://www.inkscape.org/) -->

<svg
   width="774"
   height="384"
   viewBox="0 0 204.7875 101.6"
   version="1.1"
   id="svg5"
   sodipodi:docname="home-s.svg"
   inkscape:version="1.1 (c68e22c387, 2021-05-23)"
   xmlns:inkscape="http://www.inkscape.org/namespaces/inkscape"
   xmlns:sodipodi="http://sodipodi.sourceforge.net/DTD/sodipodi-0.dtd"
   xmlns="http://www.w3.org/2000/svg"
   xmlns:svg="http://www.w3.org/2000/svg">
  <sodipodi:namedview
     id="namedview119"
     pagecolor="#ffffff"
     bordercolor="#666666"
     borderopacity="1.0"
     inkscape:pageshadow="2"
     inkscape:pageopacity="0.0"
     inkscape:pagecheckerboard="0"
     showgrid="false"
     showguides="true"
     inkscape:guide-bbox="true"
     inkscape:snap-nodes="true"
     inkscape:object-nodes="true"
     inkscape:snap-bbox="false"
     inkscape:bbox-nodes="true"
     inkscape:snap-bbox-edge-midpoints="true"
     inkscape:bbox-paths="true"
     inkscape:snap-intersection-paths="true"
     inkscape:snap-smooth-nodes="true"
     inkscape:object-paths="true"
     inkscape:snap-midpoints="true"
     inkscape:snap-others="true"
     inkscape:zoom="0.71905079"
     inkscape:cx="404.00484"
     inkscape:cy="330.29656"
     inkscape:window-width="1600"
     inkscape:window-height="837"
     inkscape:window-x="-8"
     inkscape:window-y="-8"
     inkscape:window-maximized="1"
     inkscape:current-layer="svg5" />
  <defs
     id="defs2">
    <linearGradient
       id="linearGradient1692">
      <stop
         style="stop-color:#bababa;stop-opacity:1;"
         offset="0"
         id="stop1690" />
    </linearGradient>
    <clipPath
       clipPathUnits="userSpaceOnUse"
       id="clipPath97839">
      <g
         id="use97841">
        <g
           id="g25450">
          <path
             id="path25446"
             style="opacity:1;fill:#797a7c;stroke:#797a7c;stroke-width:0;stroke-linecap:round;paint-order:fill markers stroke"
             d="m 81.541275,184.08385 h 0.999998 v 26.55287 h -0.999998 z" />
          <path
             id="path25448"
             style="fill:#797a7c;stroke:#797a7c;stroke-width:0;stroke-linecap:round;paint-order:fill markers stroke"
             d="m 127.5811,184.08385 h 1 v 26.55287 h -1 z" />
        </g>
      </g>
    </clipPath>
  </defs>
  <path
     style="color:#000000;fill:#d9eaf4;fill-opacity:1;stroke:none;stroke-opacity:1;-inkscape-stroke:none"
     d="m 41.851831,0.26596 c 20.653538,-1.44213 35.982368,11.34687 70.936009,13.00056 21.79309,1.03106 56.16452,-1.70135 72.0693,9.38098 4.16048,2.92858 7.47375,6.45945 10.09274,10.39715 3.0053,4.51853 5.09641,9.57277 6.50441,14.86738 4.23266,15.91641 2.29208,34.00509 0.45612,46.24292 -0.41387,2.75868 -0.82242,5.22005 -1.15374,7.29221 H 172.63389 32.073995 6.3829838 C 5.2901846,96.21925 4.0548177,89.95788 3.0241877,83.14582 0.7287743,67.97403 -0.5510632,50.07055 3.0216146,34.7688 4.0387072,30.4126 5.4490789,26.26726 7.341258,22.45583 c 0.9205016,-1.85417 1.9550326,-3.62932 3.113779,-5.31128 1.310801,-1.90267 2.78056,-3.68609 4.42403,-5.32974 C 21.10741,5.58578 29.830644,1.36407 41.851831,0.26596 Z"
     id="path14953" />
  <g
     id="rect195720" />
  <path
     id="rect43716-0"
     style="fill:#e5f1f8;fill-opacity:1;stroke-width:0"
     d="m 151.93422,64.272163 c -12.90008,0.0827 -13.15791,4.393 -19.96862,6.57697 -5.20414,1.66881 -8.79273,0.43677 -13.28767,3.43536 -7.61211,6.9938 -11.17803,13.52064 -12.0639,22.0498 h 61.00781 c -0.2655,-11.77662 -0.25476,-31.38785 -15.68762,-32.06209 z"
     sodipodi:nodetypes="ssccccs" />
  <g
     id="g217664"
     transform="matrix(1.1945458,0,0,1.1945458,11.421347,-155.28093)">
    <rect
       style="opacity:1;fill:#ffffff;fill-opacity:1;stroke:none;stroke-width:1.58228;stroke-linecap:round;stroke-linejoin:miter;stroke-miterlimit:4;stroke-dasharray:none;stroke-opacity:1;paint-order:normal"
       id="rect215996"
       width="21.599201"
       height="6.7975259"
       x="85.970451"
       y="202.38866" />
    <path
       id="rect212747"
       style="color:#000000;fill:#d9ae99;stroke-width:1;stroke-linecap:round;-inkscape-stroke:none"
       d="m 85.970459,202.38867 v 0.25012 6.5996 h 3.723288 l -0.438216,1.39834 h 0.614712 l 0.584181,-1.39834 h 6.133478 0.50023 5.915868 l 0.46988,1.39834 h 0.47726 l -0.1754,-1.39834 h 3.92724 v -6.84972 h -10.614848 -0.50023 z m 0.500229,0.50023 h 10.117214 v 5.84926 H 86.470688 Z m 10.617444,0 h 10.115138 v 5.84926 H 97.088132 Z" />
    <rect
       style="opacity:1;fill:none;fill-opacity:1;stroke:#d9ae99;stroke-width:0.499999;stroke-linecap:round;stroke-linejoin:miter;stroke-miterlimit:4;stroke-dasharray:none;stroke-opacity:1;paint-order:normal"
       id="rect215511"
       width="0.046772167"
       height="1.4148581"
       x="95.333366"
       y="205.07256" />
    <rect
       style="opacity:1;fill:none;fill-opacity:1;stroke:#d9ae99;stroke-width:0.499999;stroke-linecap:round;stroke-linejoin:miter;stroke-miterlimit:4;stroke-dasharray:none;stroke-opacity:1;paint-order:normal"
       id="rect215593"
       width="0.046772167"
       height="1.4148581"
       x="98.034462"
       y="205.07256" />
  </g>
  <path
     id="rect43716"
     style="fill:#e5f1f8;fill-opacity:1;stroke-width:0"
     d="m 54.655326,64.807593 c 14.880171,0.0812 14.892251,4.40777 22.594403,6.55207 5.885298,1.63849 10.474812,-0.0622 15.901773,3.10017 5.108778,5.86375 6.113218,10.98269 4.964478,21.77986 l -61.201587,0.0946 c -1.352369,-11.33124 -0.900659,-28.41841 17.740933,-31.52665 z" />
  <g
     id="g217668"
     transform="matrix(1.1945458,0,0,1.1945458,11.421347,-155.28093)">
    <rect
       style="opacity:1;fill:#00af8a;fill-opacity:1;stroke:none;stroke-width:2.12118;stroke-linecap:round;stroke-linejoin:round;stroke-miterlimit:4;stroke-dasharray:none;stroke-opacity:1;paint-order:fill markers stroke"
       id="rect211295"
       width="16.185684"
       height="8.2786732"
       x="88.539711"
       y="191.76587" />
    <path
       style="color:#000000;fill:#000000;-inkscape-stroke:none"
       d="m 93.353516,194.87109 c -0.167972,-0.0465 -0.354093,-0.0266 -0.511719,0.0605 -0.242422,0.13404 -0.396495,0.34375 -0.416016,0.57813 -0.01326,0.15915 -0.02462,0.46947 0.189453,0.73437 0.06442,0.0797 0.167714,0.18185 0.277344,0.27539 -0.199014,0.30413 -0.358291,0.51649 -0.708984,1.17188 l 0.234375,0.12304 c 0.354317,-0.66215 0.509881,-0.87106 0.705078,-1.16797 0.09365,0.0521 0.180585,0.12213 0.291015,0.12305 0.552034,0.005 0.846273,-0.12611 1.078125,-0.32031 0.231853,-0.19421 0.403491,-0.42785 0.800782,-0.68164 0.144174,-0.0921 0.452606,-0.12118 0.765625,-0.0664 0.313019,0.0548 0.630481,0.18835 0.798828,0.3418 0.08997,0.082 0.133114,0.24531 0.160156,0.43555 0.02704,0.19024 0.02936,0.39462 0.138672,0.5625 0.03618,0.0555 0.05752,0.0623 0.09766,0.0879 0.04014,0.0256 0.09205,0.0522 0.152344,0.0703 0.12059,0.0362 0.29332,0.0347 0.429687,-0.0879 0.09361,-0.0842 0.154452,-0.20173 0.22461,-0.33985 0.07016,-0.13811 0.142676,-0.29736 0.224609,-0.44531 0.08193,-0.14795 0.173361,-0.28497 0.269531,-0.38086 0.09617,-0.0959 0.189375,-0.14754 0.294922,-0.15234 0.357986,-0.0163 0.506906,0.0456 0.664063,0.15234 0.157157,0.10676 0.323919,0.27711 0.640624,0.4375 0.28611,0.1449 0.59702,0.1581 0.83789,0.13672 0.12043,-0.0107 0.22322,-0.0315 0.29883,-0.0488 0.0756,-0.0173 0.11559,-0.0285 0.13476,-0.0351 l -0.0859,-0.25 c 0.009,-0.003 -0.0413,0.0122 -0.10742,0.0273 -0.0661,0.0151 -0.15803,0.0336 -0.26367,0.043 -0.21128,0.0188 -0.47462,0.004 -0.69531,-0.10742 -0.282409,-0.14303 -0.422181,-0.2934 -0.611327,-0.42188 -0.189146,-0.12848 -0.427036,-0.21536 -0.824218,-0.19726 -0.187349,0.009 -0.34515,0.10333 -0.470704,0.22851 -0.125553,0.12519 -0.224612,0.2827 -0.3125,0.44141 -0.08789,0.1587 -0.163439,0.31921 -0.230468,0.45117 -0.06703,0.13196 -0.133856,0.23651 -0.164063,0.26367 -0.06056,0.0545 -0.113419,0.0506 -0.177734,0.0312 -0.03216,-0.01 -0.06412,-0.0252 -0.08594,-0.0391 -0.02182,-0.0139 -0.04258,-0.0451 -0.01953,-0.01 -0.04437,-0.0681 -0.0689,-0.25276 -0.09766,-0.45507 -0.02876,-0.20232 -0.06888,-0.43401 -0.244141,-0.59375 -0.228855,-0.20861 -0.577875,-0.34469 -0.929687,-0.40625 -0.351812,-0.0616 -0.706783,-0.0551 -0.955078,0.10351 -0.430196,0.27481 -0.630376,0.53553 -0.828125,0.70117 -0.19775,0.16564 -0.392197,0.26216 -0.90625,0.25782 -0.04059,-3.4e-4 -0.105417,-0.047 -0.16211,-0.0742 0.05491,-0.0793 0.164311,-0.28788 0.214844,-0.35547 0.193438,-0.25875 0.277436,-0.58811 0.240234,-0.82422 -0.03146,-0.19967 -0.187497,-0.33243 -0.355468,-0.37891 z m -0.07031,0.25391 c 0.09474,0.0262 0.149374,0.0728 0.164063,0.16602 0.01798,0.11414 -0.04687,0.43427 -0.189454,0.625 -0.05339,0.0714 -0.166507,0.28697 -0.224609,0.37109 -0.07941,-0.072 -0.162655,-0.14924 -0.210937,-0.20899 -0.147496,-0.18251 -0.144518,-0.40633 -0.132813,-0.54687 0.01125,-0.13507 0.09431,-0.26491 0.279297,-0.36719 0.09214,-0.0509 0.219713,-0.0653 0.314453,-0.0391 z"
       id="path205667" />
  </g>
  <g
     id="g192438"
     transform="matrix(1.2250715,0,0,1.2250715,-5.5702032,-161.79222)">
    <path
       id="rect183452"
       style="opacity:1;fill:#b19f96;stroke-width:1.975;stroke-linecap:round;stroke-linejoin:round;paint-order:fill markers stroke"
       d="m 70.252366,202.61702 h 0.561266 l -1.918229,8.01971 h -0.561266 z" />
    <path
       id="path185376"
       style="opacity:1;fill:#b19f96;stroke-width:1.975;stroke-linecap:round;stroke-linejoin:round;paint-order:fill markers stroke"
       d="m 72.040244,202.6253 h -0.561266 l 1.918229,8.01971 h 0.561266 z" />
    <path
       id="rect179732"
       style="opacity:1;fill:#ca8c6b;stroke-width:2.86719;stroke-linecap:round;stroke-linejoin:round;paint-order:fill markers stroke"
       d="m 67.634117,203.86145 h 6.83091 v 2.77813 h -6.83091 z" />
    <path
       id="rect181160"
       style="opacity:1;fill:#a16c50;stroke-width:1.975;stroke-linecap:round;stroke-linejoin:round;paint-order:fill markers stroke"
       d="m 70.848145,204.97903 h 0.666503 v 0.65481 h -0.666503 z" />
    <path
       id="path185480"
       style="opacity:1;fill:#02a17f;stroke-width:1.975;stroke-linecap:round;stroke-linejoin:round;paint-order:fill markers stroke"
       d="m 73.151648,201.50276 a 2.0930545,1.695491 0 0 1 -2.093054,1.69549 2.0930545,1.695491 0 0 1 -2.093055,-1.69549 2.0930545,1.695491 0 0 1 2.093055,-1.69549 2.0930545,1.695491 0 0 1 2.093054,1.69549 z" />
    <path
       id="rect188006"
       style="opacity:1;fill:#008065;stroke-width:1.975;stroke-linecap:round;stroke-linejoin:round;paint-order:fill markers stroke"
       d="m 69.643745,200.59068 h 2.80633 v 0.1754 h -2.80633 z" />
    <path
       id="rect188008"
       style="opacity:1;fill:#008065;stroke-width:1.975;stroke-linecap:round;stroke-linejoin:round;paint-order:fill markers stroke"
       d="m 69.491737,202.16925 h 3.063577 v 0.19878 h -3.063577 z" />
    <path
       id="rect188010"
       style="opacity:1;fill:#008065;stroke-width:1.975;stroke-linecap:round;stroke-linejoin:round;paint-order:fill markers stroke"
       d="m 69.409874,201.40921 h 3.145428 v 0.1754 h -3.145428 z" />
  </g>
  <g
     id="g15818"
     transform="matrix(1.1392393,0,0,1.1883977,2.5619029,18.440173)">
    <g
       id="rect157662"
       transform="translate(-1.9977571,-148.5033)">
      <g
         id="g168554">
        <path
           id="rect155803"
           style="opacity:1;fill:#c88764;fill-opacity:1;stroke:none;stroke-width:3.61267;stroke-linecap:round;stroke-linejoin:round;stroke-miterlimit:4;stroke-dasharray:none;stroke-opacity:1;paint-order:fill markers stroke"
           d="m 159.62891,783.91602 v 3.97851 h 10.30859 l -1.8125,7.85547 2.0625,0.375 2.5625,-8.23047 h 59.375 l 2.5625,8.23047 2.0625,-0.375 -1.8125,-7.85547 h 12.08594 v -3.97851 z"
           transform="matrix(0.26458333,0,0,0.26458333,-0.65481034,3.367596)" />
        <rect
           style="opacity:1;fill:#ffffff;fill-opacity:1;stroke:none;stroke-width:5.30375;stroke-linecap:round;stroke-linejoin:round;stroke-miterlimit:4;stroke-dasharray:none;stroke-opacity:1;paint-order:fill markers stroke"
           id="rect164422"
           width="21.439415"
           height="5.2204862"
           x="42.38121"
           y="200.90984" />
        <path
           id="path161064"
           style="color:#000000;fill:#ffe69c;fill-opacity:1;stroke-width:1.84767;stroke-linecap:round;stroke-linejoin:round;-inkscape-stroke:none;paint-order:fill markers stroke"
           d="m 169.08398,757.59766 c -0.64411,-4.2e-4 -1.16628,0.81058 -1.16601,1.8125 v 6.9375 h 34.09375 v -6.9375 c 2.7e-4,-1.00014 -0.51913,-1.81043 -1.16211,-1.8125 z"
           transform="matrix(0.26458333,0,0,0.26458333,-0.65481034,3.367596)" />
        <path
           id="path164188"
           style="color:#000000;fill:#ffe69c;fill-opacity:1;stroke-width:1.84767;stroke-linecap:round;stroke-linejoin:round;-inkscape-stroke:none;paint-order:fill markers stroke"
           d="m 205.17773,757.59766 c -0.64411,-4.2e-4 -1.16628,0.81058 -1.16601,1.8125 v 6.9375 h 34.09375 v -6.9375 c 2.7e-4,-1.00014 -0.51913,-1.81043 -1.16211,-1.8125 z"
           transform="matrix(0.26458333,0,0,0.26458333,-0.65481034,3.367596)" />
        <path
           style="color:#000000;fill:#fece3a;stroke-width:1.00216;stroke-linecap:round;stroke-linejoin:round;-inkscape-stroke:none;paint-order:fill markers stroke"
           d="m 42.381208,206.13033 c -0.436659,-1.8e-4 -0.790686,0.35233 -0.790503,0.78711 v 3.07422 c -1.83e-4,0.43478 0.353844,0.78729 0.790503,0.78711 h 21.533847 c 0.435892,-9e-4 0.788726,-0.35309 0.788541,-0.78711 v -3.07422 c 1.85e-4,-0.43402 -0.352649,-0.78621 -0.788541,-0.78711 z"
           id="path160498" />
      </g>
    </g>
    <path
       id="rect168602"
       style="fill:#c88764;stroke-width:1.975;stroke-linecap:round;stroke-linejoin:round;paint-order:fill markers stroke"
       d="m 44.001838,57.549396 c 0.207074,-0.0489 0.40098,-0.0567 0.619641,-0.25716 0.02348,-0.32764 0.04704,-0.6553 0.329221,-1.01338 0.355121,-0.28133 0.963606,-0.31904 1.723488,-0.21117 0.411619,0.21863 0.418205,0.36975 0.576812,0.54621 0.119856,0.14208 0.346334,0.1657 0.605574,0.15292 0.105591,-0.0176 0.232482,0.0671 0.264611,-0.30309 l 0.240109,-0.44145 0.154515,0.40791 0.343393,-0.0116 0.493205,-0.34393 -0.108163,0.46615 c 0.06549,0.2786 0.117135,0.55443 -0.0469,0.78713 l 0.254284,0.52759 -5.571734,0.006 c -0.002,0.5735 1.446498,0.29463 2.075772,0.44289 0.354793,0.15529 0.459227,0.40744 0.355094,0.75941 -0.111351,0.17102 -0.144362,0.16814 -0.40585,0.21529 -0.29671,0.0372 -0.155041,-0.10788 -0.07449,-0.13659 0.110045,-0.0305 0.276615,-0.0221 0.332221,-0.10817 0.047,-0.29626 -0.06772,-0.43081 -0.284999,-0.4628 -0.716873,-0.0661 -1.48734,0.0805 -2.079649,-0.27627 l -0.241919,-0.29759 c -0.114078,-0.37129 0.133474,-0.52145 0.445765,-0.44814 z" />
  </g>
  <path
     id="rect194007"
     style="fill:#ffffff;fill-opacity:1;stroke:none;stroke-width:2.34026;stroke-linecap:round;stroke-linejoin:round;stroke-miterlimit:4;stroke-dasharray:none;stroke-opacity:1;paint-order:fill markers stroke"
     d="m 154.28793,75.912893 v 5.09893 h 2.70897 l -1.80824,15.32247 h 0.88667 l 1.80824,-15.32247 h 0.36004 l 1.80823,15.32247 h 0.88666 l -1.80822,-15.32247 h 3.24965 v -5.09893 z" />
  <g
     id="g22235"
     transform="matrix(1.16725,0,0,1.16725,-20.558098,-174.68691)">
    <path
       id="path195865"
       style="color:#000000;fill:#0070b5;fill-opacity:1;stroke:none;stroke-width:0.957059;stroke-linecap:round;stroke-linejoin:round;-inkscape-stroke:none;paint-order:fill markers stroke"
       d="m 150.11354,221.12456 c -0.35623,-1.5e-4 -0.64528,0.90157 -0.64595,1.29323 v 1.94115 h -7.93182 c -0.4748,-4.8e-4 -0.8598,0.35227 -0.85938,0.78716 v 4.44226 c -5.3e-4,0.4349 0.38459,0.78754 0.85938,0.78716 h 11.15849 c 0.4748,4.8e-4 0.8598,-0.35226 0.85938,-0.78716 v -4.44226 -2.93627 c -0.28489,0.0253 -0.56339,0.0101 -0.87798,0.22578 l -0.42892,0.80721 v -0.82503 c -7.9e-4,-0.39166 -0.28972,-1.29338 -0.64595,-1.29323 z" />
    <rect
       style="fill:#f1695e;fill-opacity:1;stroke:none;stroke-width:1.975;stroke-linecap:round;stroke-linejoin:round;stroke-miterlimit:4;stroke-dasharray:none;stroke-opacity:1;paint-order:fill markers stroke"
       id="rect199939"
       width="4.0925646"
       height="1.2628485"
       x="147.53072"
       y="223.11288" />
    <path
       id="rect202852"
       style="fill:#c2cfd8;fill-opacity:1;stroke-width:1.975;stroke-linecap:round;stroke-linejoin:round;paint-order:fill markers stroke"
       d="m 142.73202,230.3537 h 0.51449 l -0.53743,1.8341 h -0.51449 z" />
    <path
       id="path205626"
       style="fill:#c2cfd8;fill-opacity:1;stroke-width:1.975;stroke-linecap:round;stroke-linejoin:round;paint-order:fill markers stroke"
       d="m 152.47591,230.3537 h -0.51449 l 0.53743,1.8341 h 0.51449 z" />
  </g>
  <path
     id="path23721"
     style="fill:#ffffff;fill-opacity:1;stroke-width:0.3329;stroke-linecap:round"
     d="m 54.555127,66.575293 v 5.17082 h 0.643071 4.18036 v -0.47243 h -4.18036 v -4.22595 h 4.18036 v 4.22595 0.47243 h 0.64307 v -5.17082 h -0.64307 -4.18036 z"
     sodipodi:nodetypes="ccccccccccccccc" />
  <path
     id="rect22259"
     style="fill:#ffffff;fill-opacity:1;stroke-width:0.499999;stroke-linecap:round"
     d="m 61.592424,68.78689 v 9.060944 h 0.827857 5.381583 v -0.827855 h -5.381583 v -7.405232 h 5.381583 v 7.405232 0.827855 h 0.827857 V 68.78689 h -0.827857 -5.381583 z"
     sodipodi:nodetypes="ccccccccccccccc" />
  <path
     id="path23723"
     style="fill:#ffffff;fill-opacity:1;stroke-width:0.419915;stroke-linecap:round"
     d="m 53.472868,72.870073 v 5.98231 h 0.884392 5.749087 v -0.54658 H 54.35726 v -4.88915 h 5.749087 v 4.88915 0.54658 h 0.884391 v -5.98231 H 60.106347 54.35726 Z"
     sodipodi:nodetypes="ccccccccccccccc" />
  <path
     id="rect173795"
     style="fill:#cce2f0;stroke-width:2.57473;stroke-linecap:round;stroke-linejoin:round;paint-order:fill markers stroke"
     d="m 3.0216146,34.768796 c 1.1287681,-4.33356 2.3640653,-8.58863 4.3196434,-12.31297 l -0.0058,49.96921 0.8185136,-0.58466 0.844587,0.0348 -1.6631006,1.99984 -0.025042,12.14451 -3.910635,-0.10779 -0.3755933,-2.76592 z" />
  <path
     id="rect175812"
     style="fill:#cce2f0;stroke-width:4.26553;stroke-linecap:round;stroke-linejoin:round;paint-order:fill markers stroke"
     d="m 10.455037,17.144546 c 1.355887,-1.85973 2.759851,-3.68581 4.424029,-5.32974 l 0.0079,32.87433 2.221678,-1.44994 1.453199,0.0889 -3.674877,3.06821 v 40.25528 l -4.443354,-0.5457 v -21.89004 l -2.3151044,-2.29857 0.826823,-0.33531 1.4882814,0.64951 v -27.54974 l -2.3124894,-2.57202 0.956499,-0.25572 1.3559904,0.74414 z" />
  <path
     id="rect178256"
     style="fill:#cce2f0;stroke-width:2.14175;stroke-linecap:round;stroke-linejoin:round;paint-order:fill markers stroke"
     d="m 194.94989,33.044646 c 3.31032,4.53499 4.80795,9.73781 6.50441,14.86738 l -0.0488,46.11241 -8.21211,-2.1227 v -20.54213 l -1.12364,-4.7358 -5.84015,-5.83326 0.68724,-1.78275 7.99634,4.5466 z" />
  <rect
     style="fill:none;fill-opacity:1;stroke:none;stroke-width:0.499999;stroke-linecap:round;stroke-linejoin:miter;stroke-miterlimit:4;stroke-dasharray:none;stroke-opacity:1;paint-order:normal"
     id="rect215619"
     width="14.868862"
     height="6.6652293"
     x="83.317886"
     y="57.252968" />
  <path
     id="rect218775"
     style="fill:#e5f1f8;fill-opacity:1;stroke-width:0.499999;stroke-linecap:round"
     d="m 3.3997763,85.911736 3.910635,0.10779 3.1332287,0.0864 4.443354,0.5457 c 11.500324,3.66938 13.191053,9.48461 17.187,14.795574 H 6.3829837 Z" />
  <path
     id="rect226367"
     style="fill:#e5f1f8;stroke-width:0.499999;stroke-linecap:round"
     d="m 193.19342,91.901726 8.2121,2.12271 0.5049,0.13051 -1.15373,7.292204 -28.12279,1e-5 c 1.33863,-4.277424 6.8858,-11.085544 20.55952,-9.545434 z" />
  <path
     id="rect1082"
     style="fill:#797a7c;fill-opacity:1;stroke-width:3.17042;stroke-linecap:round"
     d="M 172.03478,42.322871 32.678427,52.165164 v 5.29e-4 1.038178 3.498495 l 0.99994,-0.07028 v -5.3e-4 L 169.45095,47.041963 V 59.847384 H 35.934561 l 5.29e-4,-3.39633 -1.00149,0.0708 0.0011,3.325532 h -1.256255 l -1.1e-5,1.000455 H 170.9801 V 99.071862 H 33.678367 V 59.847384 h -0.99994 V 100.07232 H 33.678367 170.98006 171.98 V 59.847384 h -0.99994 -0.52917 V 46.971166 l 1.58389,-0.11162 v -1.03818 l -6e-5,-2.46022 -0.99993,0.07062 5e-5,2.460392 -137.356473,9.700699 v -2.459796 l 137.356423,-9.701295 0.99999,-0.07072 z"
     sodipodi:nodetypes="cccccccccccccccccccccccccccccccccccccc" />
  <rect
     style="fill:#797a7c;fill-opacity:1;stroke-width:2.86939;stroke-linecap:round"
     id="rect3220"
     width="0.99993998"
     height="32.948818"
     x="102.10804"
     y="63.619373" />
</svg>
