<?xml version="1.0" encoding="UTF-8" standalone="no"?>
<!-- Created with Inkscape (http://www.inkscape.org/) -->

<svg
   width="774"
   height="384"
   viewBox="0 0 204.7875 101.6"
   version="1.1"
   id="svg5"
   xmlns:xlink="http://www.w3.org/1999/xlink"
   xmlns="http://www.w3.org/2000/svg"
   xmlns:svg="http://www.w3.org/2000/svg">
  <defs
     id="defs2">
    <linearGradient
       id="linearGradient1692">
      <stop
         style="stop-color:#bababa;stop-opacity:1;"
         offset="0"
         id="stop1690" />
    </linearGradient>
    <clipPath
       clipPathUnits="userSpaceOnUse"
       id="clipPath97839">
      <use
         x="0"
         y="0"
         xlink:href="#g97835"
         id="use97841"
         width="100%"
         height="100%" />
    </clipPath>
  </defs>
  <g
     id="layer1">
    <g
       id="rect195720" />
    <g
       id="rect7396"
       transform="translate(-2.6525674,-145.1357)">
      <path
         style="color:#000000;opacity:1;fill:#d9eaf4;fill-opacity:1;stroke:none;stroke-opacity:1;-inkscape-stroke:none"
         d="m 44.504398,145.40166 c 20.653538,-1.44213 35.982368,11.34687 70.936012,13.00056 21.79309,1.03106 56.16452,-1.70135 72.0693,9.38098 4.16048,2.92858 7.47375,6.45945 10.09274,10.39715 3.0053,4.51853 5.09641,9.57277 6.50441,14.86738 4.23266,15.91641 2.29208,34.00509 0.45612,46.24292 -0.41387,2.75868 -0.82242,5.22005 -1.15374,7.29221 H 175.28646 34.726562 9.0355512 C 7.942752,241.35495 6.7073851,235.09358 5.6767551,228.28152 3.3813417,213.10973 2.1015042,195.20625 5.674182,179.9045 c 1.0170926,-4.3562 2.4274643,-8.50154 4.3196434,-12.31297 0.9205016,-1.85417 1.9550326,-3.62932 3.1137786,-5.31128 1.310801,-1.90267 2.78056,-3.68609 4.42403,-5.32974 6.228343,-6.22903 14.951577,-10.45074 26.972764,-11.54885 z"
         id="path14953" />
      <path
         id="rect43716"
         style="opacity:1;fill:#e5f1f8;fill-opacity:1;stroke-width:0"
         d="m 50.326853,183.60796 c 10.124794,0.0696 10.133013,3.77891 15.373726,5.61728 4.004485,1.40473 7.127291,-0.0533 10.819914,2.65787 3.476127,5.02717 4.15957,9.41579 3.37794,18.67253 l -41.642899,0.0811 C 37.335353,200.92213 37.642706,186.27279 50.326853,183.608 Z" />
      <path
         id="rect43716-0"
         style="opacity:1;fill:#e5f1f8;fill-opacity:1;stroke-width:0"
         d="m 160.07108,183.64826 c -9.92636,0.0696 -10.12475,3.69783 -15.36546,5.5362 -4.00449,1.40473 -6.76584,0.36765 -10.22461,2.89173 -5.85737,5.88707 -4.42828,13.23947 -3.97738,18.56053 h 41.63877 c -0.2043,-9.91303 -0.97467,-25.64655 -12.07132,-26.98842 z" />
      <path
         id="rect43716-0-4"
         style="opacity:1;fill:#e5f1f8;fill-opacity:1;stroke-width:0"
         d="m 113.36058,183.61254 c -6.018,0.47223 -5.61532,4.82519 -10.85602,6.66356 -4.004489,1.40473 -6.402558,0.2688 -12.510956,4.26838 -4.56896,4.03498 -5.541271,10.50372 -6.200465,16.09224 h 41.640831 c 0.92018,-9.71459 -0.35555,-28.14405 -12.07339,-27.02414 z" />
      <path
         id="rect43716-0-4-5"
         style="opacity:1;fill:#e5f1f8;fill-opacity:1;stroke-width:0"
         d="m 62.637694,218.17759 c -17.883754,4.4905 -22.478012,18.35477 -23.832738,24.28493 l 131.238554,-0.35828 c -0.99856,-17.84155 -11.83544,-25.55937 -29.87895,-26.17865 -15.43161,-0.76708 -20.17359,9.8895 -41.085043,10.28873 -15.12164,0.28869 -20.464036,-8.32501 -36.441823,-8.03673 z" />
    </g>
    <g
       id="g100694"
       transform="translate(-2.6525674,-145.1357)">
      <rect
         style="opacity:1;fill:#797a7c;fill-opacity:1;stroke:#797a7c;stroke-width:0;stroke-linecap:round;stroke-linejoin:miter;stroke-miterlimit:4;stroke-dasharray:none;stroke-opacity:1;paint-order:fill markers stroke"
         id="rect100587"
         width="7.7059894"
         height="0.59999901"
         x="86.055725"
         y="215.70155" />
      <rect
         style="opacity:1;fill:#797a7c;fill-opacity:1;stroke:#797a7c;stroke-width:0;stroke-linecap:round;stroke-linejoin:miter;stroke-miterlimit:4;stroke-dasharray:none;stroke-opacity:1;paint-order:fill markers stroke"
         id="rect100669"
         width="7.7059894"
         height="0.59999901"
         x="83.87291"
         y="218.90962" />
      <rect
         style="opacity:1;fill:#797a7c;fill-opacity:1;stroke:#797a7c;stroke-width:0;stroke-linecap:round;stroke-linejoin:miter;stroke-miterlimit:4;stroke-dasharray:none;stroke-opacity:1;paint-order:fill markers stroke"
         id="rect100671"
         width="7.7059894"
         height="0.59999901"
         x="81.194"
         y="221.95233" />
      <rect
         style="opacity:1;fill:#797a7c;fill-opacity:1;stroke:#797a7c;stroke-width:0;stroke-linecap:round;stroke-linejoin:miter;stroke-miterlimit:4;stroke-dasharray:none;stroke-opacity:1;paint-order:fill markers stroke"
         id="rect100673"
         width="7.7059894"
         height="0.59999901"
         x="78.482018"
         y="225.06119" />
      <rect
         style="opacity:1;fill:#797a7c;fill-opacity:1;stroke:#797a7c;stroke-width:0;stroke-linecap:round;stroke-linejoin:miter;stroke-miterlimit:4;stroke-dasharray:none;stroke-opacity:1;paint-order:fill markers stroke"
         id="rect100675"
         width="7.7059894"
         height="0.59999901"
         x="75.670822"
         y="228.20311" />
      <rect
         style="opacity:1;fill:#797a7c;fill-opacity:1;stroke:#797a7c;stroke-width:0;stroke-linecap:round;stroke-linejoin:miter;stroke-miterlimit:4;stroke-dasharray:none;stroke-opacity:1;paint-order:fill markers stroke"
         id="rect100677"
         width="7.7059894"
         height="0.59999901"
         x="73.124207"
         y="231.34503" />
      <rect
         style="opacity:1;fill:#797a7c;fill-opacity:1;stroke:#797a7c;stroke-width:0;stroke-linecap:round;stroke-linejoin:miter;stroke-miterlimit:4;stroke-dasharray:none;stroke-opacity:1;paint-order:fill markers stroke"
         id="rect100679"
         width="7.7059894"
         height="0.59999901"
         x="70.364647"
         y="234.40862" />
      <rect
         style="opacity:1;fill:#797a7c;fill-opacity:1;stroke:#797a7c;stroke-width:0;stroke-linecap:round;stroke-linejoin:miter;stroke-miterlimit:4;stroke-dasharray:none;stroke-opacity:1;paint-order:fill markers stroke"
         id="rect100681"
         width="7.7059894"
         height="0.59999901"
         x="68.297592"
         y="237.53401" />
      <rect
         style="opacity:1;fill:#797a7c;fill-opacity:1;stroke:#797a7c;stroke-width:0;stroke-linecap:round;stroke-linejoin:miter;stroke-miterlimit:4;stroke-dasharray:none;stroke-opacity:1;paint-order:fill markers stroke"
         id="rect100683"
         width="7.7059894"
         height="0.59999901"
         x="65.187241"
         y="241.01854" />
    </g>
    <g
       id="g97837"
       clip-path="url(#clipPath97839)"
       transform="translate(-2.6525674,-145.1357)">
      <g
         id="g97835">
        <g
           id="g98916">
          <path
             id="rect95157"
             style="opacity:1;fill:#797a7c;stroke:#797a7c;stroke-width:0;stroke-linecap:round;paint-order:fill markers stroke"
             d="m 81.541275,184.08385 h 0.999998 v 26.55287 h -0.999998 z" />
          <path
             id="rect95157-2"
             style="fill:#797a7c;stroke:#797a7c;stroke-width:0;stroke-linecap:round;paint-order:fill markers stroke"
             d="m 127.5811,184.08385 h 1 v 26.55287 h -1 z" />
        </g>
      </g>
    </g>
    <g
       id="g114302"
       transform="translate(-2.6525674,-145.1357)">
      <g
         id="g114503">
        <g
           id="g114666">
          <path
             id="rect100718"
             style="opacity:1;fill:#ca8c6b;stroke:#797a7c;stroke-width:0;stroke-linecap:round;paint-order:fill markers stroke"
             d="m 131.14915,230.02551 h 12.62849 v 4.11156 h -12.62849 z" />
          <path
             id="rect100822"
             style="opacity:1;fill:#a77257;fill-opacity:1;stroke:#797a7c;stroke-width:0;stroke-linecap:round;stroke-linejoin:miter;stroke-miterlimit:4;stroke-dasharray:none;stroke-opacity:1;paint-order:fill markers stroke"
             d="m 543.41211,869.38867 v 15.53906 h -47.73047 v 2.22657 h 47.73047 v 29.24023 h 2.5625 v -47.00586 z"
             transform="scale(0.26458333)" />
          <path
             id="path104502"
             style="opacity:1;fill:#a77257;fill-opacity:1;stroke:#797a7c;stroke-width:0;stroke-linecap:round;stroke-linejoin:miter;stroke-miterlimit:4;stroke-dasharray:none;stroke-opacity:1;paint-order:fill markers stroke"
             d="m 158.22689,230.02556 v 4.11137 h 12.62869 v 0.58911 h -12.62869 v 7.73648 h -0.67799 v -12.43696 z" />
          <path
             id="rect105714"
             style="opacity:1;fill:#ca8c6b;stroke:#797a7c;stroke-width:0;stroke-linecap:round;paint-order:fill markers stroke"
             d="m 158.2271,230.02538 h 12.62848 v 4.11155 H 158.2271 Z" />
          <path
             id="rect105716"
             style="opacity:1;fill:#ca8c6b;stroke:#797a7c;stroke-width:0;stroke-linecap:round;paint-order:fill markers stroke"
             d="m 158.22688,234.72604 h 12.62849 v 7.73648 h -12.62849 z" />
          <rect
             style="opacity:1;fill:#ca8c6b;fill-opacity:1;stroke:#797a7c;stroke-width:0;stroke-linecap:round;stroke-linejoin:miter;stroke-miterlimit:4;stroke-dasharray:none;stroke-opacity:1;paint-order:fill markers stroke"
             id="rect105718"
             width="12.628487"
             height="7.7364774"
             x="131.14909"
             y="234.72624" />
          <rect
             style="opacity:1;fill:#ca8c6b;fill-opacity:1;stroke:#797a7c;stroke-width:0;stroke-linecap:round;stroke-linejoin:miter;stroke-miterlimit:4;stroke-dasharray:none;stroke-opacity:1;paint-order:fill markers stroke"
             id="rect105720"
             width="13.09312"
             height="12.436763"
             x="144.45578"
             y="230.02576" />
          <path
             id="rect105763"
             style="opacity:1;fill:#aeb1b4;stroke:#797a7c;stroke-width:0;stroke-linecap:round;paint-order:fill markers stroke"
             d="m 145.77087,228.94998 h 10.9231 v 1.07576 h -10.9231 z" />
          <path
             id="rect107451"
             style="opacity:1;fill:#4e5b83;stroke:#797a7c;stroke-width:0;stroke-linecap:round;paint-order:fill markers stroke"
             d="m 565.50391,848.99414 c -1.43713,0.14204 -3.10574,0.84791 -4.06446,2.20703 -0.31011,0.44485 -0.93128,1.64053 -1.01367,2.9961 v 1.90625 h 2.6875 v -1.90625 c -0.0215,-1.21883 1.06072,-2.41963 2.39063,-2.51563 h 1.90625 0.5625 c 1.3299,0.096 2.41216,1.2968 2.39062,2.51563 v 11.125 h 2.6875 v -11.125 c -0.0824,-1.35557 -0.70161,-2.55125 -1.01172,-2.9961 -0.95871,-1.35912 -2.62928,-2.06499 -4.0664,-2.20703 h -0.5625 z"
             transform="scale(0.26458333)" />
        </g>
      </g>
    </g>
    <g
       id="rect115006"
       transform="translate(-2.6525674,-145.1357)">
      <path
         id="rect119741"
         style="opacity:1;fill:#cbcdcf;fill-opacity:1;stroke:none;stroke-width:0.3;stroke-linecap:round;stroke-linejoin:round;paint-order:fill markers stroke"
         d="m 41.611593,218.9427 h 10.649479 v 23.51982 H 41.611593 Z" />
      <path
         style="color:#000000;fill:#595c62;stroke-linecap:round;stroke-linejoin:round;-inkscape-stroke:none;paint-order:fill markers stroke"
         d="m 42.859375,228.76172 c -0.07177,-6.4e-4 -0.130418,0.0571 -0.130859,0.1289 v 2.48633 c 4.36e-4,0.0718 0.05908,0.12955 0.130859,0.12891 h 1.369141 c 0.07101,-4.4e-4 0.128473,-0.0579 0.128906,-0.12891 v -1.07422 h 0.761719 c 0.07177,6.4e-4 0.130418,-0.0571 0.130859,-0.1289 v -0.44727 c 6.5e-4,-0.0725 -0.05832,-0.13151 -0.130859,-0.13086 h -0.761719 v -0.70508 c -4.38e-4,-0.071 -0.0579,-0.12847 -0.128906,-0.1289 z"
         id="path119430" />
    </g>
    <g
       id="g134515"
       transform="translate(-2.6525674,-145.1357)">
      <rect
         style="opacity:1;fill:#ca8c6b;fill-opacity:1;stroke:none;stroke-width:0.404069;stroke-linecap:round;stroke-linejoin:round;stroke-miterlimit:4;stroke-dasharray:none;stroke-opacity:1;paint-order:fill markers stroke"
         id="rect125055"
         width="22.824818"
         height="3.6014569"
         x="144.38568"
         y="204.86209" />
      <g
         id="rect126351">
        <path
           style="color:#000000;fill:#0070b4;stroke-width:0.555253;stroke-linecap:round;stroke-linejoin:round;-inkscape-stroke:none;paint-order:fill markers stroke"
           d="m 145.15077,201.69128 h 21.45734 v 2.89318 h -21.45734 z"
           id="path129088" />
        <path
           style="color:#000000;fill:#0070b4;stroke-linecap:round;stroke-linejoin:round;-inkscape-stroke:none;paint-order:fill markers stroke"
           d="m 145.15039,201.41406 a 0.27765428,0.27765428 0 0 0 -0.27734,0.27735 v 2.89257 a 0.27765428,0.27765428 0 0 0 0.27734,0.27735 h 21.45703 a 0.27765428,0.27765428 0 0 0 0.27735,-0.27735 v -2.89257 a 0.27765428,0.27765428 0 0 0 -0.27735,-0.27735 z m 0.27734,0.55469 h 20.90235 v 2.33789 h -20.90235 z"
           id="path129090" />
      </g>
      <rect
         style="opacity:1;fill:#ffffff;fill-opacity:1;stroke:none;stroke-width:0.62617;stroke-linecap:round;stroke-linejoin:round;stroke-miterlimit:4;stroke-dasharray:none;stroke-opacity:1;paint-order:fill markers stroke"
         id="rect130527"
         width="19.083044"
         height="5.6725407"
         x="146.39688"
         y="195.74152" />
      <g
         id="rect129196"
         style="fill:#80b8da;fill-opacity:1">
        <path
           style="color:#000000;fill:#80b8da;fill-opacity:1;stroke-width:0.620001;stroke-linecap:round;stroke-linejoin:round;-inkscape-stroke:none;paint-order:fill markers stroke"
           d="m 148.0573,199.51381 h 7.31984 v 1.59025 h -7.31984 z"
           id="path129379" />
        <path
           style="color:#000000;fill:#80b8da;fill-opacity:1;stroke-linecap:round;stroke-linejoin:round;-inkscape-stroke:none;paint-order:fill markers stroke"
           d="m 148.05664,199.20312 a 0.31003151,0.31003151 0 0 0 -0.30859,0.31055 v 1.58985 a 0.31003151,0.31003151 0 0 0 0.30859,0.31054 h 7.32031 a 0.31003151,0.31003151 0 0 0 0.31055,-0.31054 v -1.58985 a 0.31003151,0.31003151 0 0 0 -0.31055,-0.31055 z m 0.31055,0.6211 h 6.69922 v 0.9707 h -6.69922 z"
           id="path129381" />
      </g>
      <g
         id="g130503"
         style="fill:#80b8da;fill-opacity:1"
         transform="translate(8.4189901)">
        <path
           style="color:#000000;fill:#80b8da;fill-opacity:1;stroke-width:0.620001;stroke-linecap:round;stroke-linejoin:round;-inkscape-stroke:none;paint-order:fill markers stroke"
           d="m 148.0573,199.51381 h 7.31984 v 1.59025 h -7.31984 z"
           id="path130499" />
        <path
           style="color:#000000;fill:#80b8da;fill-opacity:1;stroke-linecap:round;stroke-linejoin:round;-inkscape-stroke:none;paint-order:fill markers stroke"
           d="m 148.05664,199.20312 a 0.31003151,0.31003151 0 0 0 -0.30859,0.31055 v 1.58985 a 0.31003151,0.31003151 0 0 0 0.30859,0.31054 h 7.32031 a 0.31003151,0.31003151 0 0 0 0.31055,-0.31054 v -1.58985 a 0.31003151,0.31003151 0 0 0 -0.31055,-0.31055 z m 0.31055,0.6211 h 6.69922 v 0.9707 h -6.69922 z"
           id="path130501" />
      </g>
      <rect
         style="opacity:1;fill:#c6ccd1;fill-opacity:1;stroke:none;stroke-width:0.621659;stroke-linecap:round;stroke-linejoin:round;stroke-miterlimit:4;stroke-dasharray:none;stroke-opacity:1;paint-order:fill markers stroke"
         id="rect131150"
         width="0.56223959"
         height="2.1731622"
         x="146.33112"
         y="208.46355" />
      <rect
         style="opacity:1;fill:#c6ccd1;fill-opacity:1;stroke:none;stroke-width:0.621659;stroke-linecap:round;stroke-linejoin:round;stroke-miterlimit:4;stroke-dasharray:none;stroke-opacity:1;paint-order:fill markers stroke"
         id="rect134471"
         width="0.56223959"
         height="2.1731622"
         x="164.86453"
         y="208.46355" />
    </g>
    <g
       id="g150094"
       transform="translate(-2.6525674,-145.1357)">
      <rect
         style="opacity:1;fill:#d2dbe2;fill-opacity:1;stroke:none;stroke-width:0.812605;stroke-linecap:round;stroke-linejoin:round;stroke-miterlimit:4;stroke-dasharray:none;stroke-opacity:1;paint-order:fill markers stroke"
         id="rect144436"
         width="0.49609375"
         height="7.5277057"
         x="103.80543"
         y="213.34976" />
      <path
         id="rect146492"
         style="opacity:1;fill:#ffcf3b;stroke-width:0.804222;stroke-linecap:round;stroke-linejoin:round;paint-order:fill markers stroke"
         d="m 103.0103,220.87747 h 2.29723 l 2.0346,2.88058 h -6.2261 z" />
      <path
         style="opacity:1;fill:#0fb38e;fill-opacity:1;stroke:none;stroke-width:0.620001;stroke-linecap:round;stroke-linejoin:round;stroke-miterlimit:4;stroke-dasharray:none;stroke-opacity:1;paint-order:fill markers stroke"
         id="path147940"
         d="m 105.12563,223.75806 a 0.97636664,0.94128984 0 0 1 -0.48819,0.81518 0.97636664,0.94128984 0 0 1 -0.97636,0 0.97636664,0.94128984 0 0 1 -0.48819,-0.81518" />
    </g>
    <g
       id="g144402"
       transform="translate(-2.6525674,-145.45319)">
      <path
         id="rect141076"
         style="opacity:1;fill:#d3aa94;stroke-width:0.620001;stroke-linecap:round;stroke-linejoin:round;paint-order:fill markers stroke"
         d="m 116.14746,236.63504 0.58967,0.0558 -1.91203,4.99447 c -0.17862,0.0614 -0.3165,0.22657 -0.60827,0 z" />
      <path
         id="path144098"
         style="opacity:1;fill:#d3aa94;stroke-width:0.620001;stroke-linecap:round;stroke-linejoin:round;paint-order:fill markers stroke"
         d="m 120.27884,236.37779 -0.58967,0.0558 1.91203,4.99447 c 0.17862,0.0614 0.3165,0.22657 0.60827,0 z" />
      <path
         id="rect144122"
         style="opacity:1;fill:#d3aa94;stroke-width:0.715434;stroke-linecap:round;stroke-linejoin:round;paint-order:fill markers stroke"
         d="m 118.07031,236.63672 h 0.62012 v 6.14329 c -0.17805,0.20062 -0.37617,0.26073 -0.62012,0 z" />
      <path
         id="rect134539"
         style="opacity:1;fill:#f9bbbc;fill-opacity:1;stroke-width:0.620001;stroke-linecap:round;stroke-linejoin:round;paint-order:fill markers stroke"
         d="m 118.89714,230.05521 c 0.99995,-0.45066 2.4156,-0.31371 2.57968,0.0661 0.34633,0.35396 0.19231,3.62554 -0.009,5.02076 -0.31502,1.96357 -3.48596,1.61902 -5.33276,1.55911 -1.20032,0.006 -2.29032,-0.27956 -1.77404,-1.10651 0.2255,-0.36125 0.65817,-0.59491 1.10201,-0.72514 0.49546,-0.14537 1.25805,-0.11966 1.7572,-0.79762 0.47863,-0.65009 1.02704,-4.00807 1.67711,-4.0167 z" />
    </g>
    <g
       id="g144412"
       transform="matrix(-1,0,0,1,205.70266,-145.45319)">
      <path
         id="path144404"
         style="opacity:1;fill:#d3aa94;stroke-width:0.620001;stroke-linecap:round;stroke-linejoin:round;paint-order:fill markers stroke"
         d="m 116.14746,236.63504 0.58967,0.0558 -1.91203,4.99447 c -0.17862,0.0614 -0.3165,0.22657 -0.60827,0 z" />
      <path
         id="path144406"
         style="opacity:1;fill:#d3aa94;stroke-width:0.620001;stroke-linecap:round;stroke-linejoin:round;paint-order:fill markers stroke"
         d="m 120.27884,236.37779 -0.58967,0.0558 1.91203,4.99447 c 0.17862,0.0614 0.3165,0.22657 0.60827,0 z" />
      <path
         id="path144408"
         style="opacity:1;fill:#d3aa94;stroke-width:0.715434;stroke-linecap:round;stroke-linejoin:round;paint-order:fill markers stroke"
         d="m 118.07031,236.63672 h 0.62012 v 6.14329 c -0.17805,0.20062 -0.37617,0.26073 -0.62012,0 z" />
      <path
         id="path144410"
         style="opacity:1;fill:#f9bbbc;fill-opacity:1;stroke-width:0.620001;stroke-linecap:round;stroke-linejoin:round;paint-order:fill markers stroke"
         d="m 118.89714,230.05521 c 0.99995,-0.45066 2.4156,-0.31371 2.57968,0.0661 0.34633,0.35396 0.19231,3.62554 -0.009,5.02076 -0.31502,1.96357 -3.48596,1.61902 -5.33276,1.55911 -1.20032,0.006 -2.29032,-0.27956 -1.77404,-1.10651 0.2255,-0.36125 0.65817,-0.59491 1.10201,-0.72514 0.49546,-0.14537 1.25805,-0.11966 1.7572,-0.79762 0.47863,-0.65009 1.02704,-4.00807 1.67711,-4.0167 z" />
    </g>
    <g
       id="g155779"
       transform="translate(-2.6525674,-145.1357)">
      <path
         id="path152525"
         style="opacity:1;fill:#91969a;fill-opacity:1;stroke:none;stroke-width:2.93148;stroke-linecap:round;stroke-linejoin:round;stroke-miterlimit:4;stroke-dasharray:none;stroke-opacity:1;paint-order:fill markers stroke"
         d="m 350.875,875.07422 v 2.13672 c 13.37301,1.95171 26.77294,2.98236 40.20117,3.08984 v 31.34961 a 16.937499,2.0540642 0 0 0 -14.57617,2.0332 16.937499,2.0540642 0 0 0 16.9375,2.05469 16.937499,2.0540642 0 0 0 16.9375,-2.05469 16.937499,2.0540642 0 0 0 -14.54883,-2.0332 v -31.34961 c 13.3632,-0.11046 26.75448,-1.13587 40.17383,-3.08984 v -2.13672 c -28.89256,4.10509 -57.23695,3.86237 -85.125,0 z"
         transform="scale(0.26458333)" />
      <ellipse
         style="opacity:1;fill:#caccce;fill-opacity:1;stroke:none;stroke-width:0.523761;stroke-linecap:round;stroke-linejoin:round;stroke-miterlimit:4;stroke-dasharray:none;stroke-opacity:1;paint-order:fill markers stroke"
         id="path150118"
         cx="104.09701"
         cy="231.53003"
         rx="11.261328"
         ry="0.79067588" />
    </g>
    <g
       id="rect157662"
       transform="translate(-1.9977571,-148.5033)">
      <g
         id="g168554">
        <path
           id="rect155803"
           style="opacity:1;fill:#c88764;fill-opacity:1;stroke:none;stroke-width:3.61267;stroke-linecap:round;stroke-linejoin:round;stroke-miterlimit:4;stroke-dasharray:none;stroke-opacity:1;paint-order:fill markers stroke"
           d="m 159.62891,783.91602 v 3.97851 h 10.30859 l -1.8125,7.85547 2.0625,0.375 2.5625,-8.23047 h 59.375 l 2.5625,8.23047 2.0625,-0.375 -1.8125,-7.85547 h 12.08594 v -3.97851 z"
           transform="matrix(0.26458333,0,0,0.26458333,-0.65481034,3.367596)" />
        <rect
           style="opacity:1;fill:#ffffff;fill-opacity:1;stroke:none;stroke-width:5.30375;stroke-linecap:round;stroke-linejoin:round;stroke-miterlimit:4;stroke-dasharray:none;stroke-opacity:1;paint-order:fill markers stroke"
           id="rect164422"
           width="21.439415"
           height="5.2204862"
           x="42.38121"
           y="200.90984" />
        <path
           id="path161064"
           style="color:#000000;fill:#ffe69c;fill-opacity:1;stroke-width:1.84767;stroke-linecap:round;stroke-linejoin:round;-inkscape-stroke:none;paint-order:fill markers stroke"
           d="m 169.08398,757.59766 c -0.64411,-4.2e-4 -1.16628,0.81058 -1.16601,1.8125 v 6.9375 h 34.09375 v -6.9375 c 2.7e-4,-1.00014 -0.51913,-1.81043 -1.16211,-1.8125 z"
           transform="matrix(0.26458333,0,0,0.26458333,-0.65481034,3.367596)" />
        <path
           id="path164188"
           style="color:#000000;fill:#ffe69c;fill-opacity:1;stroke-width:1.84767;stroke-linecap:round;stroke-linejoin:round;-inkscape-stroke:none;paint-order:fill markers stroke"
           d="m 205.17773,757.59766 c -0.64411,-4.2e-4 -1.16628,0.81058 -1.16601,1.8125 v 6.9375 h 34.09375 v -6.9375 c 2.7e-4,-1.00014 -0.51913,-1.81043 -1.16211,-1.8125 z"
           transform="matrix(0.26458333,0,0,0.26458333,-0.65481034,3.367596)" />
        <path
           style="color:#000000;fill:#fece3a;stroke-width:1.00216;stroke-linecap:round;stroke-linejoin:round;-inkscape-stroke:none;paint-order:fill markers stroke"
           d="m 42.381208,206.13033 c -0.436659,-1.8e-4 -0.790686,0.35233 -0.790503,0.78711 v 3.07422 c -1.83e-4,0.43478 0.353844,0.78729 0.790503,0.78711 h 21.533847 c 0.435892,-9e-4 0.788726,-0.35309 0.788541,-0.78711 v -3.07422 c 1.85e-4,-0.43402 -0.352649,-0.78621 -0.788541,-0.78711 z"
           id="path160498" />
      </g>
    </g>
    <path
       id="rect168602"
       style="fill:#c88764;stroke-width:1.975;stroke-linecap:round;stroke-linejoin:round;paint-order:fill markers stroke"
       d="m 44.001838,57.549396 c 0.207074,-0.0489 0.40098,-0.0567 0.619641,-0.25716 0.02348,-0.32764 0.04704,-0.6553 0.329221,-1.01338 0.355121,-0.28133 0.963606,-0.31904 1.723488,-0.21117 0.411619,0.21863 0.418205,0.36975 0.576812,0.54621 0.119856,0.14208 0.346334,0.1657 0.605574,0.15292 0.105591,-0.0176 0.232482,0.0671 0.264611,-0.30309 l 0.240109,-0.44145 0.154515,0.40791 0.343393,-0.0116 0.493205,-0.34393 -0.108163,0.46615 c 0.06549,0.2786 0.117135,0.55443 -0.0469,0.78713 l 0.254284,0.52759 -5.571734,0.006 c -0.002,0.5735 1.446498,0.29463 2.075772,0.44289 0.354793,0.15529 0.459227,0.40744 0.355094,0.75941 -0.111351,0.17102 -0.144362,0.16814 -0.40585,0.21529 -0.29671,0.0372 -0.155041,-0.10788 -0.07449,-0.13659 0.110045,-0.0305 0.276615,-0.0221 0.332221,-0.10817 0.047,-0.29626 -0.06772,-0.43081 -0.284999,-0.4628 -0.716873,-0.0661 -1.48734,0.0805 -2.079649,-0.27627 l -0.241919,-0.29759 c -0.114078,-0.37129 0.133474,-0.52145 0.445765,-0.44814 z" />
    <g
       id="g192438"
       transform="translate(-2.6525674,-145.1357)">
      <path
         id="rect183452"
         style="opacity:1;fill:#b19f96;stroke-width:1.975;stroke-linecap:round;stroke-linejoin:round;paint-order:fill markers stroke"
         d="m 70.252366,202.61702 h 0.561266 l -1.918229,8.01971 h -0.561266 z" />
      <path
         id="path185376"
         style="opacity:1;fill:#b19f96;stroke-width:1.975;stroke-linecap:round;stroke-linejoin:round;paint-order:fill markers stroke"
         d="m 72.040244,202.6253 h -0.561266 l 1.918229,8.01971 h 0.561266 z" />
      <path
         id="rect179732"
         style="opacity:1;fill:#ca8c6b;stroke-width:2.86719;stroke-linecap:round;stroke-linejoin:round;paint-order:fill markers stroke"
         d="m 67.634117,203.86145 h 6.83091 v 2.77813 h -6.83091 z" />
      <path
         id="rect181160"
         style="opacity:1;fill:#a16c50;stroke-width:1.975;stroke-linecap:round;stroke-linejoin:round;paint-order:fill markers stroke"
         d="m 70.848145,204.97903 h 0.666503 v 0.65481 h -0.666503 z" />
      <path
         id="path185480"
         style="opacity:1;fill:#02a17f;stroke-width:1.975;stroke-linecap:round;stroke-linejoin:round;paint-order:fill markers stroke"
         d="m 73.151648,201.50276 a 2.0930545,1.695491 0 0 1 -2.093054,1.69549 2.0930545,1.695491 0 0 1 -2.093055,-1.69549 2.0930545,1.695491 0 0 1 2.093055,-1.69549 2.0930545,1.695491 0 0 1 2.093054,1.69549 z" />
      <path
         id="rect188006"
         style="opacity:1;fill:#008065;stroke-width:1.975;stroke-linecap:round;stroke-linejoin:round;paint-order:fill markers stroke"
         d="m 69.643745,200.59068 h 2.80633 v 0.1754 h -2.80633 z" />
      <path
         id="rect188008"
         style="opacity:1;fill:#008065;stroke-width:1.975;stroke-linecap:round;stroke-linejoin:round;paint-order:fill markers stroke"
         d="m 69.491737,202.16925 h 3.063577 v 0.19878 h -3.063577 z" />
      <path
         id="rect188010"
         style="opacity:1;fill:#008065;stroke-width:1.975;stroke-linecap:round;stroke-linejoin:round;paint-order:fill markers stroke"
         d="m 69.409874,201.40921 h 3.145428 v 0.1754 h -3.145428 z" />
    </g>
    <path
       id="path192462"
       style="fill:#afb2b5;fill-opacity:1;stroke:none;stroke-width:1.975;stroke-linecap:round;stroke-linejoin:round;stroke-miterlimit:4;stroke-dasharray:none;stroke-opacity:1;paint-order:fill markers stroke"
       d="m 132.63725,58.627046 a 2.8824457,2.9115673 0 0 0 1.27176,1.97559 2.5958551,4.759068 0 0 0 -1.156,3.95273 2.5958551,4.759068 0 0 0 0.0522,0.94567 h 2.70733 2.70733 a 2.5958551,4.759068 0 0 0 0.0522,-0.94567 2.5958551,4.759068 0 0 0 -1.156,-3.95273 2.8824457,2.9115673 0 0 0 1.27176,-1.97559 h -2.87528 z" />
    <path
       id="rect194007"
       style="fill:#ffffff;fill-opacity:1;stroke:none;stroke-width:1.975;stroke-linecap:round;stroke-linejoin:round;stroke-miterlimit:4;stroke-dasharray:none;stroke-opacity:1;paint-order:fill markers stroke"
       d="m 111.93115,48.266946 v 4.3031 h 2.28616 l -1.52601,12.93099 h 0.74828 l 1.52601,-12.93099 h 0.30385 l 1.52601,12.93099 h 0.74827 l -1.526,-12.93099 h 2.74246 v -4.3031 z" />
    <g
       id="rect195718"
       transform="translate(-2.6525674,-145.1357)">
      <g
         id="g205632">
        <path
           id="path195865"
           style="color:#000000;opacity:1;fill:#afb2b5;fill-opacity:1;stroke:none;stroke-width:0.957059;stroke-linecap:round;stroke-linejoin:round;-inkscape-stroke:none;paint-order:fill markers stroke"
           d="m 119.83351,199.5735 c -0.35623,-1.5e-4 -0.64528,0.90157 -0.64595,1.29323 v 1.94115 h -7.93182 c -0.4748,-4.8e-4 -0.8598,0.35227 -0.85938,0.78716 v 4.44226 c -5.3e-4,0.4349 0.38459,0.78754 0.85938,0.78716 h 11.15849 c 0.4748,4.8e-4 0.8598,-0.35226 0.85938,-0.78716 v -4.44226 -2.93627 c -0.28489,0.0253 -0.56339,0.0101 -0.87798,0.22578 l -0.42892,0.80721 v -0.82503 c -7.9e-4,-0.39166 -0.28972,-1.29338 -0.64595,-1.29323 z" />
        <rect
           style="opacity:1;fill:#f1695e;fill-opacity:1;stroke:none;stroke-width:1.975;stroke-linecap:round;stroke-linejoin:round;stroke-miterlimit:4;stroke-dasharray:none;stroke-opacity:1;paint-order:fill markers stroke"
           id="rect199939"
           width="4.0925646"
           height="1.2628485"
           x="117.25069"
           y="201.56181" />
        <path
           id="rect202852"
           style="opacity:1;fill:#cc9071;stroke-width:1.975;stroke-linecap:round;stroke-linejoin:round;paint-order:fill markers stroke"
           d="m 112.45199,208.80264 h 0.51449 l -0.53743,1.8341 h -0.51449 z" />
        <path
           id="path205626"
           style="opacity:1;fill:#cc9071;stroke-width:1.975;stroke-linecap:round;stroke-linejoin:round;paint-order:fill markers stroke"
           d="m 122.19588,208.80264 h -0.51449 l 0.53743,1.8341 h 0.51449 z" />
      </g>
    </g>
    <g
       id="g217664"
       transform="translate(-2.6525674,-145.1357)">
      <rect
         style="opacity:1;fill:#ffffff;fill-opacity:1;stroke:none;stroke-width:1.58228;stroke-linecap:round;stroke-linejoin:miter;stroke-miterlimit:4;stroke-dasharray:none;stroke-opacity:1;paint-order:normal"
         id="rect215996"
         width="21.599201"
         height="6.7975259"
         x="85.970451"
         y="202.38866" />
      <path
         id="rect212747"
         style="color:#000000;fill:#d9ae99;stroke-width:1;stroke-linecap:round;-inkscape-stroke:none"
         d="m 85.970459,202.38867 v 0.25012 6.5996 h 3.723288 l -0.438216,1.39834 h 0.614712 l 0.584181,-1.39834 h 6.133478 0.50023 5.915868 l 0.46988,1.39834 h 0.47726 l -0.1754,-1.39834 h 3.92724 v -6.84972 h -10.614848 -0.50023 z m 0.500229,0.50023 h 10.117214 v 5.84926 H 86.470688 Z m 10.617444,0 h 10.115138 v 5.84926 H 97.088132 Z" />
      <rect
         style="opacity:1;fill:none;fill-opacity:1;stroke:#d9ae99;stroke-width:0.499999;stroke-linecap:round;stroke-linejoin:miter;stroke-miterlimit:4;stroke-dasharray:none;stroke-opacity:1;paint-order:normal"
         id="rect215511"
         width="0.046772167"
         height="1.4148581"
         x="95.333366"
         y="205.07256" />
      <rect
         style="opacity:1;fill:none;fill-opacity:1;stroke:#d9ae99;stroke-width:0.499999;stroke-linecap:round;stroke-linejoin:miter;stroke-miterlimit:4;stroke-dasharray:none;stroke-opacity:1;paint-order:normal"
         id="rect215593"
         width="0.046772167"
         height="1.4148581"
         x="98.034462"
         y="205.07256" />
    </g>
    <g
       id="g217668"
       transform="translate(-2.6525674,-145.1357)">
      <rect
         style="opacity:1;fill:#00af8a;fill-opacity:1;stroke:none;stroke-width:2.12118;stroke-linecap:round;stroke-linejoin:round;stroke-miterlimit:4;stroke-dasharray:none;stroke-opacity:1;paint-order:fill markers stroke"
         id="rect211295"
         width="16.185684"
         height="8.2786732"
         x="88.539711"
         y="191.76587" />
      <path
         style="color:#000000;fill:#000000;-inkscape-stroke:none"
         d="m 93.353516,194.87109 c -0.167972,-0.0465 -0.354093,-0.0266 -0.511719,0.0605 -0.242422,0.13404 -0.396495,0.34375 -0.416016,0.57813 -0.01326,0.15915 -0.02462,0.46947 0.189453,0.73437 0.06442,0.0797 0.167714,0.18185 0.277344,0.27539 -0.199014,0.30413 -0.358291,0.51649 -0.708984,1.17188 l 0.234375,0.12304 c 0.354317,-0.66215 0.509881,-0.87106 0.705078,-1.16797 0.09365,0.0521 0.180585,0.12213 0.291015,0.12305 0.552034,0.005 0.846273,-0.12611 1.078125,-0.32031 0.231853,-0.19421 0.403491,-0.42785 0.800782,-0.68164 0.144174,-0.0921 0.452606,-0.12118 0.765625,-0.0664 0.313019,0.0548 0.630481,0.18835 0.798828,0.3418 0.08997,0.082 0.133114,0.24531 0.160156,0.43555 0.02704,0.19024 0.02936,0.39462 0.138672,0.5625 0.03618,0.0555 0.05752,0.0623 0.09766,0.0879 0.04014,0.0256 0.09205,0.0522 0.152344,0.0703 0.12059,0.0362 0.29332,0.0347 0.429687,-0.0879 0.09361,-0.0842 0.154452,-0.20173 0.22461,-0.33985 0.07016,-0.13811 0.142676,-0.29736 0.224609,-0.44531 0.08193,-0.14795 0.173361,-0.28497 0.269531,-0.38086 0.09617,-0.0959 0.189375,-0.14754 0.294922,-0.15234 0.357986,-0.0163 0.506906,0.0456 0.664063,0.15234 0.157157,0.10676 0.323919,0.27711 0.640624,0.4375 0.28611,0.1449 0.59702,0.1581 0.83789,0.13672 0.12043,-0.0107 0.22322,-0.0315 0.29883,-0.0488 0.0756,-0.0173 0.11559,-0.0285 0.13476,-0.0351 l -0.0859,-0.25 c 0.009,-0.003 -0.0413,0.0122 -0.10742,0.0273 -0.0661,0.0151 -0.15803,0.0336 -0.26367,0.043 -0.21128,0.0188 -0.47462,0.004 -0.69531,-0.10742 -0.282409,-0.14303 -0.422181,-0.2934 -0.611327,-0.42188 -0.189146,-0.12848 -0.427036,-0.21536 -0.824218,-0.19726 -0.187349,0.009 -0.34515,0.10333 -0.470704,0.22851 -0.125553,0.12519 -0.224612,0.2827 -0.3125,0.44141 -0.08789,0.1587 -0.163439,0.31921 -0.230468,0.45117 -0.06703,0.13196 -0.133856,0.23651 -0.164063,0.26367 -0.06056,0.0545 -0.113419,0.0506 -0.177734,0.0312 -0.03216,-0.01 -0.06412,-0.0252 -0.08594,-0.0391 -0.02182,-0.0139 -0.04258,-0.0451 -0.01953,-0.01 -0.04437,-0.0681 -0.0689,-0.25276 -0.09766,-0.45507 -0.02876,-0.20232 -0.06888,-0.43401 -0.244141,-0.59375 -0.228855,-0.20861 -0.577875,-0.34469 -0.929687,-0.40625 -0.351812,-0.0616 -0.706783,-0.0551 -0.955078,0.10351 -0.430196,0.27481 -0.630376,0.53553 -0.828125,0.70117 -0.19775,0.16564 -0.392197,0.26216 -0.90625,0.25782 -0.04059,-3.4e-4 -0.105417,-0.047 -0.16211,-0.0742 0.05491,-0.0793 0.164311,-0.28788 0.214844,-0.35547 0.193438,-0.25875 0.277436,-0.58811 0.240234,-0.82422 -0.03146,-0.19967 -0.187497,-0.33243 -0.355468,-0.37891 z m -0.07031,0.25391 c 0.09474,0.0262 0.149374,0.0728 0.164063,0.16602 0.01798,0.11414 -0.04687,0.43427 -0.189454,0.625 -0.05339,0.0714 -0.166507,0.28697 -0.224609,0.37109 -0.07941,-0.072 -0.162655,-0.14924 -0.210937,-0.20899 -0.147496,-0.18251 -0.144518,-0.40633 -0.132813,-0.54687 0.01125,-0.13507 0.09431,-0.26491 0.279297,-0.36719 0.09214,-0.0509 0.219713,-0.0653 0.314453,-0.0391 z"
         id="path205667" />
    </g>
    <path
       id="rect173795"
       style="fill:#cce2f0;stroke-width:2.57473;stroke-linecap:round;stroke-linejoin:round;paint-order:fill markers stroke"
       d="m 3.0216146,34.768796 c 1.1287681,-4.33356 2.3640653,-8.58863 4.3196434,-12.31297 l -0.0058,49.96921 0.8185136,-0.58466 0.844587,0.0348 -1.6631006,1.99984 -0.025042,12.14451 -3.910635,-0.10779 -0.3755933,-2.76592 z" />
    <path
       id="rect175812"
       style="fill:#cce2f0;stroke-width:4.26553;stroke-linecap:round;stroke-linejoin:round;paint-order:fill markers stroke"
       d="m 10.455037,17.144546 c 1.355887,-1.85973 2.759851,-3.68581 4.424029,-5.32974 l 0.0079,32.87433 2.221678,-1.44994 1.453199,0.0889 -3.674877,3.06821 v 40.25528 l -4.443354,-0.5457 v -21.89004 l -2.3151044,-2.29857 0.826823,-0.33531 1.4882814,0.64951 v -27.54974 l -2.3124894,-2.57202 0.956499,-0.25572 1.3559904,0.74414 z" />
    <path
       id="rect178256"
       style="fill:#cce2f0;stroke-width:2.14175;stroke-linecap:round;stroke-linejoin:round;paint-order:fill markers stroke"
       d="m 194.94989,33.044646 c 3.31032,4.53499 4.80795,9.73781 6.50441,14.86738 l -0.0488,46.11241 -8.21211,-2.1227 v -20.54213 l -1.12364,-4.7358 -5.84015,-5.83326 0.68724,-1.78275 7.99634,4.5466 z" />
    <rect
       style="fill:none;fill-opacity:1;stroke:none;stroke-width:0.499999;stroke-linecap:round;stroke-linejoin:miter;stroke-miterlimit:4;stroke-dasharray:none;stroke-opacity:1;paint-order:normal"
       id="rect215619"
       width="14.868862"
       height="6.6652293"
       x="83.317886"
       y="57.252968" />
    <path
       id="rect218775"
       style="fill:#e5f1f8;fill-opacity:1;stroke-width:0.499999;stroke-linecap:round"
       d="m 3.3997763,85.911736 3.910635,0.10779 3.1332287,0.0864 4.443354,0.5457 c 11.500324,3.66938 13.191053,9.48461 17.187,14.795574 H 6.3829837 Z" />
    <path
       id="rect226367"
       style="fill:#e5f1f8;stroke-width:0.499999;stroke-linecap:round"
       d="m 193.19342,91.901726 8.2121,2.12271 0.5049,0.13051 -1.15373,7.292204 -28.12279,1e-5 c 1.33863,-4.277424 6.8858,-11.085544 20.55952,-9.545434 z" />
    <path
       id="rect2115"
       style="opacity:1;fill:#797a7c;fill-opacity:1;stroke-width:0"
       d="m 123.49023,137.35156 v 237.15625 3.78125 h 522.69727 3.7793 v -3.78125 -237.15625 h -3.7793 l -8e-5,116.68609 v 3.77931 l 8e-5,116.69085 H 127.26953 l -5e-5,-116.69085 v -3.77931 l 5e-5,-116.68609 z"
       transform="scale(0.26458333)" />
    <path
       id="rect10289"
       style="opacity:1;fill:#797a7c;stroke-width:0;fill-opacity:1"
       d="M 33.673382,67.214127 H 170.97042 v 0.999942 H 33.673382 Z" />
    <path
       id="rect10472"
       style="opacity:1;fill:#797a7c;stroke-width:0;fill-opacity:1"
       d="M 29.789379,32.546993 64.582605,17.520003 102.6547,1.0770778 l 35.33014,15.4429852 36.64531,16.018145 -6.45276,-15.018187 -27.90535,-1.8e-5 -2.2872,-0.99994 30.86228,1.7e-5 7.13695,16.609824 h -2.25878 L 102.6547,2.1648671 30.684933,33.129905 166.93708,33.129904 102.6547,5.6266728 37.966141,33.129904 H 35.740956 L 102.6547,4.5838414 169.54157,33.129904 h 4.18372 2.25878 l -0.99994,0.999937 H 29.439015 v 1.210778 H 174.98413 v -1.210778 l 1.00002,-0.999921 -8e-5,3.211155 -4.01369,-1.42e-4 h -0.99994 -137.297044 -0.99994 l -4.234381,1.42e-4 v -3.211171 l 7.137032,-16.609841 h 31.321602 l -2.315104,0.99994 H 36.245833 Z" />
  </g>
</svg>
