<svg viewBox="0 0 353 353" fill="none" xmlns="http://www.w3.org/2000/svg">
    <g clip-path="url(#FYS_Speed_GigabitPlus_svg__a)">
        <path
            d="M176.55 0C79.36-.63.12 78.68 0 175.27c-.12 98.8 78.11 176.6 175.23 177.25 99.46.67 174.86-78.44 177.59-171.24C355.8 79.78 272.23-1.3 176.55 0Z"
            fill="#D8E9F3"></path>
        <path
            d="M313.92 173.8c-.19 38.54-11.43 68.41-33.36 94.34-2.83 3.35-6.08 5.36-10.46 3.45-3.44-1.51-4.81-4.42-4.35-8.16.31-2.51 2.11-4.11 3.6-5.87a119.401 119.401 0 0 0 27.53-59.5 121.936 121.936 0 0 0-66.59-128.82c-74.7-36.86-163.43 10.09-174.92 92.88-5 35.7 4.7 67.57 27.78 95.31 1.61 1.93 3.45 3.73 3.73 6.35.38 3.5-.95 6.24-4.23 7.72-3.64 1.64-6.79.79-9.44-2.17a131.139 131.139 0 0 1-23.3-36.46C15.76 152 62.69 61.53 148.72 43.94c44.3-9.07 84.39 1.72 118.55 31.66 30.89 27.08 45.93 61.72 46.65 98.2Z"
            fill="url(#FYS_Speed_GigabitPlus_svg__b)"></path>
        <path
            d="M233 227.6c-8.58-6.2-17.12-12.44-25.73-18.59a5472.15 5472.15 0 0 0-38.16-27.11c-4.38-3.08-5.4-7.21-2.4-11 2.59-3.28 7.08-3.55 10.49-.22a13110.95 13110.95 0 0 1 55.84 54.79c.271.383.483.804.63 1.25-.19.28-.42.58-.67.88Z"
            fill="#61646B"></path>
    </g>
    <defs>
        <linearGradient id="FYS_Speed_GigabitPlus_svg__b" x1="68.47" y1="156.58" x2="278.85" y2="156.58"
            gradientUnits="userSpaceOnUse">
            <stop stop-color="#00B086"></stop>
            <stop offset="1" stop-color="#1852C7"></stop>
        </linearGradient>
        <clipPath id="FYS_Speed_GigabitPlus_svg__a">
            <path fill="#fff" d="M0 0h352.9v352.53H0z"></path>
        </clipPath>
    </defs>
</svg>