<?xml version="1.0" encoding="UTF-8" standalone="no"?>
<svg
   viewBox="0 0 384 191"
   fill="none"
   version="1.1"
   id="svg20"
   sodipodi:docname="speed-fast.svg"
   width="384"
   height="191"
   inkscape:version="1.1 (c68e22c387, 2021-05-23)"
   xmlns:inkscape="http://www.inkscape.org/namespaces/inkscape"
   xmlns:sodipodi="http://sodipodi.sourceforge.net/DTD/sodipodi-0.dtd"
   xmlns="http://www.w3.org/2000/svg"
   xmlns:svg="http://www.w3.org/2000/svg">
  <sodipodi:namedview
     id="namedview22"
     pagecolor="#ffffff"
     bordercolor="#666666"
     borderopacity="1.0"
     inkscape:pageshadow="2"
     inkscape:pageopacity="0.0"
     inkscape:pagecheckerboard="0"
     showgrid="false"
     inkscape:zoom="0.65302213"
     inkscape:cx="126.33569"
     inkscape:cy="273.34449"
     inkscape:window-width="1600"
     inkscape:window-height="837"
     inkscape:window-x="-8"
     inkscape:window-y="-8"
     inkscape:window-maximized="1"
     inkscape:current-layer="svg20" />
  <g
     clip-path="url(#FYS_Speed_Fast_svg__a)"
     id="g8"
     transform="matrix(0.53840021,0,0,0.53897005,97,0.50000043)">
    <path
       d="M 176.55,0 C 79.36,-0.63 0.12,78.68 0,175.27 c -0.12,98.8 78.11,176.6 175.23,177.25 99.46,0.67 174.86,-78.44 177.59,-171.24 C 355.8,79.78 272.23,-1.3 176.55,0 Z"
       fill="#d8e9f3"
       id="path2" />
    <path
       d="m 313.92,173.8 c -0.19,38.54 -11.43,68.41 -33.36,94.34 -2.83,3.35 -6.08,5.36 -10.46,3.45 -3.44,-1.51 -4.81,-4.42 -4.35,-8.16 0.31,-2.51 2.11,-4.11 3.6,-5.87 A 119.401,119.401 0 0 0 296.88,198.06 121.936,121.936 0 0 0 230.29,69.24 C 155.59,32.38 66.86,79.33 55.37,162.12 c -5,35.7 4.7,67.57 27.78,95.31 1.61,1.93 3.45,3.73 3.73,6.35 0.38,3.5 -0.95,6.24 -4.23,7.72 -3.64,1.64 -6.79,0.79 -9.44,-2.17 A 131.139,131.139 0 0 1 49.91,232.87 C 15.76,152 62.69,61.53 148.72,43.94 c 44.3,-9.07 84.39,1.72 118.55,31.66 30.89,27.08 45.93,61.72 46.65,98.2 z"
       fill="url(#FYS_Speed_Fast_svg__b)"
       id="path4"
       style="fill:url(#FYS_Speed_Fast_svg__b)" />
    <path
       d="m 232.75,113.48 c -6,8.72 -12,17.42 -17.95,26.18 a 6755.313,6755.313 0 0 0 -26.14,38.82 c -3,4.46 -7.07,5.58 -10.94,2.68 -3.34,-2.5 -3.73,-7 -0.49,-10.48 17.74,-19.12 35.537,-38.183 53.39,-57.19 a 4.52,4.52 0 0 1 1.23,-0.66 z"
       fill="#61646b"
       id="path6" />
  </g>
  <defs
     id="defs18">
    <linearGradient
       id="FYS_Speed_Fast_svg__b"
       x1="68.470001"
       y1="156.58"
       x2="278.85001"
       y2="156.58"
       gradientUnits="userSpaceOnUse">
      <stop
         stop-color="#00B086"
         id="stop10" />
      <stop
         offset="1"
         stop-color="#1852C7"
         id="stop12" />
    </linearGradient>
    <clipPath
       id="FYS_Speed_Fast_svg__a">
      <path
         fill="#ffffff"
         d="M 0,0 H 352.9 V 352.53 H 0 Z"
         id="path15" />
    </clipPath>
  </defs>
</svg>
