<?xml version="1.0" encoding="UTF-8" standalone="no"?>
<svg
   viewBox="0 0 353 353"
   fill="none"
   version="1.1"
   id="svg20"
   sodipodi:docname="speed.svg"
   inkscape:version="1.1 (c68e22c387, 2021-05-23)"
   xmlns:inkscape="http://www.inkscape.org/namespaces/inkscape"
   xmlns:sodipodi="http://sodipodi.sourceforge.net/DTD/sodipodi-0.dtd"
   xmlns="http://www.w3.org/2000/svg"
   xmlns:svg="http://www.w3.org/2000/svg">
  <sodipodi:namedview
     id="namedview22"
     pagecolor="#ffffff"
     bordercolor="#666666"
     borderopacity="1.0"
     inkscape:pageshadow="2"
     inkscape:pageopacity="0"
     inkscape:pagecheckerboard="true"
     showgrid="false"
     inkscape:zoom="1.3060443"
     inkscape:cx="101.45139"
     inkscape:cy="144.32895"
     inkscape:window-width="1600"
     inkscape:window-height="837"
     inkscape:window-x="-8"
     inkscape:window-y="-8"
     inkscape:window-maximized="1"
     inkscape:current-layer="svg20" />
  <path
     d="M 176.55,0 C 79.36,-0.63 0.12,78.68 0,175.27 c -0.12,98.8 78.11,176.6 175.23,177.25 99.46,0.67 174.86,-78.44 177.59,-171.24 C 355.8,79.78 272.23,-1.3 176.55,0 Z"
     fill="#d8e9f3"
     id="path2"
     style="fill:#f2f2f2;fill-opacity:1" />
  <path
     d="m 313.92,173.8 c -0.19,38.54 -11.43,68.41 -33.36,94.34 -2.83,3.35 -6.08,5.36 -10.46,3.45 -3.44,-1.51 -4.81,-4.42 -4.35,-8.16 0.31,-2.51 2.11,-4.11 3.6,-5.87 A 119.401,119.401 0 0 0 296.88,198.06 121.936,121.936 0 0 0 230.29,69.24 C 155.59,32.38 66.86,79.33 55.37,162.12 c -5,35.7 4.7,67.57 27.78,95.31 1.61,1.93 3.45,3.73 3.73,6.35 0.38,3.5 -0.95,6.24 -4.23,7.72 -3.64,1.64 -6.79,0.79 -9.44,-2.17 A 131.139,131.139 0 0 1 49.91,232.87 C 15.76,152 62.69,61.53 148.72,43.94 c 44.3,-9.07 84.39,1.72 118.55,31.66 30.89,27.08 45.93,61.72 46.65,98.2 z"
     fill="url(#FYS_Speed_basic_svg__b)"
     id="path4"
     style="fill:#e4e5e5;fill-opacity:1" />
  <path
     d="m 116.3955,234.14641 c 6.40718,-8.42046 12.85249,-16.80857 19.21216,-25.27197 9.38506,-12.45894 18.72899,-24.95041 28.0308,-37.47447 3.18434,-4.30656 7.32663,-5.21947 11.05845,-2.13984 3.2156,2.66791 3.37281,7.21556 -0.0304,10.49712 a 10900.018,10900.018 0 0 1 -56.14247,54.47714 4.269,4.269 0 0 1 -1.26861,0.60491 z"
     fill="#61646b"
     id="path839"
     inkscape:transform-center-x="23.385609"
     inkscape:transform-center-y="26.969407"
     style="fill:#cacacb;fill-opacity:1" />
  <defs
     id="defs18">
    <linearGradient
       id="FYS_Speed_basic_svg__b"
       x1="68.47"
       y1="156.58"
       x2="278.85"
       y2="156.58"
       gradientUnits="userSpaceOnUse">
      <stop
         stop-color="#00B086"
         id="stop10" />
      <stop
         offset="1"
         stop-color="#1852C7"
         id="stop12" />
    </linearGradient>
    <clipPath
       id="FYS_Speed_basic_svg__a">
      <path
         fill="#fff"
         d="M0 0h352.9v352.53H0z"
         id="path15" />
    </clipPath>
  </defs>
</svg>
