<?xml version="1.0" encoding="UTF-8" standalone="no"?>
<svg
   viewBox="0 0 384 191"
   fill="none"
   version="1.1"
   id="svg20"
   sodipodi:docname="speed-gigabit.svg"
   width="384"
   height="191"
   inkscape:version="1.1 (c68e22c387, 2021-05-23)"
   xmlns:inkscape="http://www.inkscape.org/namespaces/inkscape"
   xmlns:sodipodi="http://sodipodi.sourceforge.net/DTD/sodipodi-0.dtd"
   xmlns="http://www.w3.org/2000/svg"
   xmlns:svg="http://www.w3.org/2000/svg">
  <sodipodi:namedview
     id="namedview22"
     pagecolor="#ffffff"
     bordercolor="#666666"
     borderopacity="1.0"
     inkscape:pageshadow="2"
     inkscape:pageopacity="0.0"
     inkscape:pagecheckerboard="0"
     showgrid="false"
     inkscape:zoom="0.92351275"
     inkscape:cx="134.81135"
     inkscape:cy="272.32975"
     inkscape:window-width="1600"
     inkscape:window-height="837"
     inkscape:window-x="-8"
     inkscape:window-y="-8"
     inkscape:window-maximized="1"
     inkscape:current-layer="svg20" />
  <g
     clip-path="url(#FYS_Speed_GigabitPlus_svg__a)"
     id="g8"
     transform="matrix(0.53840021,0,0,0.53897005,97,0.50000043)">
    <path
       d="M 176.55,0 C 79.36,-0.63 0.12,78.68 0,175.27 c -0.12,98.8 78.11,176.6 175.23,177.25 99.46,0.67 174.86,-78.44 177.59,-171.24 C 355.8,79.78 272.23,-1.3 176.55,0 Z"
       fill="#d8e9f3"
       id="path2" />
    <path
       d="m 313.92,173.8 c -0.19,38.54 -11.43,68.41 -33.36,94.34 -2.83,3.35 -6.08,5.36 -10.46,3.45 -3.44,-1.51 -4.81,-4.42 -4.35,-8.16 0.31,-2.51 2.11,-4.11 3.6,-5.87 A 119.401,119.401 0 0 0 296.88,198.06 121.936,121.936 0 0 0 230.29,69.24 C 155.59,32.38 66.86,79.33 55.37,162.12 c -5,35.7 4.7,67.57 27.78,95.31 1.61,1.93 3.45,3.73 3.73,6.35 0.38,3.5 -0.95,6.24 -4.23,7.72 -3.64,1.64 -6.79,0.79 -9.44,-2.17 A 131.139,131.139 0 0 1 49.91,232.87 C 15.76,152 62.69,61.53 148.72,43.94 c 44.3,-9.07 84.39,1.72 118.55,31.66 30.89,27.08 45.93,61.72 46.65,98.2 z"
       fill="url(#FYS_Speed_GigabitPlus_svg__b)"
       id="path4"
       style="fill:url(#FYS_Speed_GigabitPlus_svg__b)" />
    <path
       d="m 233,227.6 c -8.58,-6.2 -17.12,-12.44 -25.73,-18.59 A 5472.15,5472.15 0 0 0 169.11,181.9 c -4.38,-3.08 -5.4,-7.21 -2.4,-11 2.59,-3.28 7.08,-3.55 10.49,-0.22 a 13110.95,13110.95 0 0 1 55.84,54.79 c 0.271,0.383 0.483,0.804 0.63,1.25 -0.19,0.28 -0.42,0.58 -0.67,0.88 z"
       fill="#61646b"
       id="path6" />
  </g>
  <defs
     id="defs18">
    <linearGradient
       id="FYS_Speed_GigabitPlus_svg__b"
       x1="68.470001"
       y1="156.58"
       x2="278.85001"
       y2="156.58"
       gradientUnits="userSpaceOnUse">
      <stop
         stop-color="#00B086"
         id="stop10" />
      <stop
         offset="1"
         stop-color="#1852C7"
         id="stop12" />
    </linearGradient>
    <clipPath
       id="FYS_Speed_GigabitPlus_svg__a">
      <path
         fill="#ffffff"
         d="M 0,0 H 352.9 V 352.53 H 0 Z"
         id="path15" />
    </clipPath>
  </defs>
</svg>
