<svg aria-hidden="true" style="position:absolute;width:0;height:0;overflow:hidden" xmlns="http://www.w3.org/2000/svg">
    <defs>
        <symbol id="amazon" viewBox="0 0 105 32">
            <path fill="#f90"
                d="M64.653 24.561c-6.055 4.469-14.833 6.845-22.392 6.845-10.595 0-20.134-3.916-27.353-10.434-.567-.513-.061-1.211.619-.815 7.788 4.533 17.421 7.262 27.37 7.262 6.711 0 14.087-1.393 20.876-4.271 1.024-.435 1.883.674.88 1.414z" />
            <path fill="#f90"
                d="M67.172 21.684c-.775-.991-5.119-.469-7.071-.237-.59.071-.683-.445-.15-.819 3.466-2.435 9.146-1.731 9.806-.917.664.823-.174 6.516-3.423 9.233-.5.417-.976.195-.753-.356.73-1.827 2.366-5.912 1.591-6.904z" />
            <path fill="#221f1f"
                d="M60.239 3.431V1.065a.583.583 0 0 1 .6-.599L71.441.465c.338 0 .611.247.611.597v2.029c-.004.341-.29.785-.799 1.49l-5.491 7.841c2.038-.047 4.195.259 6.047 1.3.417.233.529.581.562.922v2.525c0 .346-.38.75-.781.541-3.263-1.71-7.593-1.897-11.201.02-.369.197-.754-.201-.754-.548v-2.399c0-.385.006-1.042.394-1.626l6.363-9.128-5.541-.001c-.338 0-.611-.242-.612-.595zM81.179.161c4.787 0 7.375 4.11 7.375 9.336 0 5.05-2.858 9.057-7.375 9.057-4.696 0-7.257-4.111-7.257-9.232 0-5.155 2.59-9.161 7.257-9.161zm.029 3.379c-2.379 0-2.529 3.239-2.529 5.26 0 2.02-.029 6.338 2.499 6.338 2.499 0 2.619-3.483 2.619-5.607 0-1.394-.06-3.066-.482-4.39-.361-1.149-1.084-1.601-2.108-1.601zM7.756 0C4.685 0 1.261 1.146.542 4.938a.567.567 0 0 0 .483.674l3.087.335c.279.031.542-.269.608-.627.229-1.252 1.386-1.903 2.583-1.898.664 0 1.384.266 1.809.837.548.737.392 2.758.392 2.758l.001 2.584-.002 1.146c0 2.144-.688 3.118-.688 3.118s-.771 1.307-2.1 1.307c0 0-2.005.249-2.005-2.604 0-2.294 2.558-2.967 4.795-2.967l-.001-2.584c-1.446.161-4.863.591-6.064 1.119-2.021.871-3.439 2.653-3.439 5.271 0 3.35 2.112 5.028 4.828 5.028 2.292 0 3.548-.543 5.318-2.347 0 0 .746 1.297 1.848 2.15.159.123.55.117.763-.074 0 0 1.82-1.584 2.479-2.136.263-.215.217-.563.011-.858-.589-.814-1.216-1.476-1.216-2.989V7.156c0-2.131.15-4.085-1.419-5.551C11.375.417 9.323-.001 7.755-.001zM50.039 0c-3.071 0-6.495 1.146-7.214 4.938a.567.567 0 0 0 .483.674l3.087.335c.279.031.542-.269.608-.627.229-1.252 1.386-1.903 2.583-1.898.664 0 1.384.266 1.809.837.548.737.392 2.758.392 2.758l.001 2.584-.002 1.146c0 2.144-.688 3.118-.688 3.118s-.771 1.307-2.1 1.307c0 0-2.005.249-2.005-2.604 0-2.294 2.558-2.967 4.795-2.967l-.001-2.584c-1.446.161-4.863.591-6.064 1.119-2.021.871-3.439 2.653-3.439 5.271 0 3.35 2.112 5.028 4.828 5.028 2.292 0 3.548-.543 5.318-2.347 0 0 .746 1.297 1.849 2.15.159.123.55.117.763-.074 0 0 1.82-1.584 2.479-2.136.263-.215.217-.563.011-.858-.589-.814-1.216-1.476-1.216-2.989V7.156c0-2.131.15-4.085-1.419-5.551-1.238-1.188-3.29-1.606-4.858-1.606zM22.189 8.835c0-1.917-.09-4.564 2.227-4.564 2.288 0 1.987 2.717 1.987 4.564l.004 8.776c0 .317.256.575.579.594h3.222a.608.608 0 0 0 .622-.595V8.836c0-.941-.029-2.334.301-3.17s1.144-1.36 1.927-1.36c.932 0 1.656.314 1.897 1.428.15.663.09 2.404.09 3.101l.001 8.776c0 .317.254.575.579.594h3.221a.607.607 0 0 0 .622-.595l.004-10.446c0-1.778.21-3.798-.814-5.191C37.755.719 36.281.162 34.925.162c-1.897 0-3.672.976-4.456 3.066-.903-2.09-2.168-3.066-4.185-3.066-1.987 0-3.462.976-4.245 3.066h-.061V1.114a.603.603 0 0 0-.603-.603h-3.01a.602.602 0 0 0-.602.603v16.49c0 .332.268.602.602.602h3.221c.333 0 .603-.27.603-.602zM95.392 17.602c0 .333-.27.603-.603.603h-3.221a.603.603 0 0 1-.602-.603V1.112c0-.332.27-.603.602-.603h2.978c.35 0 .603.281.603.472v2.524h.062c.903-2.264 2.168-3.344 4.395-3.344 1.446 0 2.861.523 3.764 1.951.845 1.323.845 3.553.845 5.155v10.416a.614.614 0 0 1-.619.522h-3.233a.608.608 0 0 1-.574-.522l.005-10.003c0-3.347-1.282-3.445-2.021-3.445-.861 0-1.554.673-1.857 1.3-.45 1.011-.523 2.044-.523 3.16z" />
        </symbol>
        <symbol id="icon-advancednetworkprotection" viewBox="0 0 32 32">
            <path
                d="M19.623 12.588h-.002a.405.405 0 0 0-.285.117l-4.529 4.518-2.041-2.037a.403.403 0 0 0-.574.002.408.408 0 0 0 .002.572l2.328 2.322a.403.403 0 0 0 .572 0l4.814-4.803a.406.406 0 0 0 0-.574.405.405 0 0 0-.285-.117z" />
            <path
                d="M16.049 6.201c-3.243 0-6.277.519-8.896 1.422A1.424 1.424 0 0 0 6.2 9.002c.27 12.23 7.176 16.967 9.16 18.063h.002l.002.002c.21.117.446.178.686.178.171 0 .331-.067.49-.127.065-.025.138-.019.199-.053 1.984-1.096 8.891-5.831 9.16-18.063a1.426 1.426 0 0 0-.951-1.379c-2.618-.903-5.653-1.422-8.896-1.422h-.002zm.689 20.863-.197.053a.397.397 0 0 0 .197-.052l-.002.001.002-.002zm-.689-20.052h.002c3.157 0 6.106.506 8.633 1.377a.624.624 0 0 1 .406.596c-.263 11.936-6.922 16.367-8.744 17.373l-.006.003.002-.001a.598.598 0 0 1-.586 0l-.002-.002c-1.821-1.005-8.48-5.436-8.744-17.373a.624.624 0 0 1 .406-.596c2.527-.871 5.477-1.377 8.633-1.377z" />
            <path
                d="M10.535-.016C4.712-.016-.016 4.713-.016 10.535v10.928c0 5.823 4.729 10.551 10.551 10.551h10.928c5.823 0 10.551-4.729 10.551-10.551V10.535c0-5.823-4.729-10.551-10.551-10.551zm0 .811h10.928a9.733 9.733 0 0 1 9.74 9.74v10.928a9.733 9.733 0 0 1-9.74 9.74H10.535a9.733 9.733 0 0 1-9.74-9.74V10.535a9.733 9.733 0 0 1 9.74-9.74z" />
        </symbol>
        <symbol id="icon-alwaysgettingbetter" viewBox="0 0 32 32">
            <path
                d="M10.535-.016C4.712-.016-.016 4.713-.016 10.535v10.928c0 5.823 4.729 10.551 10.551 10.551h10.928c5.823 0 10.551-4.729 10.551-10.551V10.535c0-5.823-4.729-10.551-10.551-10.551zm0 .811h10.928a9.733 9.733 0 0 1 9.74 9.74v10.928a9.733 9.733 0 0 1-9.74 9.74H10.535a9.733 9.733 0 0 1-9.74-9.74V10.535a9.733 9.733 0 0 1 9.74-9.74z" />
            <path
                d="M12.615 8.18c-2.249 0-4.047 1.967-4.047 4.348v1.934c0 .223.181.404.404.404h.001a.405.405 0 0 0 .405-.404v-1.934c0-1.976 1.461-3.537 3.236-3.537h6.672c1.775 0 3.238 1.561 3.238 3.537v1.934c0 .223.181.404.404.404h.001a.405.405 0 0 0 .405-.404v-1.934c0-2.38-1.8-4.348-4.049-4.348zM8.973 15.732a.405.405 0 0 0-.404.405v3.61c0 2.379 1.798 4.35 4.047 4.35h6.672c2.249 0 4.049-1.969 4.049-4.35v-3.61a.405.405 0 0 0-.405-.405h-.001a.405.405 0 0 0-.404.405v3.61c0 1.976-1.463 3.539-3.238 3.539h-6.672c-1.775 0-3.236-1.564-3.236-3.539v-3.61a.405.405 0 0 0-.405-.405h-.001z" />
            <path
                d="M7.225 12.145h-.016a.405.405 0 0 0-.299.681l1.766 1.91a.407.407 0 0 0 .594 0l1.766-1.91a.403.403 0 0 0-.021-.572.404.404 0 0 0-.572.023l-1.469 1.588-1.467-1.588a.405.405 0 0 0-.28-.131h-.001zM22.93 15.732a.405.405 0 0 0-.297.131l-1.766 1.91a.404.404 0 0 0 .023.572.404.404 0 0 0 .572-.023l1.467-1.588 1.469 1.588a.405.405 0 0 0 .573.024.404.404 0 0 0 .022-.573l-1.766-1.91a.409.409 0 0 0-.297-.131z" />
        </symbol>
        <symbol id="icon-dayguarantee" viewBox="0 0 36 36">
            <path
                d="m 17.978516,0.92382813 c -7.09315,0 -12.8574222,5.76509527 -12.8574223,12.85937487 0,7.094384 5.7642713,12.859375 12.8574223,12.859375 7.095526,0 12.859375,-5.765063 12.859375,-12.859375 0,-7.0942074 -5.763851,-12.85937487 -12.859375,-12.85937487 z m 0,1.24999997 c 6.420061,0 11.609375,5.1906161 11.609375,11.6093749 0,6.418875 -5.189315,11.609375 -11.609375,11.609375 -6.417436,0 -11.6074222,-5.190573 -11.6074223,-11.609375 0,-6.4186866 5.1899853,-11.6093749 11.6074223,-11.6093749 z" />
            <path
                d="M 7.1601562,24.839844 A 0.625,0.625 0 0 0 6.796875,25.150391 l -3.1171875,6.123046 a 0.6250625,0.6250625 0 0 0 0.7519531,0.878907 l 5.0917969,-1.66211 1.6718755,5.054688 a 0.6250625,0.6250625 0 0 0 1.15039,0.08789 l 3.117188,-6.126953 a 0.625,0.625 0 0 0 -0.273438,-0.841797 0.625,0.625 0 0 0 -0.839844,0.275391 l -2.4375,4.791016 -1.398437,-4.222657 A 0.6250625,0.6250625 0 0 0 9.7265625,29.109375 L 5.4804687,30.494141 7.9101562,25.716797 A 0.625,0.625 0 0 0 7.6367187,24.876953 0.625,0.625 0 0 0 7.1601562,24.839844 Z" />
            <path
                d="m 28.796875,24.839844 a 0.625,0.625 0 0 0 -0.476563,0.03711 0.625,0.625 0 0 0 -0.273437,0.839844 l 2.431641,4.777344 -4.248047,-1.384766 a 0.6250625,0.6250625 0 0 0 -0.78711,0.398437 l -1.396484,4.222657 -2.439453,-4.791016 a 0.625,0.625 0 0 0 -0.839844,-0.275391 0.625,0.625 0 0 0 -0.273437,0.841797 l 3.117187,6.126953 a 0.6250625,0.6250625 0 0 0 1.150391,-0.08789 l 1.673828,-5.054688 5.091797,1.66211 a 0.6250625,0.6250625 0 0 0 0.75,-0.878907 l -3.117188,-6.123046 a 0.625,0.625 0 0 0 -0.363281,-0.310547 z" />
        </symbol>
        <symbol id="icon-facebook" viewBox="0 0 32 32">
            <path
                d="M17.093 31.999H1.766c-.975 0-1.766-.79-1.766-1.766V1.766C0 .791.79 0 1.766 0h28.468C31.209 0 32 .79 32 1.766v28.467c0 .975-.79 1.766-1.766 1.766h-8.155V19.607h4.16l.623-4.83h-4.783v-3.083c0-1.398.389-2.351 2.393-2.351l2.557-.001V5.023c-.442-.058-1.961-.19-3.727-.19-3.687 0-6.212 2.251-6.212 6.384v3.562h-4.17v4.83h4.17v12.392z" />
        </symbol>
        <symbol id="icon-fastandeasysetup" viewBox="0 0 32 32">
            <path
                d="M14.914 7.637a1.564 1.564 0 0 0-1.499 1.551l.01 12.35-1.668-1.459a2.889 2.889 0 0 0-3.723-.072.404.404 0 0 0-.058.571l-.001-.001s1.037 1.268 2.443 2.709 3.165 3.062 4.736 3.807a.404.404 0 0 0 .538-.189l.001-.002a.407.407 0 0 0-.191-.54l-.002-.001c-1.363-.646-3.123-2.227-4.502-3.641-1.161-1.19-1.759-1.926-2.016-2.234.294-.143.579-.319.91-.313.489.009.96.191 1.328.514v.002l2.342 2.049a.405.405 0 0 0 .672-.305l-.01-13.244c.001-.192.075-.375.209-.514a.753.753 0 0 1 1.037-.041.743.743 0 0 1 .248.498l.51 6.594c.016.21.191.375.404.375h3.67a2.956 2.956 0 0 1 2.959 2.963v.001c0 .223.181.405.404.405a.405.405 0 0 0 .404-.405v-.001a3.776 3.776 0 0 0-3.768-3.773h-3.295l-.48-6.221v-.002a1.56 1.56 0 0 0-1.615-1.43z" />
            <path
                d="M13.314 5.154A2.62 2.62 0 0 0 10.7 7.772v3.598c0 .223.181.404.404.404h.001a.405.405 0 0 0 .405-.404V7.772a1.803 1.803 0 0 1 1.802-1.806h3.314a1.795 1.795 0 0 1 1.275.53h.002a1.803 1.803 0 0 1 .528 1.277v3.598c0 .223.182.404.405.404h.001a.404.404 0 0 0 .404-.404V7.773a2.623 2.623 0 0 0-1.613-2.418 2.63 2.63 0 0 0-1.002-.199z" />
            <path
                d="M10.535-.016C4.712-.016-.016 4.713-.016 10.535v10.928c0 5.823 4.729 10.551 10.551 10.551h10.928c5.823 0 10.551-4.729 10.551-10.551V10.535c0-5.823-4.729-10.551-10.551-10.551zm0 .811h10.928a9.733 9.733 0 0 1 9.74 9.74v10.928a9.733 9.733 0 0 1-9.74 9.74H10.535a9.733 9.733 0 0 1-9.74-9.74V10.535a9.733 9.733 0 0 1 9.74-9.74z" />
        </symbol>
        <symbol id="icon-freeshipping" viewBox="0 0 52 36">
            <path
                d="m 1.9960937,0.21679688 a 0.6250625,0.6250625 0 0 0 -0.625,0.625 V 24.417969 a 0.625,0.625 0 0 0 0.625,0.625 0.625,0.625 0 0 0 0.6250001,-0.625 V 1.4667969 H 38.191406 c 0.749894,0 1.391256,0.4724631 1.595703,1.1367187 l 2.91211,11.7851564 a 0.6250625,0.6250625 0 0 0 0.40039,0.441406 l 5.324219,1.867188 c 0.525392,0.284169 0.841797,0.804104 0.841797,1.365234 v 6.355469 a 0.625,0.625 0 0 0 0.625,0.625 0.625,0.625 0 0 0 0.625,-0.625 V 18.0625 c 0,-1.035066 -0.586939,-1.984938 -1.509766,-2.476562 a 0.6250625,0.6250625 0 0 0 -0.08594,-0.03711 L 43.832031,13.761719 40.994141,2.2753906 a 0.6250625,0.6250625 0 0 0 -0.0098,-0.033203 C 40.615984,1.0327238 39.471912,0.21679687 38.191406,0.21679688 Z" />
            <path
                d="m 25.943359,4.7089844 a 0.625,0.625 0 0 0 -0.625,0.625 V 24.417969 a 0.625,0.625 0 0 0 0.625,0.625 0.625,0.625 0 0 0 0.625,-0.625 V 5.3339844 a 0.625,0.625 0 0 0 -0.625,-0.625 z" />
            <path
                d="M 45,27.875 A 0.625,0.625 0 0 0 44.375,28.5 0.625,0.625 0 0 0 45,29.125 h 6 A 0.625,0.625 0 0 0 51.625,28.5 0.625,0.625 0 0 0 51,27.875 Z" />
            <path
                d="M 18,27.875 A 0.625,0.625 0 0 0 17.375,28.5 0.625,0.625 0 0 0 18,29.125 H 34 A 0.625,0.625 0 0 0 34.625,28.5 0.625,0.625 0 0 0 34,27.875 Z" />
            <path
                d="M 1,27.875 A 0.625,0.625 0 0 0 0.375,28.5 0.625,0.625 0 0 0 1,29.125 H 7 A 0.625,0.625 0 0 0 7.625,28.5 0.625,0.625 0 0 0 7,27.875 Z" />
            <path
                d="m 12.5,22.375 c -3.3751929,0 -6.125,2.749243 -6.125,6.125 0,3.375935 2.7498071,6.125 6.125,6.125 3.37522,0 6.125,-2.749288 6.125,-6.125 0,-3.375534 -2.74978,-6.125 -6.125,-6.125 z m 0,1.25 c 2.699774,0 4.875,2.17474 4.875,4.875 0,2.700482 -2.175226,4.875 -4.875,4.875 -2.6997411,0 -4.875,-2.174741 -4.875,-4.875 0,-2.700036 2.1752589,-4.875 4.875,-4.875 z" />
            <path
                d="m 14.5,28.5 c 0,1.104 -0.896,2 -2,2 -1.104,0 -2,-0.896 -2,-2 0,-1.104 0.896,-2 2,-2 1.104,0 2,0.896 2,2 z" />
            <path
                d="m 39.5,22.375 c -3.37522,0 -6.125,2.749247 -6.125,6.125 0,3.375931 2.74978,6.125 6.125,6.125 3.37522,0 6.125,-2.749288 6.125,-6.125 0,-3.375534 -2.74978,-6.125 -6.125,-6.125 z m 0,1.25 c 2.699774,0 4.875,2.17474 4.875,4.875 0,2.700482 -2.175226,4.875 -4.875,4.875 -2.699774,0 -4.875,-2.174737 -4.875,-4.875 0,-2.700041 2.175226,-4.875 4.875,-4.875 z" />
            <path
                d="m 41.5,28.5 c 0,1.104 -0.896,2 -2,2 -1.104,0 -2,-0.896 -2,-2 0,-1.104 0.896,-2 2,-2 1.104,0 2,0.896 2,2 z" />
            <path
                d="m 32.238281,4.7050781 a 0.6250625,0.6250625 0 0 0 -0.625,0.625 v 8.9082029 a 0.6250625,0.6250625 0 0 0 0.625,0.625 h 11.06836 a 0.625,0.625 0 0 0 0.625,-0.625 0.625,0.625 0 0 0 -0.625,-0.625 H 32.863281 V 5.9550781 h 8.242188 a 0.625,0.625 0 0 0 0.625,-0.625 0.625,0.625 0 0 0 -0.625,-0.625 z" />
        </symbol>
        <symbol id="icon-freesupport" viewBox="0 0 36 36">
            <path
                d="m 17.960937,0.92382813 c -3.208555,0 -5.839843,2.54980617 -5.839843,5.69921877 0,3.1494038 2.631292,5.6972661 5.839843,5.6972661 3.208552,0 5.839844,-2.5480407 5.839844,-5.6972661 0,-3.1492342 -2.631288,-5.69921877 -5.839844,-5.69921877 z m 0,1.24999997 c 2.551439,0 4.589844,1.9941186 4.589844,4.4492188 0,2.4550889 -2.038401,4.4472661 -4.589844,4.4472661 -2.551442,0 -4.589843,-1.9923556 -4.589843,-4.4472661 0,-2.4549218 2.038405,-4.4492188 4.589843,-4.4492188 z" />
            <path
                d="M 1,34.375 A 0.625,0.625 0 0 0 0.375,35 0.625,0.625 0 0 0 1,35.625 H 35 A 0.625,0.625 0 0 0 35.625,35 0.625,0.625 0 0 0 35,34.375 Z" />
            <path
                d="m 11.292969,23.324219 c -1.288032,0 -2.3613284,1.034343 -2.3613284,2.314453 v 6.388672 a 0.625,0.625 0 0 0 0.625,0.625 0.625,0.625 0 0 0 0.6250004,-0.625 v -6.388672 c 0,-0.586488 0.480961,-1.064453 1.111328,-1.064453 h 13.333984 c 0.630366,0 1.113281,0.478532 1.113281,1.064453 v 6.388672 a 0.625,0.625 0 0 0 0.625,0.625 0.625,0.625 0 0 0 0.625,-0.625 v -6.388672 c 0,-1.280677 -1.075249,-2.314453 -2.363281,-2.314453 z" />
            <path
                d="m 13.623047,15.693359 c -3.099144,0 -5.8952208,1.84283 -7.0410158,4.66211 l -3.0468749,7.498047 c -0.6265634,1.542779 -0.3154736,3.305134 0.7968749,4.554687 a 0.625,0.625 0 0 0 0.8828125,0.05078 0.625,0.625 0 0 0 0.050781,-0.882812 C 4.4619154,30.673327 4.2446638,29.429036 4.6933594,28.324219 l 3.046875,-7.498047 c 0.950243,-2.338115 3.2789626,-3.882813 5.8828126,-3.882813 h 8.675781 c 2.60385,0 4.930638,1.544706 5.880859,3.882813 l 3.046875,7.498047 c 0.448792,1.105116 0.231164,2.349301 -0.572265,3.251953 a 0.625,0.625 0 0 0 0.05273,0.882812 0.625,0.625 0 0 0 0.882813,-0.05078 c 1.112369,-1.249745 1.421329,-3.012206 0.794922,-4.554687 l -3.046875,-7.498047 c -1.145777,-2.819289 -3.939919,-4.66211 -7.039063,-4.66211 z" />
        </symbol>
        <symbol id="icon-instagram" viewBox="0 0 32 32">
            <path
                d="M16 0c-4.345 0-4.89.018-6.597.096C7.7.174 6.537.444 5.519.84c-1.052.409-1.944.956-2.834 1.845S1.248 4.467.84 5.519C.444 6.537.174 7.7.096 9.403.018 11.11 0 11.654 0 16s.018 4.89.096 6.597c.078 1.703.348 2.866.744 3.884.409 1.052.956 1.944 1.845 2.834s1.782 1.437 2.834 1.846c1.018.395 2.181.666 3.884.744 1.707.078 2.251.096 6.597.096s4.89-.018 6.597-.096c1.703-.078 2.866-.348 3.884-.744 1.052-.409 1.944-.956 2.834-1.846s1.437-1.782 1.846-2.834c.395-1.018.666-2.181.744-3.884.078-1.707.096-2.252.096-6.597s-.018-4.89-.096-6.597c-.078-1.703-.348-2.866-.744-3.884-.409-1.052-.956-1.944-1.846-2.834S27.533 1.248 26.481.84C25.463.444 24.3.174 22.597.096 20.89.018 20.345 0 16 0zm0 2.883c4.272 0 4.778.016 6.465.093 1.56.071 2.407.332 2.971.551.747.29 1.28.637 1.84 1.197s.907 1.093 1.197 1.84c.219.564.48 1.411.551 2.971.077 1.687.093 2.193.093 6.465s-.016 4.778-.093 6.465c-.071 1.56-.332 2.407-.551 2.971-.29.747-.637 1.28-1.197 1.84s-1.093.907-1.84 1.197c-.564.219-1.411.48-2.971.551-1.687.077-2.193.093-6.465.093s-4.778-.016-6.465-.093c-1.56-.071-2.407-.332-2.971-.551-.747-.29-1.28-.637-1.84-1.197s-.907-1.093-1.197-1.84c-.219-.564-.48-1.411-.551-2.971-.077-1.687-.093-2.193-.093-6.465s.016-4.778.093-6.465c.071-1.56.332-2.407.551-2.971.29-.747.637-1.28 1.197-1.84s1.093-.907 1.84-1.197c.564-.219 1.411-.48 2.971-.551 1.687-.077 2.193-.093 6.465-.093zM7.784 16a8.216 8.216 0 1 1 16.432 0 8.216 8.216 0 0 1-16.432 0zM16 21.333a5.333 5.333 0 1 1 0-10.667 5.333 5.333 0 0 1 0 10.667zm8.541-11.954a1.92 1.92 0 1 0-.001-3.841 1.92 1.92 0 0 0 .001 3.841z" />
        </symbol>
        <symbol id="icon-lighting" viewBox="0 0 32 32">
            <path
                d="M12.594 20.938a.318.318 0 0 0-.318.319v.001c0 .176.143.318.318.318h6.492a.318.318 0 0 0 .318-.318v-.001a.318.318 0 0 0-.318-.319zM13.521 22.557a.318.318 0 0 0-.318.319v.001c0 .176.143.318.318.318h4.639a.318.318 0 0 0 .318-.318v-.001a.318.318 0 0 0-.318-.319zM14.449 24.176a.318.318 0 0 0-.318.318v.001c0 .176.142.319.318.319h2.783a.318.318 0 0 0 .318-.319v-.001a.318.318 0 0 0-.318-.318zM15.842 7.264c-3.297 0-6.014 2.375-6.014 5.348 0 .733.168 1.433.467 2.066l.006-.01v.022-.001l.008.018c.01.02.02.035.027.047l1.371 2.537c.392.723.598 1.529.598 2.348a.318.318 0 0 0 .636 0c0-.925-.232-1.837-.674-2.652h.002l-1.373-2.535-.008-.013.001.001c-.009-.015-.011-.022-.008-.016a.099.099 0 0 0-.009-.015l.001.001v-.006a4.186 4.186 0 0 1-.406-1.793c0-2.583 2.382-4.711 5.375-4.711s5.375 2.128 5.375 4.711c0 .619-.139 1.231-.406 1.793v.004a.06.06 0 0 0-.007.014l-.001.002c.005-.01-.002-.001-.016.025l-1.373 2.537a5.56 5.56 0 0 0-.674 2.65c0 .176.143.318.319.318h.001a.318.318 0 0 0 .318-.318c0-.818.204-1.623.596-2.346l1.373-2.537.002-.002.023-.045.008-.014.002-.004.002-.012v-.002l.002.002a4.815 4.815 0 0 0 .467-2.066c0-2.973-2.714-5.348-6.012-5.348z" />
        </symbol>
        <symbol id="icon-appliances" viewBox="0 0 32 32">
            <path
                d="M16.02 7.266a8.948 8.948 0 0 0-6.309 2.58c-3.484 3.441-3.483 9.035 0 12.477s9.135 3.441 12.617 0a8.755 8.755 0 0 0 0-12.477 8.946 8.946 0 0 0-6.309-2.58zm0 .634c2.121 0 4.241.801 5.859 2.4a8.102 8.102 0 0 1 0 11.566c-3.237 3.199-8.481 3.199-11.719 0s-3.24-8.368-.002-11.566h.002a8.315 8.315 0 0 1 5.859-2.4z" />
            <path
                d="M16.016 13.686a4.029 4.029 0 0 0-2.826 1.139 3.963 3.963 0 0 0-1.195 2.808c-.002.524.101 1.042.303 1.525s.499.921.873 1.291c.374.369.818.663 1.307.861s1.011.301 1.539.299a4.053 4.053 0 0 0 2.834-1.178h.004v-.002a3.934 3.934 0 0 0-.02-5.586 4.034 4.034 0 0 0-2.818-1.158zm-.004.636c.89.004 1.744.356 2.373.977a3.294 3.294 0 0 1 .017 4.68l-.002.002a3.35 3.35 0 0 1-1.092.73 3.402 3.402 0 0 1-3.69-.715 3.333 3.333 0 0 1-.732-1.084 3.277 3.277 0 0 1 .01-2.552c.171-.404.422-.77.738-1.078a3.389 3.389 0 0 1 2.377-.959z" />
            <path
                d="M16.02 16.096a.318.318 0 0 0-.318.318v2.43c0 .176.143.318.318.318h.001a.318.318 0 0 0 .319-.318v-2.43a.318.318 0 0 0-.319-.318h-.001zM16.018 9.236a1.559 1.559 0 0 0-1.09.438l-.004.004a1.52 1.52 0 0 0 .01 2.162 1.559 1.559 0 0 0 2.178.009l.004-.004a1.524 1.524 0 0 0-.01-2.162 1.551 1.551 0 0 0-1.088-.447zm-.002.637a.915.915 0 0 1 .641.264v.002c.169.167.265.393.266.627s-.091.46-.258.629a.918.918 0 0 1-1.282-.008c-.169-.167-.265-.393-.266-.627s.093-.458.258-.627c.17-.165.4-.261.641-.26z" />
        </symbol>
        <symbol id="icon-security" viewBox="0 0 32 32">
            <path
                d="M15.98 9.215a5.681 5.681 0 0 0-2.879.779l.307.525a5.064 5.064 0 0 1 2.572-.697c.946 0 1.827.259 2.586.707l.309-.523a5.669 5.669 0 0 0-2.895-.791zM15.969 6.551a8.323 8.323 0 0 0-4.896 1.584l.357.492a7.708 7.708 0 0 1 4.539-1.469c1.712 0 3.293.554 4.576 1.494l.359-.49a8.323 8.323 0 0 0-4.936-1.611zM13.965 12.721a4.138 4.138 0 0 0-4.133 4.133v4.072a4.138 4.138 0 0 0 4.133 4.133h4.07a4.138 4.138 0 0 0 4.133-4.133v-4.072a4.138 4.138 0 0 0-4.133-4.133zm0 .607h4.07a3.52 3.52 0 0 1 3.525 3.525v4.072a3.52 3.52 0 0 1-3.525 3.525h-4.07a3.52 3.52 0 0 1-3.525-3.525v-4.072a3.52 3.52 0 0 1 3.525-3.525z" />
            <path
                d="M16 16.873c-1.11 0-2.018.907-2.018 2.018s.907 2.018 2.018 2.018c1.11 0 2.018-.907 2.018-2.018s-.907-2.018-2.018-2.018zm0 .607c.782 0 1.41.627 1.41 1.41 0 .782-.629 1.41-1.41 1.41s-1.41-.627-1.41-1.41c0-.782.629-1.41 1.41-1.41z" />
        </symbol>
        <symbol id="icon-linkedin" viewBox="0 0 32 32">
            <path
                d="M3.767 8.311h-.045C1.464 8.311 0 6.8 0 4.885c0-1.952 1.507-3.431 3.81-3.431 2.301 0 3.716 1.475 3.761 3.426 0 1.915-1.46 3.431-3.804 3.431zM32 30.545h-7.072V20.318c0-2.677-1.106-4.504-3.539-4.504-1.861 0-2.895 1.233-3.377 2.422-.159.376-.156.881-.153 1.402l.001.213v10.694h-7.007s.09-18.116 0-19.762h7.007v3.101c.414-1.356 2.653-3.291 6.226-3.291 4.433 0 7.915 2.843 7.915 8.964v10.988zM7.044 10.783H.807v19.762h6.237V10.783z" />
        </symbol>
        <symbol id="icon-mainlogo" viewBox="0 0 107 50">
            <path
                d="m 39.391439,46.832886 c -2.4669,1.7103 -5.3804,2.6192 -8.3598,2.608 -3.767,0.0212 -7.4064,-1.3959 -10.2074,-3.9743 -0.2182,-0.1973 0,-0.4617 0.2255,-0.3127 2.7141,1.5943 5.7506,2.527 8.8738,2.7256 3.1233,0.1985 6.2492,-0.3424 9.1351,-1.5808 0.3873,-0.1638 0.702,0.255 0.331,0.5342 z"
                id="path2" />
            <path
                d="m 40.335239,45.736486 c 0.2837,0.3798 -0.3219,1.9341 -0.5965,2.6341 -0.0818,0.2066 0.0964,0.2885 0.2819,0.1321 1.2112,-1.0462 1.5167,-3.2018 1.2748,-3.5145 -0.2419,-0.3128 -2.3641,-0.5752 -3.6625,0.3462 -0.1946,0.1489 -0.1619,0.3128 0.0564,0.3128 0.7328,-0.0894 2.355,-0.2867 2.6459,0.0912 z m -2.5914,-6.9453 c 0,0.0298 0.0073,0.0595 0.0182,0.0875 0.0109,0.0279 0.0291,0.0502 0.0491,0.0726 0.02,0.0223 0.0455,0.0372 0.0727,0.0484 0.0273,0.0111 0.0564,0.0167 0.0855,0.0149 h 2.0659 l -2.3878,3.4978 c -0.109,0.1859 -0.1598,0.4016 -0.1455,0.618 v 0.8879 c 0,0.1322 0.1455,0.2811 0.2819,0.2067 0.6461,-0.3411 1.3626,-0.519 2.0895,-0.519 0.727,0 1.4434,0.1779 2.0895,0.519 0.1455,0.0819 0.291,-0.0745 0.291,-0.2067 v -0.9624 c -0.0024,-0.0714 -0.0229,-0.1408 -0.0596,-0.2016 -0.0367,-0.0607 -0.0882,-0.1106 -0.1496,-0.1446 -0.6958,-0.3693 -1.4761,-0.5398 -2.2586,-0.4933 l 2.0495,-2.9878 c 0.1928,-0.2717 0.2982,-0.4356 0.2982,-0.5677 v -0.7744 c 0.0019,-0.0298 -0.0036,-0.0615 -0.0145,-0.0894 -0.0112,-0.0286 -0.0279,-0.0545 -0.0491,-0.0763 -0.0213,-0.0217 -0.0467,-0.0388 -0.0746,-0.0503 -0.0277,-0.0114 -0.0574,-0.0164 -0.0873,-0.0148 h -3.9371 c -0.0291,-0.0019 -0.06,0.0037 -0.0873,0.0148 -0.0279,0.0115 -0.0532,0.0286 -0.0745,0.0503 -0.0212,0.0218 -0.038,0.0477 -0.0491,0.0763 -0.0112,0.0284 -0.0161,0.0589 -0.0146,0.0894 v 0.9047 z m 7.827,0.0409 c -0.8875,0 -0.9439,1.2342 -0.9439,1.9993 0,0.7651 0,2.4107 0.9366,2.4107 0.9365,0 0.9765,-1.3254 0.9765,-2.1315 0.0177,-0.5549 -0.0448,-1.1094 -0.1854,-1.6456 -0.0364,-0.1842 -0.1401,-0.3499 -0.2892,-0.4616 -0.1491,-0.1117 -0.3328,-0.1638 -0.5183,-0.1471 z m 0,-1.2919 c 1.7839,0 2.7514,1.5712 2.7514,3.5555 0,1.9844 -1.0657,3.4476 -2.7514,3.4476 -1.6858,0 -2.7115,-1.5637 -2.7115,-3.5146 0,-1.9509 0.9675,-3.4903 2.7115,-3.4903 z m -9.7728,6.8523 0.0073,0.0074 0.9274,-0.8228 c 0.04,-0.0428 0.0637,-0.1005 0.0637,-0.16 0,-0.0596 -0.0237,-0.1173 -0.0637,-0.1601 -0.2911,-0.3034 -0.456,-0.7104 -0.4601,-1.1356 v -1.9173 c 0,-0.8061 0.0564,-1.5544 -0.5237,-2.1147 -0.5151,-0.4172 -1.1585,-0.633 -1.8149,-0.6087 -1.1457,0 -2.4296,0.4356 -2.6951,1.8764 -0.0054,0.0295 -0.0054,0.0598 0,0.0893 0.0088,0.0443 0.0305,0.0848 0.0624,0.1161 0.0318,0.0313 0.0723,0.0518 0.1158,0.0589 l 1.153,0.0912 c 0.1036,0.0093 0.2255,-0.0986 0.2255,-0.2382 0.0519,-0.2185 0.1777,-0.4112 0.3551,-0.5437 0.1775,-0.1326 0.3951,-0.1965 0.6142,-0.1805 0.1289,0 0.2564,0.0286 0.3735,0.0838 0.1171,0.0553 0.2211,0.136 0.3048,0.2364 0.1309,0.3332 0.1818,0.6962 0.1455,1.0536 -0.7714,0.0316 -1.5346,0.1732 -2.2677,0.4207 -0.3898,0.1591 -0.7223,0.4372 -0.952,0.7967 -0.2298,0.3594 -0.3457,0.7826 -0.3319,1.2119 -0.039,0.379 0.0453,0.7606 0.2395,1.0856 0.1943,0.3251 0.4879,0.5756 0.8352,0.7126 0.2292,0.0931 0.4765,0.1341 0.7238,0.1192 0.3768,0.0224 0.7534,-0.0472 1.0987,-0.2033 0.3453,-0.156 0.6494,-0.3939 0.8871,-0.694 0.1855,0.3109 0.4201,0.5901 0.6947,0.8228 0.0437,0.0261 0.0909,0.041 0.1419,0.041 0.0509,0 0.1,-0.0131 0.1418,-0.041 z m -1.2075,-2.9915 c 0.0436,0.4487 -0.0346,0.901 -0.2255,1.3087 -0.0753,0.1573 -0.1893,0.2917 -0.331,0.39 -0.1416,0.0983 -0.3058,0.157 -0.4764,0.1703 -0.4674,0 -0.7347,-0.363 -0.7347,-0.8973 0,-1.0443 0.9201,-1.2341 1.7912,-1.2341 v 0.2624 z m -14.5719,2.9915 -0.0164,0.0074 0.9275,-0.8228 c 0.02,-0.0204 0.0363,-0.0446 0.0491,-0.0726 0.0127,-0.0279 0.0182,-0.0577 0.0182,-0.0874 -0.0012,-0.0604 -0.0253,-0.1178 -0.0673,-0.1601 -0.2686,-0.3141 -0.4149,-0.7182 -0.411,-1.1356 v -1.9173 c 0,-0.8061 0.0564,-1.5544 -0.5328,-2.1147 -0.5114,-0.4189 -1.1532,-0.635 -1.8077,-0.6087 -1.1456,0 -2.4295,0.4356 -2.695,1.8764 -0.0055,0.0298 -0.0073,0.0595 0,0.0893 0.0072,0.0298 0.0182,0.0577 0.0345,0.0819 0.0166,0.0247 0.0379,0.0456 0.0626,0.0616 0.0246,0.016 0.0522,0.0267 0.0811,0.0315 l 1.1529,0.1229 c 0.1037,0.0093 0.2255,-0.0987 0.2255,-0.2383 0.0496,-0.2198 0.1748,-0.414 0.3528,-0.547 0.178,-0.133 0.3969,-0.1959 0.6165,-0.1771 0.1284,-0.0036 0.2558,0.0237 0.372,0.0796 0.1162,0.0559 0.218,0.139 0.2972,0.2424 0.1364,0.3332 0.1892,0.6944 0.1528,1.0536 -0.7714,0.0316 -1.5346,0.1732 -2.2677,0.4207 -0.3887,0.1605 -0.72,0.4391 -0.9492,0.7982 -0.2293,0.3591 -0.3454,0.7816 -0.3329,1.2104 -0.0209,0.2464 0.0104,0.4945 0.0917,0.7274 0.0812,0.2329 0.2106,0.4451 0.3793,0.6222 0.168,0.1785 0.3711,0.3184 0.5959,0.4105 0.2248,0.0922 0.4661,0.1343 0.708,0.1238 0.3762,0.0191 0.7515,-0.052 1.096,-0.2078 0.3444,-0.1558 0.6486,-0.3919 0.888,-0.6895 0.1855,0.3109 0.4201,0.5901 0.6947,0.8228 0.0436,0.0261 0.0909,0.041 0.1418,0.041 0.051,0 0.1001,-0.0131 0.1419,-0.041 z m -1.2112,-2.9915 c 0.0437,0.4487 -0.0345,0.901 -0.2255,1.3087 -0.075,0.1569 -0.1888,0.291 -0.3301,0.389 -0.1414,0.0979 -0.3053,0.1564 -0.4755,0.1694 -0.46,0 -0.7256,-0.363 -0.7256,-0.8972 0,-1.0443 0.9202,-1.2342 1.7913,-1.2342 v 0.2625 h -0.0327 z m 4.7282,-0.551 c 0,-0.7316 0,-1.7368 0.8075,-1.7368 0.8074,0 0.7346,1.0294 0.7346,1.7368 v 3.3414 c 0,0.0578 0.0219,0.1136 0.0619,0.1546 0.04,0.0409 0.0927,0.0651 0.1491,0.0688 h 1.202 c 0.0291,0.0019 0.0601,-0.0037 0.0873,-0.0149 0.0273,-0.0111 0.0528,-0.026 0.0746,-0.0465 0.0218,-0.0205 0.04,-0.0447 0.0509,-0.0726 0.0109,-0.0279 0.02,-0.0577 0.02,-0.0875 v -3.3414 c -0.0235,-0.4069 0.0145,-0.815 0.1128,-1.21 0.0584,-0.148 0.1572,-0.2756 0.2846,-0.3677 0.1273,-0.0921 0.2779,-0.1447 0.4337,-0.1517 0.1646,-0.0239 0.3318,0.0198 0.4651,0.1216 0.1332,0.1019 0.2216,0.2536 0.2459,0.422 0.0291,0.3946 0.0291,0.7911 0,1.1858 v 3.3414 c 0.0023,0.058 0.0258,0.113 0.0659,0.1541 0.0401,0.0411 0.0939,0.0651 0.1505,0.0674 h 1.2021 c 0.0291,0.0019 0.06,-0.0037 0.0873,-0.0149 0.0272,-0.0111 0.0527,-0.026 0.0745,-0.0465 0.0219,-0.0205 0.04,-0.0447 0.051,-0.0726 0.0109,-0.0279 0.02,-0.0577 0.02,-0.0875 v -3.9836 c 0.1019,-0.6751 -0.0056,-1.3659 -0.3074,-1.9751 -0.1626,-0.218 -0.3728,-0.394 -0.6137,-0.5139 -0.2409,-0.1199 -0.5059,-0.1804 -0.7738,-0.1767 -0.3636,-0.0113 -0.7213,0.0958 -1.0216,0.3059 -0.3003,0.2101 -0.5278,0.5123 -0.6496,0.8631 -0.1016,-0.3407 -0.3081,-0.6386 -0.5887,-0.8492 -0.2805,-0.2107 -0.6201,-0.3229 -0.968,-0.3198 -0.3583,-0.0149 -0.7111,0.0912 -1.0038,0.3015 -0.2928,0.2104 -0.5074,0.5157 -0.6111,0.8656 v -0.8228 c -0.0018,-0.0595 -0.0272,-0.1154 -0.0691,-0.1582 -0.0418,-0.0428 -0.0982,-0.0651 -0.1564,-0.0651 h -1.0402 c -0.0291,-0.0019 -0.0582,0.0037 -0.0854,0.0149 -0.0273,0.0111 -0.0528,0.026 -0.0728,0.0483 -0.0218,0.0205 -0.0382,0.0447 -0.0491,0.0726 -0.0109,0.028 -0.0182,0.0578 -0.0182,0.0875 v 6.2789 c -0.0018,0.0298 0.0037,0.0615 0.0146,0.0894 0.0111,0.0286 0.0279,0.0545 0.0491,0.0763 0.0213,0.0217 0.0466,0.0389 0.0745,0.0503 0.0277,0.0114 0.0575,0.0165 0.0873,0.0149 h 1.2348 c 0.0291,0 0.0582,-0.0056 0.0855,-0.0168 0.0273,-0.0111 0.0509,-0.0279 0.0709,-0.0502 0.02,-0.0224 0.0364,-0.0466 0.0473,-0.0745 0.0109,-0.0279 0.0145,-0.0577 0.0145,-0.0875 v -3.2912 l -0.0327,-0.0242 z m 27.3289,3.3321 c 0.0018,0.0298 -0.0036,0.0615 -0.0145,0.0894 -0.0112,0.0286 -0.0279,0.0545 -0.0492,0.0763 -0.0212,0.0217 -0.0466,0.0388 -0.0745,0.0503 -0.0277,0.0114 -0.0575,0.0164 -0.0873,0.0149 h -1.202 c -0.0601,0 -0.1182,-0.0242 -0.1601,-0.067 -0.0418,-0.0429 -0.0654,-0.1024 -0.0654,-0.1639 v -6.2789 c 0.0018,-0.0595 0.0272,-0.1154 0.0691,-0.1582 0.0418,-0.0428 0.0982,-0.0651 0.1564,-0.0651 h 1.1129 c 0.0515,-0.0031 0.1024,0.0125 0.1437,0.0442 0.0413,0.0317 0.0703,0.0774 0.0818,0.1289 v 0.9624 c 0.0854,-0.3696 0.2922,-0.698 0.5858,-0.9301 0.2937,-0.2322 0.6563,-0.354 1.0272,-0.3451 0.277,-0.0082 0.5514,0.0563 0.7971,0.1873 0.2457,0.1309 0.4546,0.3241 0.6068,0.5611 0.2655,0.6161 0.3728,1.29 0.3146,1.9583 v 3.9669 c -0.0054,0.0558 -0.0327,0.108 -0.0745,0.1433 -0.0418,0.0354 -0.0964,0.0559 -0.1509,0.054 h -1.1621 c -0.0527,-0.0015 -0.1032,-0.0225 -0.1419,-0.0591 -0.0388,-0.0366 -0.0633,-0.0864 -0.069,-0.1401 v -3.8105 c 0,-1.2751 -0.4838,-1.3087 -0.7584,-1.3087 -0.1487,0.0097 -0.2919,0.0608 -0.4144,0.1478 -0.1224,0.0869 -0.2193,0.2064 -0.2802,0.3455 -0.1487,0.3812 -0.215,0.7908 -0.1946,1.2007 v 3.3899 z m -46.8780796,0.2141 -0.09638,-0.6422 c -0.28402,0.2511 -0.60906,0.4489 -0.96018,0.5845 -0.3305,0.1377 -0.6834,0.2103 -1.0402,0.2141 -0.50407,0.0251 -0.99725003,-0.1557 -1.37118003,-0.5026 -0.1741,-0.1715 -0.31028,-0.3792 -0.39937,-0.6092 -0.08908,-0.2299 -0.12901,-0.4766 -0.11709,-0.7237 -0.01127,-0.2736 0.03969,-0.5462 0.14888,-0.7962 0.10919,-0.2501 0.27362,-0.4707 0.48033,-0.6446 0.48191003,-0.376 1.08021003,-0.5659 1.68578003,-0.5343 0.51465,0.0075 1.02747,0.0801 1.52575,0.2141 v -0.8228 c 0.01818,-0.1694 0.00182,-0.3406 -0.05092,-0.5026 -0.05274,-0.1619 -0.13639,-0.3109 -0.24732,-0.4374 -0.29402,-0.2109 -0.65196,-0.3073 -1.00928,-0.2718 -0.72337,0.009 -1.44036,0.1398 -2.12223003,0.3872 v -0.8563 c 0.33643,-0.1731 0.69468003,-0.296 1.06566003,-0.363 0.41644,-0.0894 0.84198,-0.134 1.26752,-0.1322 0.60193,-0.0502 1.20023,0.121 1.68577,0.4859 0.19166,0.1906 0.34017,0.4218 0.43506,0.6775 0.09489,0.2557 0.13385,0.5296 0.11414,0.8024 v 4.4695 h -0.99292 z m -1.81671,-0.7651 c 0.60815,-0.0234 1.19306,-0.2452 1.66941,-0.6329 v -1.2509 c -0.41917,-0.1083 -0.84976,-0.1633 -1.28206,-0.1638 -0.90381,0 -1.3639,0.363 -1.3639,1.0703 -0.00848,0.1325 0.0101,0.2653 0.05456,0.3899 0.04447,0.1247 0.11383,0.2386 0.20367,0.3343 0.19944,0.1798 0.46031,0.2715 0.72559,0.255 h -0.00727 z m 8.7398896,0.7651 v -4.181 c 0.0272,-0.343 -0.067,-0.6846 -0.2655,-0.9624 -0.1043,-0.108 -0.2305,-0.1913 -0.3698,-0.2437 -0.1392,-0.0525 -0.2879996,-0.0728 -0.4357996,-0.0597 -0.6711,0.0109 -1.3233,0.2289 -1.8713,0.6255 v 4.8232 h -1.2021 v -6.2547 h 1.0002 l 0.1219,0.6906 c 0.691,-0.5566 1.5421,-0.8619 2.4203996,-0.8731 0.2434,-0.0185 0.4879,0.0143 0.7184,0.0962 0.2305,0.082 0.4422,0.2114 0.6219,0.3804 0.1652,0.1892 0.2911,0.411 0.3699,0.6516 0.0788,0.2407 0.1088,0.4953 0.0884,0.7482 v 4.5924 l -1.1948,-0.0335 z m 51.017,-0.2383 c -0.5001,0.2551 -1.0547,0.3816 -1.613,0.3705 -0.3991,0.0259 -0.7991,-0.0339 -1.1743,-0.1756 -0.3752,-0.1417 -0.7173,-0.3622 -1.0043,-0.6472 -0.4999,-0.7017 -0.7692,-1.5478 -0.7692,-2.4163 0,-0.8684 0.2693,-1.7145 0.7692,-2.4162 0.2904,-0.2872 0.6365,-0.5089 1.0158,-0.6506 0.3794,-0.1418 0.7835,-0.2004 1.1864,-0.1722 0.5274,-0.0037 1.0493,0.1154 1.5258,0.3462 v 0.8731 c -0.4315,-0.1545 -0.8834,-0.2405 -1.3403,-0.255 -0.2661,-0.026 -0.5346,0.0077 -0.7868,0.0987 -0.2522,0.091 -0.482,0.237 -0.6735,0.4281 -0.3346,0.4765 -0.4928,1.061 -0.4437,1.6456 v 0.1563 c -0.0452,0.586 0.1146,1.1693 0.451,1.6456 0.1867,0.1881 0.411,0.3325 0.6574,0.4235 0.2464,0.0909 0.5092,0.1262 0.7702,0.1033 0.4855,-0.0093 0.9674,-0.0912 1.4275,-0.2476 v 0.888 z m 3.7589,0.4189 c -0.3992,0.0224 -0.7984,-0.044 -1.1701,-0.1948 -0.3717,-0.1507 -0.7071,-0.3821 -0.983,-0.6783 -0.5092,-0.7055 -0.7839,-1.5595 -0.7839,-2.4367 0,-0.8772 0.2747,-1.7312 0.7839,-2.4367 0.582,-0.56 1.3507,-0.8717 2.1495,-0.8717 0.7987,0 1.5674,0.3117 2.1495,0.8717 0.5092,0.7055 0.7839,1.5595 0.7839,2.4367 0,0.8772 -0.2747,1.7312 -0.7839,2.4367 -0.2738,0.297 -0.6077,0.5291 -0.9784,0.6799 -0.3708,0.1508 -0.7692,0.2168 -1.1675,0.1932 z m 0,-0.9866 c 1.1293,0 1.7022,-0.7744 1.7022,-2.3288 0,-1.5544 -0.5729,-2.312 -1.7022,-2.312 -1.1293,0 -1.7021,0.7651 -1.7021,2.312 0,1.5469 0.5656,2.3288 1.7021,2.3288 z m 12.2242,0.806 v -4.2461 c 0.0242,-0.3188 -0.0551,-0.6368 -0.2255,-0.9047 -0.0904,-0.1039 -0.2032,-0.1848 -0.3295,-0.2362 -0.1263,-0.0513 -0.2625,-0.0718 -0.3979,-0.0598 -0.6302,0.0114 -1.2447,0.2022 -1.7749,0.551 0.0036,0.0633 0.0036,0.1267 0,0.1899 v 4.7078 h -1.1948 v -4.2462 c 0.0203,-0.3183 -0.0587,-0.6351 -0.2255,-0.9047 -0.0904,-0.1038 -0.2032,-0.1847 -0.3295,-0.2361 -0.1262,-0.0514 -0.2625,-0.0719 -0.3979,-0.0598 -0.6277,0.0054 -1.2409,0.194 -1.7676,0.5435 v 4.9386 h -1.1948 v -6.2547 h 1.0002 l 0.1219,0.633 c 0.6546,-0.5008 1.4421,-0.7893 2.2586,-0.8228 0.3096,-0.0378 0.6231,0.0233 0.8975,0.1749 0.2744,0.1517 0.4964,0.3864 0.6355,0.6721 0.6932,-0.5516 1.5426,-0.858 2.4205,-0.8731 0.2343,-0.0165 0.4694,0.0174 0.6902,0.0995 0.2208,0.082 0.4224,0.2105 0.5918,0.377 0.3128,0.3928 0.4601,0.8954 0.411,1.3999 v 4.5924 l -1.1948,-0.0335 z m 2.9624,2.5354 v -8.7901 h 1.0002 l 0.1127,0.6422 c 0.5555,-0.5273 1.2847,-0.821 2.0422,-0.8228 0.3496,-0.0223 0.6994,0.0407 1.0206,0.1837 0.3212,0.1431 0.6047,0.3621 0.8271,0.6391 0.4837,0.6851 0.7219,1.519 0.6783,2.3623 0.0509,0.8842 -0.2019,1.7573 -0.7183,2.4684 -0.2239,0.2941 -0.5122,0.5301 -0.8417,0.6889 -0.3296,0.1588 -0.691,0.2359 -1.0551,0.2251 -0.6916,0.0148 -1.3621,-0.2446 -1.8713,-0.7242 v 3.1274 z m 2.8151,-7.9841 c -0.5833,0.0074 -1.1487,0.2064 -1.6131,0.5678 v 3.4327 c 0.4601,0.3723 1.0275,0.5807 1.6131,0.5919 1.1129,0 1.6621,-0.7651 1.6621,-2.2878 0.0478,-0.608 -0.0935,-1.216 -0.4037,-1.7368 -0.1462,-0.1959 -0.3384,-0.3506 -0.5587,-0.4499 -0.2204,-0.0993 -0.4618,-0.1398 -0.7016,-0.1179 z m 7.9397,5.4487 -0.0964,-0.6422 c -0.284,0.2511 -0.6091,0.4489 -0.9602,0.5845 -0.3336,0.1379 -0.6895,0.2105 -1.0493,0.2141 -0.2491,0.013 -0.5001,-0.0242 -0.7347,-0.1117 -0.2346,-0.0875 -0.451,-0.2197 -0.6365,-0.3909 -0.1709,-0.1735 -0.3044,-0.3818 -0.3918,-0.6113 -0.0874,-0.2296 -0.1268,-0.4754 -0.1155,-0.7216 -0.0105,-0.2725 0.0401,-0.5439 0.1479,-0.7933 0.1078,-0.2494 0.2699,-0.4703 0.474,-0.6456 0.4856,-0.3761 1.0857,-0.5659 1.6949,-0.5343 0.5146,0.0075 1.0274,0.0801 1.5257,0.2141 v -0.8228 c 0.016,-0.169 -0.0022,-0.3395 -0.0535,-0.5009 -0.0513,-0.1615 -0.1346,-0.3103 -0.2447,-0.4373 -0.294,-0.2109 -0.652,-0.3073 -1.0093,-0.2718 -0.7257,0.009 -1.4451,0.1398 -2.1295,0.3872 v -0.8563 c 0.3364,-0.1731 0.6947,-0.296 1.0657,-0.363 0.4164,-0.0893 0.8401,-0.1322 1.2675,-0.1322 0.6037,-0.0484 1.2039,0.1229 1.6949,0.4859 0.1906,0.1913 0.3379,0.4232 0.4312,0.6793 0.0933,0.2561 0.1305,0.53 0.1088,0.8025 v 4.4695 h -0.9838 z m -1.8149,-0.7651 c 0.6081,-0.0234 1.193,-0.2452 1.6694,-0.6329 v -1.2509 c -0.4198,-0.1084 -0.851,-0.1634 -1.2839,-0.1638 -0.9111,0 -1.3639,0.363 -1.3639,1.0703 -0.0078,0.1316 0.0101,0.2635 0.0529,0.3879 0.0428,0.1244 0.1096,0.2387 0.1963,0.3363 0.2001,0.1785 0.4604,0.2701 0.7255,0.255 z m 8.7216,0.7651 v -4.181 c 0.026,-0.3417 -0.066,-0.682 -0.258,-0.9624 -0.104,-0.108 -0.231,-0.1913 -0.37,-0.2437 -0.139,-0.0525 -0.288,-0.0728 -0.436,-0.0597 -0.671,0.0109 -1.323,0.2289 -1.8711,0.6255 v 4.8232 h -1.1947 v -6.2547 h 1.0002 l 0.1218,0.6906 c 0.6908,-0.5568 1.5418,-0.8638 2.4208,-0.8731 0.244,-0.0186 0.49,0.014 0.721,0.096 0.232,0.0819 0.445,0.2114 0.626,0.3806 0.322,0.376 0.484,0.8675 0.451,1.3663 v 4.5924 z m 7.923001,-6.2547 -2.791,7.3493 c -0.147,0.4654 -0.409,0.8842 -0.758,1.2174 -0.32,0.2558 -0.717,0.3871 -1.122,0.3705 -0.32,0.0018 -0.637,-0.0559 -0.937,-0.1732 v -0.873 c 0.224,0.0577 0.455,0.0856 0.686,0.0819 0.256,0.0152 0.508,-0.067 0.709,-0.2308 0.218,-0.2309 0.376,-0.5138 0.46,-0.8228 l 0.235,-0.6255 -2.47,-6.3124 h 1.282 l 1.768,5.1192 1.702,-5.1192 h 1.235 v 0.0167 z M 23.988439,12.867686 H 3.4863694 v -0.1155 c 0.07274,-0.7353 0.24004,-1.4575 0.50009,-2.1482 0.86908,-2.5806902 2.60448,-4.7621002 4.89728,-6.1560002 1.5530996,-0.89632 3.3172996,-1.3375 5.0991996,-1.27514 1.3406,-0.00703 2.6697,0.25282 3.9135,0.76508 1.1812,0.47752 2.2625,1.18135 3.186,2.07374 0.8886,0.8627 1.6088,1.89052 2.1223,3.02869 0.5341,1.1582302 0.8099,2.4236302 0.8074,3.7044302 z m -9.82,-12.85570174 c -1.9556,-0.02678168 -3.8952,0.36308652 -5.6956996,1.14483154 -1.6876,0.75303 -3.21243,1.84131 -4.48628,3.20182 -1.27941,1.38011 -2.27995,3.00528 -2.9442,4.78224 -0.70221003,1.9203102 -1.05238003,3.9568102 -1.03292003,6.0071102 -0.02578,2.1034 0.31857,4.1943 1.01656003,6.1728 0.63648,1.7889 1.62576,3.4289 2.90419,4.8139 1.27856,1.3652 2.82395,2.4391 4.53545,3.1516 1.8711996,0.7725 3.8733996,1.1541 5.8901996,1.128 2.3966,0.027 4.7718,-0.464 6.9704,-1.4408 2.1472,-1.0105 3.9688,-2.626 5.2519,-4.6575 l -2.5423,-2.1817 c -0.9863,1.5927 -2.3817,2.8769 -4.0335,3.7119 -1.7153,0.9125 -3.6188,1.3925 -5.552,1.3998 -1.8811,0.0781 -3.7483,-0.3623 -5.4063996,-1.2751 -1.3079,-0.7742 -2.4452,-1.8167 -3.34068,-3.0622 -0.79017,-1.0951 -1.37305,-2.332 -1.71852,-3.6467 -0.27796,-1.0055 -0.43491,-2.042 -0.46736,-3.0864 v -0.1154 H 27.465539 v -2.5596 c -0.0128,-1.6866 -0.3131,-3.3579 -0.8875,-4.9386402 -0.5641,-1.60335 -1.4276,-3.07903 -2.5423,-4.34479 -1.16,-1.2971 -2.5658,-2.33898 -4.1317,-3.0622 -1.8103,-0.79864402 -3.7666,-1.19153262 -5.7374,-1.15227914 v 0.00744608 z m 41.457,12.85570174 h -20.4948 v -0.1155 c 0.0727,-0.7353 0.24,-1.4575 0.5001,-2.1482 0.3932,-1.1568402 0.9621,-2.2430302 1.6858,-3.2185202 0.8794,-1.18239 1.9759,-2.17768 3.2278,-2.93003 1.552,-0.89914 3.317,-1.34051 5.0992,-1.27514 1.3377,-0.0072 2.6639,0.25267 3.9044,0.76508 1.1963,0.47221 2.2923,1.17633 3.2279,2.07373 0.8614,0.86854 1.5543,1.89621 2.0422,3.0287 0.531,1.1596802 0.8056,2.4236802 0.8074,3.7025802 v 0.1154 z m -9.8128,-12.85570174 c -1.9584,-0.02644668 -3.901,0.36338252 -5.7047,1.14483154 -1.6815,0.75129 -3.2007,1.83637 -4.4699,3.19251 -1.2821,1.37804 -2.283,3.00378 -2.9443,4.78224 -0.7092,1.9218202 -1.0619,3.9622202 -1.0401,6.0164202 -0.0235,2.1026 0.3182,4.1927 1.0092,6.1728 0.6426,1.7901 1.6337,3.4278 2.9133,4.8139 1.2786,1.3652 2.824,2.4391 4.5354,3.1516 1.8708,0.7726 3.8732,1.1561 5.8903,1.128 2.3966,0.027 4.7718,-0.464 6.9704,-1.4408 2.1419,-1.0127 3.9583,-2.628 5.2373,-4.6575 l -2.5422,-2.1817 c -0.9948,1.6012 -2.4061,2.8867 -4.0754,3.7119 -1.7153,0.9125 -3.6188,1.3925 -5.552,1.3998 -1.8811,0.0779 -3.7482,-0.3625 -5.4064,-1.2751 -1.3079,-0.7742 -2.4452,-1.8167 -3.3407,-3.0622 -0.785,-1.095 -1.3601,-2.3324 -1.6949,-3.6467 -0.2788,-1.0053 -0.4358,-2.0419 -0.4673,-3.0864 v -0.1154 h 23.9791 v -2.5596 c -0.0054,-1.6843 -0.2946,-3.355 -0.8547,-4.9386402 -0.5641,-1.60335 -1.4276,-3.07903 -2.5423,-4.34479 -1.1592,-1.29393 -2.5613,-2.3354 -4.1226,-3.0622 -1.8108,-0.79688402 -3.7667,-1.18969742 -5.7375,-1.15227914 l -0.04,0.00744608 z m 44.8614,27.23220174 c -1.6292,0.0222 -3.245,-0.303 -4.7446,-0.955 -1.3643,-0.6043 -2.5962,-1.4829 -3.6225,-2.5838 -1.0063,-1.0993 -1.7807,-2.3989 -2.275,-3.818 -1.0439,-3.0245 -1.0439,-6.3239 0,-9.3485 0.4971,-1.4204002 1.2711,-2.7225302 2.275,-3.8272902 1.0269,-1.09824 2.2588,-1.97432 3.6225,-2.57635 3.0407,-1.27345 6.4484,-1.27345 9.4891,0 1.3651,0.58775 2.5961,1.46093 3.6131,2.56363 1.017001,1.10271 1.797001,2.41063 2.292001,3.8400102 1.044,3.0246 1.044,6.324 0,9.3485 -0.499,1.4192 -1.276,2.7186 -2.284001,3.818 -1.025,1.1025 -2.258,1.9814 -3.6229,2.5838 -1.4996,0.652 -3.1154,0.9772 -4.7446,0.955 z m 0,-27.23220174 c -2.054,-0.0129199804 -4.0914,0.37564652 -6.003,1.14483154 -1.7715,0.70123 -3.3798,1.77484 -4.7209,3.15156 -1.3228,1.38145 -2.3649,3.01761 -3.0661,4.81389 -0.7433,1.9394202 -1.1132,4.0077202 -1.0893,6.0909202 -0.0212,2.0893 0.3543,4.163 1.1057,6.1058 0.7003,1.7967 1.7425,3.433 3.0661,4.8138 1.3398,1.3705 2.9413,2.4434 4.7045,3.1516 1.9152,0.7635 3.955,1.1464 6.0102,1.1281 2.0479,0.0221 4.0807,-0.3609 5.9864,-1.1281 1.767,-0.7086 3.373001,-1.7815 4.718001,-3.1521 1.345,-1.3706 2.4,-3.0096 3.1,-4.8152 1.473,-3.9315 1.473,-8.2819 0,-12.2134402 -0.706,-1.80177 -1.76,-3.43911 -3.099,-4.81389 -1.352,-1.36161 -2.961001,-2.42806 -4.728001,-3.1348 -1.9061,-0.76625102 -3.9387,-1.14926247 -5.9865,-1.12807942 V 0.01012274 Z M 63.265139,29.656686 h 3.477 v -15.7689 c -0.0092,-1.3678 0.1783,-2.7295 0.5565,-4.0413902 0.3528,-1.20523 0.9405,-2.3248 1.7276,-3.29117 0.7992,-0.96101 1.8077,-1.71657 2.9442,-2.2059 1.2998,-0.55714 2.6971,-0.8371 4.1062,-0.82279 V 0.23536678 c -4.0335,0.081907 -7.2214,1.34959902 -9.4236,3.75281902 -3.6225,3.9427 -3.3898,9.6706002 -3.3898,9.7283002 v 15.9421 z" />
        </symbol>
        <symbol id="icon-pinterest" viewBox="0 0 32 32">
            <path
                d="M16.001 0C7.165 0 0 7.163 0 16.001c0 6.55 3.94 12.179 9.579 14.654-.045-1.116-.008-2.459.277-3.675.309-1.298 2.058-8.717 2.058-8.717s-.51-1.022-.51-2.533c0-2.371 1.375-4.141 3.086-4.141 1.454 0 2.158 1.093 2.158 2.403 0 1.462-.933 3.65-1.413 5.677-.401 1.699.85 3.082 2.525 3.082 3.031 0 5.073-3.893 5.073-8.507 0-3.505-2.361-6.13-6.657-6.13-4.852 0-7.876 3.618-7.876 7.66 0 1.396.41 2.378 1.054 3.138.297.352.337.491.229.894-.075.292-.252 1.003-.325 1.283-.107.404-.435.551-.8.401-2.237-.913-3.278-3.361-3.278-6.113 0-4.544 3.833-9.997 11.434-9.997 6.11 0 10.13 4.424 10.13 9.167 0 6.277-3.489 10.966-8.635 10.966-1.725 0-3.351-.933-3.908-1.993 0 0-.93 3.686-1.125 4.397-.339 1.232-1.003 2.467-1.611 3.426 1.439.425 2.96.657 4.535.657 8.836 0 15.999-7.163 15.999-15.999C31.999 7.163 24.836 0 16 0z" />
        </symbol>
        <symbol id="icon-twitter" viewBox="0 0 32 32">
            <path
                d="M32 5.824a12.816 12.816 0 0 1-3.77 1.059 6.715 6.715 0 0 0 2.887-3.723 12.932 12.932 0 0 1-4.172 1.631 6.474 6.474 0 0 0-4.791-2.124c-3.623 0-6.563 3.014-6.563 6.732 0 .528.056 1.04.169 1.533-5.456-.281-10.293-2.958-13.533-7.036a6.858 6.858 0 0 0-.888 3.388 6.777 6.777 0 0 0 2.921 5.603 6.445 6.445 0 0 1-2.975-.84v.083c0 3.263 2.263 5.984 5.269 6.601a6.451 6.451 0 0 1-2.966.118c.836 2.674 3.259 4.621 6.133 4.673a12.96 12.96 0 0 1-8.154 2.883c-.53 0-1.054-.031-1.566-.092a18.279 18.279 0 0 0 10.064 3.022c12.077 0 18.679-10.256 18.679-19.153 0-.293-.006-.586-.017-.873a13.479 13.479 0 0 0 3.274-3.484z" />
        </symbol>
        <symbol id="icon-yearwarranty" viewBox="0 0 36 36">
            <path
                d="m 3.3515625,3.6328125 c -1.4376753,0 -2.46875,1.3802462 -2.46875,2.9179687 v 0.00391 c 0,4.7333825 1.8527124,9.0984385 4.7792969,11.9785155 a 0.625,0.625 0 0 0 0.8847656,-0.0059 0.625,0.625 0 0 0 -0.00781,-0.884766 C 3.8764326,15.022261 2.1328125,10.960095 2.1328125,6.5546875 v -0.00391 c 0,-0.9951348 0.6213274,-1.6679687 1.21875,-1.6679687 h 1.8964844 a 0.625,0.625 0 0 0 0.625,-0.625 0.625,0.625 0 0 0 -0.625,-0.625 z" />
            <path
                d="m 30.677734,3.6328125 a 0.625,0.625 0 0 0 -0.625,0.625 0.625,0.625 0 0 0 0.625,0.625 h 1.898438 c 0.595939,0 1.214844,0.6728075 1.214844,1.6679687 v 0.00391 c 0,4.4054155 -1.74354,8.4675785 -4.40625,11.0878905 a 0.625,0.625 0 0 0 -0.0059,0.884766 0.625,0.625 0 0 0 0.882813,0.0059 c 2.926684,-2.880082 4.779297,-7.24514 4.779297,-11.9785155 v -0.00391 c 0,-1.5376962 -1.027785,-2.9179687 -2.464844,-2.9179687 z" />
            <path
                d="m 9.75,34.302734 a 0.625,0.625 0 0 0 -0.625,0.625 0.625,0.625 0 0 0 0.625,0.625 h 16.425781 a 0.625,0.625 0 0 0 0.625,-0.625 0.625,0.625 0 0 0 -0.625,-0.625 z" />
            <path
                d="m 17.962891,24.019531 a 0.625,0.625 0 0 0 -0.625,0.625 v 10.285156 a 0.625,0.625 0 0 0 0.625,0.625 0.625,0.625 0 0 0 0.625,-0.625 V 24.644531 a 0.625,0.625 0 0 0 -0.625,-0.625 z" />
            <path
                d="m 8.2402344,0.01757813 a 0.6250625,0.6250625 0 0 0 -0.625,0.62499999 V 13.5 c 0,6.449377 4.5901246,11.767578 10.3476566,11.767578 5.75651,0 10.347656,-5.318198 10.347656,-11.767578 V 0.64257812 a 0.6250625,0.6250625 0 0 0 -0.625,-0.62499999 z m 0.625,1.24999997 H 27.060547 V 13.5 c 0,5.860007 -4.115378,10.517578 -9.097656,10.517578 -4.983458,0 -9.0976566,-4.657567 -9.0976566,-10.517578 z" />
        </symbol>
        <symbol id="icon-cart" viewBox="0 0 24 24">
            <path
                d="m 8.3632813,17.443359 c -1.1943026,0 -2.1777344,0.98348 -2.1777344,2.177735 0,1.194303 0.9834952,2.177734 2.1777344,2.177734 1.1942391,0 2.1796877,-0.983431 2.1796877,-2.177734 0,-1.194255 -0.9853852,-2.177735 -2.1796877,-2.177735 z m 0,1.5 c 0.3836158,0 0.6796874,0.294191 0.6796875,0.677735 0,0.383695 -0.2960083,0.677734 -0.6796875,0.677734 -0.3836793,0 -0.6777344,-0.294039 -0.6777344,-0.677734 0,-0.383544 0.2941185,-0.677735 0.6777344,-0.677735 z" />
            <path
                d="m 16.171875,17.443359 c -1.194273,0 -2.179687,0.983461 -2.179687,2.177735 0,1.194322 0.985477,2.177734 2.179687,2.177734 1.194259,0 2.177734,-0.983476 2.177734,-2.177734 0,-1.19421 -0.983412,-2.177735 -2.177734,-2.177735 z m 0,1.5 c 0.383676,0 0.677734,0.294146 0.677734,0.677735 0,0.38374 -0.293994,0.677734 -0.677734,0.677734 -0.383588,0 -0.679687,-0.294058 -0.679687,-0.677734 0,-0.383525 0.296162,-0.677735 0.679687,-0.677735 z" />
            <path
                d="m 21.195312,5.0410156 a 0.75,0.75 0 0 0 -0.919921,0.5273438 l -1.414063,5.2207036 c -0.248372,0.919501 -1.077424,1.560546 -2.033203,1.560546 H 7.9863281 a 0.75,0.75 0 0 0 -0.75,0.75 0.75,0.75 0 0 0 0.75,0.75 h 8.8417969 c 1.629819,0 3.057441,-1.101873 3.480469,-2.667968 L 21.724609,5.9609375 A 0.75,0.75 0 0 0 21.195312,5.0410156 Z" />
            <path
                d="M 1,1.25 A 0.75,0.75 0 0 0 0.25,2 0.75,0.75 0 0 0 1,2.75 h 1.7792969 c 0.1077845,0 0.2058623,0.081232 0.2265625,0.1933594 a 0.750075,0.750075 0 0 0 0.00195,0.017578 L 5.34375,14.167969 c 0.3511341,1.665668 1.8333727,2.867187 3.5351563,2.867187 h 9.4414057 a 0.75,0.75 0 0 0 0.75,-0.75 0.75,0.75 0 0 0 -0.75,-0.75 H 8.8789063 c -0.9975448,0 -1.859769,-0.697604 -2.0664063,-1.673828 v -0.002 L 4.4804687,2.671875 C 4.3297491,1.8554637 3.6143514,1.25 2.7792969,1.25 Z" />
        </symbol>
    </defs>
</svg>